<?xml version="1.0" encoding="utf-8" standalone="no"?>
<!DOCTYPE svg PUBLIC "-//W3C//DTD SVG 1.1//EN"
  "http://www.w3.org/Graphics/SVG/1.1/DTD/svg11.dtd">
<svg xmlns:xlink="http://www.w3.org/1999/xlink" width="760.8345pt" height="450.167384pt" viewBox="0 0 760.8345 450.167384" xmlns="http://www.w3.org/2000/svg" version="1.1">
 <metadata>
  <rdf:RDF xmlns:dc="http://purl.org/dc/elements/1.1/" xmlns:cc="http://creativecommons.org/ns#" xmlns:rdf="http://www.w3.org/1999/02/22-rdf-syntax-ns#">
   <cc:Work>
    <dc:type rdf:resource="http://purl.org/dc/dcmitype/StillImage"/>
    <dc:date>2026-03-12T16:04:14.324953</dc:date>
    <dc:format>image/svg+xml</dc:format>
    <dc:creator>
     <cc:Agent>
      <dc:title>Matplotlib v3.10.0, https://matplotlib.org/</dc:title>
     </cc:Agent>
    </dc:creator>
   </cc:Work>
  </rdf:RDF>
 </metadata>
 <defs>
  <style type="text/css">*{stroke-linejoin: round; stroke-linecap: butt}</style>
 </defs>
 <g id="figure_1">
  <g id="patch_1">
   <path d="M 0 450.167384 
L 760.8345 450.167384 
L 760.8345 0 
L 0 0 
z
" style="fill: #ffffff"/>
  </g>
  <g id="axes_1">
   <g id="patch_2">
    <path d="M 42.6925 402.1092 
L 753.6345 402.1092 
L 753.6345 7.2 
L 42.6925 7.2 
z
" style="fill: #ffffff"/>
   </g>
   <g id="FillBetweenPolyCollection_1">
    <path d="M 111.493339 244.14552 
L 111.493339 402.1092 
L 111.95293 402.1092 
L 112.412522 402.1092 
L 112.872113 402.1092 
L 113.331704 402.1092 
L 113.791296 402.1092 
L 114.250887 402.1092 
L 114.710479 402.1092 
L 115.17007 402.1092 
L 115.629662 402.1092 
L 116.089253 402.1092 
L 116.548845 402.1092 
L 117.008436 402.1092 
L 117.468027 402.1092 
L 117.927619 402.1092 
L 118.38721 402.1092 
L 118.846802 402.1092 
L 119.306393 402.1092 
L 119.765985 402.1092 
L 120.225576 402.1092 
L 120.685168 402.1092 
L 121.144759 402.1092 
L 121.60435 402.1092 
L 122.063942 402.1092 
L 122.523533 402.1092 
L 122.983125 402.1092 
L 123.442716 402.1092 
L 123.902308 402.1092 
L 124.361899 402.1092 
L 124.82149 402.1092 
L 125.281082 402.1092 
L 125.740673 402.1092 
L 126.200265 402.1092 
L 126.659856 402.1092 
L 127.119448 402.1092 
L 127.579039 402.1092 
L 128.038631 402.1092 
L 128.498222 402.1092 
L 128.957813 402.1092 
L 129.417405 402.1092 
L 129.876996 402.1092 
L 130.336588 402.1092 
L 130.796179 402.1092 
L 131.255771 402.1092 
L 131.715362 402.1092 
L 132.174954 402.1092 
L 132.634545 402.1092 
L 133.094136 402.1092 
L 133.553728 402.1092 
L 134.013319 402.1092 
L 134.472911 402.1092 
L 134.932502 402.1092 
L 135.392094 402.1092 
L 135.851685 402.1092 
L 136.311277 402.1092 
L 136.770868 402.1092 
L 137.230459 402.1092 
L 137.690051 402.1092 
L 138.149642 402.1092 
L 138.609234 402.1092 
L 139.068825 402.1092 
L 139.528417 402.1092 
L 139.988008 402.1092 
L 140.447599 402.1092 
L 140.907191 402.1092 
L 141.366782 402.1092 
L 141.826374 402.1092 
L 142.285965 402.1092 
L 142.745557 402.1092 
L 143.205148 402.1092 
L 143.66474 402.1092 
L 144.124331 402.1092 
L 144.583922 402.1092 
L 145.043514 402.1092 
L 145.503105 402.1092 
L 145.962697 402.1092 
L 146.422288 402.1092 
L 146.88188 402.1092 
L 147.341471 402.1092 
L 147.801063 402.1092 
L 148.260654 402.1092 
L 148.720245 402.1092 
L 149.179837 402.1092 
L 149.639428 402.1092 
L 150.09902 402.1092 
L 150.558611 402.1092 
L 151.018203 402.1092 
L 151.477794 402.1092 
L 151.937386 402.1092 
L 152.396977 402.1092 
L 152.856568 402.1092 
L 153.31616 402.1092 
L 153.775751 402.1092 
L 154.235343 402.1092 
L 154.694934 402.1092 
L 155.154526 402.1092 
L 155.614117 402.1092 
L 156.073708 402.1092 
L 156.5333 402.1092 
L 156.992891 402.1092 
L 157.452483 402.1092 
L 157.912074 402.1092 
L 158.371666 402.1092 
L 158.831257 402.1092 
L 159.290849 402.1092 
L 159.75044 402.1092 
L 160.210031 402.1092 
L 160.669623 402.1092 
L 161.129214 402.1092 
L 161.588806 402.1092 
L 162.048397 402.1092 
L 162.507989 402.1092 
L 162.96758 402.1092 
L 163.427172 402.1092 
L 163.886763 402.1092 
L 164.346354 402.1092 
L 164.805946 402.1092 
L 165.265537 402.1092 
L 165.725129 402.1092 
L 166.18472 402.1092 
L 166.644312 402.1092 
L 167.103903 402.1092 
L 167.563495 402.1092 
L 168.023086 402.1092 
L 168.482677 402.1092 
L 168.942269 402.1092 
L 169.40186 402.1092 
L 169.861452 402.1092 
L 170.321043 402.1092 
L 170.780635 402.1092 
L 171.240226 402.1092 
L 171.699817 402.1092 
L 172.159409 402.1092 
L 172.619 402.1092 
L 173.078592 402.1092 
L 173.538183 402.1092 
L 173.997775 402.1092 
L 174.457366 402.1092 
L 174.916958 402.1092 
L 175.376549 402.1092 
L 175.83614 402.1092 
L 176.295732 402.1092 
L 176.755323 402.1092 
L 177.214915 402.1092 
L 177.674506 402.1092 
L 178.134098 402.1092 
L 178.593689 402.1092 
L 179.053281 402.1092 
L 179.512872 402.1092 
L 179.972463 402.1092 
L 180.432055 402.1092 
L 180.891646 402.1092 
L 181.351238 402.1092 
L 181.810829 402.1092 
L 182.270421 402.1092 
L 182.730012 402.1092 
L 183.189603 402.1092 
L 183.649195 402.1092 
L 184.108786 402.1092 
L 184.568378 402.1092 
L 185.027969 402.1092 
L 185.487561 402.1092 
L 185.947152 402.1092 
L 186.406744 402.1092 
L 186.866335 402.1092 
L 187.325926 402.1092 
L 187.785518 402.1092 
L 188.245109 402.1092 
L 188.704701 402.1092 
L 189.164292 402.1092 
L 189.623884 402.1092 
L 190.083475 402.1092 
L 190.543067 402.1092 
L 191.002658 402.1092 
L 191.462249 402.1092 
L 191.921841 402.1092 
L 192.381432 402.1092 
L 192.841024 402.1092 
L 193.300615 402.1092 
L 193.760207 402.1092 
L 194.219798 402.1092 
L 194.67939 402.1092 
L 195.138981 402.1092 
L 195.598572 402.1092 
L 196.058164 402.1092 
L 196.517755 402.1092 
L 196.977347 402.1092 
L 197.436938 402.1092 
L 197.89653 402.1092 
L 198.356121 402.1092 
L 198.815712 402.1092 
L 199.275304 402.1092 
L 199.734895 402.1092 
L 200.194487 402.1092 
L 200.654078 402.1092 
L 201.11367 402.1092 
L 201.573261 402.1092 
L 202.032853 402.1092 
L 202.492444 402.1092 
L 202.952035 402.1092 
L 203.411627 402.1092 
L 203.871218 402.1092 
L 204.33081 402.1092 
L 204.790401 402.1092 
L 205.249993 402.1092 
L 205.709584 402.1092 
L 206.169176 402.1092 
L 206.628767 402.1092 
L 207.088358 402.1092 
L 207.54795 402.1092 
L 208.007541 402.1092 
L 208.467133 402.1092 
L 208.926724 402.1092 
L 209.386316 402.1092 
L 209.845907 402.1092 
L 210.305499 402.1092 
L 210.76509 402.1092 
L 211.224681 402.1092 
L 211.684273 402.1092 
L 212.143864 402.1092 
L 212.603456 402.1092 
L 213.063047 402.1092 
L 213.522639 402.1092 
L 213.98223 402.1092 
L 214.441821 402.1092 
L 214.901413 402.1092 
L 215.361004 402.1092 
L 215.820596 402.1092 
L 216.280187 402.1092 
L 216.739779 402.1092 
L 217.19937 402.1092 
L 217.658962 402.1092 
L 218.118553 402.1092 
L 218.578144 402.1092 
L 219.037736 402.1092 
L 219.497327 402.1092 
L 219.956919 402.1092 
L 220.41651 402.1092 
L 220.876102 402.1092 
L 221.335693 402.1092 
L 221.795285 402.1092 
L 222.254876 402.1092 
L 222.714467 402.1092 
L 223.174059 402.1092 
L 223.63365 402.1092 
L 224.093242 402.1092 
L 224.552833 402.1092 
L 225.012425 402.1092 
L 225.472016 402.1092 
L 225.931608 402.1092 
L 226.391199 402.1092 
L 226.85079 402.1092 
L 227.310382 402.1092 
L 227.769973 402.1092 
L 228.229565 402.1092 
L 228.689156 402.1092 
L 229.148748 402.1092 
L 229.608339 402.1092 
L 230.06793 402.1092 
L 230.527522 402.1092 
L 230.987113 402.1092 
L 231.446705 402.1092 
L 231.906296 402.1092 
L 232.365888 402.1092 
L 232.825479 402.1092 
L 233.285071 402.1092 
L 233.744662 402.1092 
L 234.204253 402.1092 
L 234.663845 402.1092 
L 235.123436 402.1092 
L 235.583028 402.1092 
L 236.042619 402.1092 
L 236.502211 402.1092 
L 236.961802 402.1092 
L 237.421394 402.1092 
L 237.880985 402.1092 
L 238.340576 402.1092 
L 238.800168 402.1092 
L 239.259759 402.1092 
L 239.719351 402.1092 
L 240.178942 402.1092 
L 240.638534 402.1092 
L 241.098125 402.1092 
L 241.557716 402.1092 
L 242.017308 402.1092 
L 242.476899 402.1092 
L 242.936491 402.1092 
L 243.396082 402.1092 
L 243.855674 402.1092 
L 244.315265 402.1092 
L 244.774857 402.1092 
L 245.234448 402.1092 
L 245.694039 402.1092 
L 246.153631 402.1092 
L 246.613222 402.1092 
L 247.072814 402.1092 
L 247.532405 402.1092 
L 247.991997 402.1092 
L 248.451588 402.1092 
L 248.91118 402.1092 
L 249.370771 402.1092 
L 249.830362 402.1092 
L 250.289954 402.1092 
L 250.749545 402.1092 
L 251.209137 402.1092 
L 251.668728 402.1092 
L 252.12832 402.1092 
L 252.587911 402.1092 
L 253.047503 402.1092 
L 253.507094 402.1092 
L 253.966685 402.1092 
L 254.426277 402.1092 
L 254.885868 402.1092 
L 255.34546 402.1092 
L 255.805051 402.1092 
L 256.264643 402.1092 
L 256.724234 402.1092 
L 257.183825 402.1092 
L 257.643417 402.1092 
L 258.103008 402.1092 
L 258.5626 402.1092 
L 259.022191 402.1092 
L 259.481783 402.1092 
L 259.941374 402.1092 
L 260.400966 402.1092 
L 260.860557 402.1092 
L 261.320148 402.1092 
L 261.77974 402.1092 
L 262.239331 402.1092 
L 262.698923 402.1092 
L 263.158514 402.1092 
L 263.618106 402.1092 
L 264.077697 402.1092 
L 264.537289 402.1092 
L 264.99688 402.1092 
L 265.456471 402.1092 
L 265.916063 402.1092 
L 266.375654 402.1092 
L 266.835246 402.1092 
L 267.294837 402.1092 
L 267.754429 402.1092 
L 268.21402 402.1092 
L 268.673612 402.1092 
L 269.133203 402.1092 
L 269.592794 402.1092 
L 270.052386 402.1092 
L 270.511977 402.1092 
L 270.971569 402.1092 
L 271.43116 402.1092 
L 271.890752 402.1092 
L 272.350343 402.1092 
L 272.809934 402.1092 
L 273.269526 402.1092 
L 273.729117 402.1092 
L 274.188709 402.1092 
L 274.6483 402.1092 
L 275.107892 402.1092 
L 275.567483 402.1092 
L 276.027075 402.1092 
L 276.486666 402.1092 
L 276.946257 402.1092 
L 277.405849 402.1092 
L 277.86544 402.1092 
L 278.325032 402.1092 
L 278.784623 402.1092 
L 279.244215 402.1092 
L 279.703806 402.1092 
L 280.163398 402.1092 
L 280.622989 402.1092 
L 281.08258 402.1092 
L 281.542172 402.1092 
L 282.001763 402.1092 
L 282.461355 402.1092 
L 282.920946 402.1092 
L 283.380538 402.1092 
L 283.840129 402.1092 
L 284.299721 402.1092 
L 284.759312 402.1092 
L 285.218903 402.1092 
L 285.678495 402.1092 
L 286.138086 402.1092 
L 286.597678 402.1092 
L 287.057269 402.1092 
L 287.516861 402.1092 
L 287.976452 402.1092 
L 288.436043 402.1092 
L 288.895635 402.1092 
L 289.355226 402.1092 
L 289.814818 402.1092 
L 290.274409 402.1092 
L 290.734001 402.1092 
L 291.193592 402.1092 
L 291.653184 402.1092 
L 292.112775 402.1092 
L 292.572366 402.1092 
L 293.031958 402.1092 
L 293.491549 402.1092 
L 293.951141 402.1092 
L 294.410732 402.1092 
L 294.870324 402.1092 
L 295.329915 402.1092 
L 295.789507 402.1092 
L 296.249098 402.1092 
L 296.708689 402.1092 
L 297.168281 402.1092 
L 297.627872 402.1092 
L 298.087464 402.1092 
L 298.547055 402.1092 
L 299.006647 402.1092 
L 299.466238 402.1092 
L 299.925829 402.1092 
L 300.385421 402.1092 
L 300.845012 402.1092 
L 301.304604 402.1092 
L 301.764195 402.1092 
L 302.223787 402.1092 
L 302.683378 402.1092 
L 303.14297 402.1092 
L 303.602561 402.1092 
L 304.062152 402.1092 
L 304.521744 402.1092 
L 304.981335 402.1092 
L 305.440927 402.1092 
L 305.900518 402.1092 
L 306.36011 402.1092 
L 306.819701 402.1092 
L 307.279293 402.1092 
L 307.738884 402.1092 
L 308.198475 402.1092 
L 308.658067 402.1092 
L 309.117658 402.1092 
L 309.57725 402.1092 
L 310.036841 402.1092 
L 310.496433 402.1092 
L 310.956024 402.1092 
L 311.415616 402.1092 
L 311.875207 402.1092 
L 312.334798 402.1092 
L 312.79439 402.1092 
L 313.253981 402.1092 
L 313.713573 402.1092 
L 314.173164 402.1092 
L 314.632756 402.1092 
L 315.092347 402.1092 
L 315.551938 402.1092 
L 316.01153 402.1092 
L 316.471121 402.1092 
L 316.930713 402.1092 
L 317.390304 402.1092 
L 317.849896 402.1092 
L 318.309487 402.1092 
L 318.769079 402.1092 
L 319.22867 402.1092 
L 319.688261 402.1092 
L 320.147853 402.1092 
L 320.607444 402.1092 
L 321.067036 402.1092 
L 321.526627 402.1092 
L 321.986219 402.1092 
L 322.44581 402.1092 
L 322.905402 402.1092 
L 323.364993 402.1092 
L 323.824584 402.1092 
L 324.284176 402.1092 
L 324.743767 402.1092 
L 325.203359 402.1092 
L 325.66295 402.1092 
L 326.122542 402.1092 
L 326.582133 402.1092 
L 327.041725 402.1092 
L 327.501316 402.1092 
L 327.960907 402.1092 
L 328.420499 402.1092 
L 328.88009 402.1092 
L 329.339682 402.1092 
L 329.799273 402.1092 
L 330.258865 402.1092 
L 330.718456 402.1092 
L 331.178047 402.1092 
L 331.637639 402.1092 
L 332.09723 402.1092 
L 332.556822 402.1092 
L 333.016413 402.1092 
L 333.476005 402.1092 
L 333.935596 402.1092 
L 334.395188 402.1092 
L 334.854779 402.1092 
L 335.31437 402.1092 
L 335.773962 402.1092 
L 336.233553 402.1092 
L 336.693145 402.1092 
L 337.152736 402.1092 
L 337.612328 402.1092 
L 338.071919 402.1092 
L 338.531511 402.1092 
L 338.991102 402.1092 
L 339.450693 402.1092 
L 339.910285 402.1092 
L 340.369876 402.1092 
L 340.829468 402.1092 
L 340.829468 317.870324 
L 340.829468 317.870324 
L 340.369876 313.127488 
L 339.910285 308.81088 
L 339.450693 305.459991 
L 338.991102 302.335104 
L 338.531511 299.883408 
L 338.071919 297.431713 
L 337.612328 295.44529 
L 337.152736 293.603238 
L 336.693145 291.761187 
L 336.233553 290.219599 
L 335.773962 288.821128 
L 335.31437 287.422657 
L 334.854779 286.024186 
L 334.395188 284.93042 
L 333.935596 283.854639 
L 333.476005 282.778858 
L 333.016413 281.703076 
L 332.556822 280.724286 
L 332.09723 279.894611 
L 331.637639 279.064935 
L 331.178047 278.23526 
L 330.718456 277.405584 
L 330.258865 276.575908 
L 329.799273 275.893565 
L 329.339682 275.239682 
L 328.88009 274.585799 
L 328.420499 273.931916 
L 327.960907 273.278034 
L 327.501316 272.624151 
L 327.041725 271.981795 
L 326.582133 271.474439 
L 326.122542 270.967084 
L 325.66295 270.459728 
L 325.203359 269.952373 
L 324.743767 269.445017 
L 324.284176 268.937662 
L 323.824584 268.430306 
L 323.364993 267.922951 
L 322.905402 267.523934 
L 322.44581 267.132556 
L 321.986219 266.741178 
L 321.526627 266.349799 
L 321.067036 265.958421 
L 320.607444 265.567042 
L 320.147853 265.175664 
L 319.688261 264.784286 
L 319.22867 264.392907 
L 318.769079 264.013787 
L 318.309487 263.713387 
L 317.849896 263.412988 
L 317.390304 263.112588 
L 316.930713 262.812189 
L 316.471121 262.511789 
L 316.01153 262.21139 
L 315.551938 261.91099 
L 315.092347 261.610591 
L 314.632756 261.310191 
L 314.173164 261.009791 
L 313.713573 260.709392 
L 313.253981 260.429187 
L 312.79439 260.198151 
L 312.334798 259.967115 
L 311.875207 259.736079 
L 311.415616 259.505043 
L 310.956024 259.274007 
L 310.496433 259.042971 
L 310.036841 258.811934 
L 309.57725 258.580898 
L 309.117658 258.349862 
L 308.658067 258.118826 
L 308.198475 257.88779 
L 307.738884 257.656754 
L 307.279293 257.425718 
L 306.819701 257.227411 
L 306.36011 257.044631 
L 305.900518 256.861852 
L 305.440927 256.679072 
L 304.981335 256.496293 
L 304.521744 256.313513 
L 304.062152 256.130734 
L 303.602561 255.947954 
L 303.14297 255.765175 
L 302.683378 255.582396 
L 302.223787 255.399616 
L 301.764195 255.216837 
L 301.304604 255.037605 
L 300.845012 254.890848 
L 300.385421 254.744092 
L 299.925829 254.597335 
L 299.466238 254.450578 
L 299.006647 254.303821 
L 298.547055 254.157064 
L 298.087464 254.010308 
L 297.627872 253.863551 
L 297.168281 253.716794 
L 296.708689 253.570037 
L 296.249098 253.42328 
L 295.789507 253.276524 
L 295.329915 253.140199 
L 294.870324 253.019722 
L 294.410732 252.899245 
L 293.951141 252.778768 
L 293.491549 252.658291 
L 293.031958 252.537814 
L 292.572366 252.417338 
L 292.112775 252.296861 
L 291.653184 252.176384 
L 291.193592 252.055907 
L 290.734001 251.93543 
L 290.274409 251.814953 
L 289.814818 251.694476 
L 289.355226 251.587498 
L 288.895635 251.487627 
L 288.436043 251.387756 
L 287.976452 251.287885 
L 287.516861 251.188014 
L 287.057269 251.088143 
L 286.597678 250.988272 
L 286.138086 250.888402 
L 285.678495 250.788531 
L 285.218903 250.68866 
L 284.759312 250.588789 
L 284.299721 250.488918 
L 283.840129 250.389047 
L 283.380538 250.30395 
L 282.920946 250.221095 
L 282.461355 250.138239 
L 282.001763 250.055384 
L 281.542172 249.972529 
L 281.08258 249.889674 
L 280.622989 249.806819 
L 280.163398 249.723964 
L 279.703806 249.641109 
L 279.244215 249.558253 
L 278.784623 249.475398 
L 278.325032 249.392543 
L 277.86544 249.309688 
L 277.405849 249.236671 
L 276.946257 249.16693 
L 276.486666 249.097189 
L 276.027075 249.027447 
L 275.567483 248.957706 
L 275.107892 248.887965 
L 274.6483 248.818224 
L 274.188709 248.748483 
L 273.729117 248.678741 
L 273.269526 248.609 
L 272.809934 248.539259 
L 272.350343 248.469518 
L 271.890752 248.399776 
L 271.43116 248.339513 
L 270.971569 248.28028 
L 270.511977 248.221047 
L 270.052386 248.161814 
L 269.592794 248.102581 
L 269.133203 248.043349 
L 268.673612 247.984116 
L 268.21402 247.924883 
L 267.754429 247.86565 
L 267.294837 247.806417 
L 266.835246 247.747184 
L 266.375654 247.687951 
L 265.916063 247.628719 
L 265.456471 247.577578 
L 264.99688 247.527918 
L 264.537289 247.478258 
L 264.077697 247.428598 
L 263.618106 247.378938 
L 263.158514 247.329278 
L 262.698923 247.279618 
L 262.239331 247.229958 
L 261.77974 247.180298 
L 261.320148 247.130638 
L 260.860557 247.080978 
L 260.400966 247.031318 
L 259.941374 246.981658 
L 259.481783 246.937144 
L 259.022191 246.895049 
L 258.5626 246.852954 
L 258.103008 246.810859 
L 257.643417 246.768764 
L 257.183825 246.726669 
L 256.724234 246.684574 
L 256.264643 246.642479 
L 255.805051 246.600384 
L 255.34546 246.558289 
L 254.885868 246.516194 
L 254.426277 246.474099 
L 253.966685 246.432004 
L 253.507094 246.394505 
L 253.047503 246.358858 
L 252.587911 246.323211 
L 252.12832 246.287563 
L 251.668728 246.251916 
L 251.209137 246.216269 
L 250.749545 246.180622 
L 250.289954 246.144975 
L 249.830362 246.109328 
L 249.370771 246.073681 
L 248.91118 246.038034 
L 248.451588 246.002387 
L 247.991997 245.96674 
L 247.532405 245.936022 
L 247.072814 245.905452 
L 246.613222 245.874881 
L 246.153631 245.844311 
L 245.694039 245.813741 
L 245.234448 245.783171 
L 244.774857 245.7526 
L 244.315265 245.72203 
L 243.855674 245.69146 
L 243.396082 245.66089 
L 242.936491 245.63032 
L 242.476899 245.599749 
L 242.017308 245.569865 
L 241.557716 245.543517 
L 241.098125 245.51717 
L 240.638534 245.490823 
L 240.178942 245.464476 
L 239.719351 245.438128 
L 239.259759 245.411781 
L 238.800168 245.385434 
L 238.340576 245.359087 
L 237.880985 245.33274 
L 237.421394 245.306392 
L 236.961802 245.280045 
L 236.502211 245.253698 
L 236.042619 245.229619 
L 235.583028 245.207044 
L 235.123436 245.184468 
L 234.663845 245.161892 
L 234.204253 245.139317 
L 233.744662 245.116741 
L 233.285071 245.094166 
L 232.825479 245.07159 
L 232.365888 245.049015 
L 231.906296 245.026439 
L 231.446705 245.003863 
L 230.987113 244.981288 
L 230.527522 244.958712 
L 230.06793 244.936679 
L 229.608339 244.917492 
L 229.148748 244.898305 
L 228.689156 244.879118 
L 228.229565 244.859931 
L 227.769973 244.840744 
L 227.310382 244.821557 
L 226.85079 244.80237 
L 226.391199 244.783182 
L 225.931608 244.763995 
L 225.472016 244.744808 
L 225.012425 244.725621 
L 224.552833 244.706434 
L 224.093242 244.689198 
L 223.63365 244.672941 
L 223.174059 244.656684 
L 222.714467 244.640426 
L 222.254876 244.624169 
L 221.795285 244.607912 
L 221.335693 244.591655 
L 220.876102 244.575398 
L 220.41651 244.559141 
L 219.956919 244.542884 
L 219.497327 244.526626 
L 219.037736 244.510369 
L 218.578144 244.494112 
L 218.118553 244.478482 
L 217.658962 244.464716 
L 217.19937 244.450951 
L 216.739779 244.437185 
L 216.280187 244.423419 
L 215.820596 244.409654 
L 215.361004 244.395888 
L 214.901413 244.382122 
L 214.441821 244.368357 
L 213.98223 244.354591 
L 213.522639 244.340825 
L 213.063047 244.32706 
L 212.603456 244.313294 
L 212.143864 244.300742 
L 211.684273 244.289105 
L 211.224681 244.277467 
L 210.76509 244.26583 
L 210.305499 244.254193 
L 209.845907 244.242555 
L 209.386316 244.230918 
L 208.926724 244.219281 
L 208.467133 244.207643 
L 208.007541 244.196006 
L 207.54795 244.184369 
L 207.088358 244.172731 
L 206.628767 244.161094 
L 206.169176 244.149695 
L 205.709584 244.140063 
L 205.249993 244.13043 
L 204.790401 244.120797 
L 204.33081 244.111164 
L 203.871218 244.101532 
L 203.411627 244.091899 
L 202.952035 244.082266 
L 202.492444 244.072633 
L 202.032853 244.063001 
L 201.573261 244.053368 
L 201.11367 244.043735 
L 200.654078 244.034102 
L 200.194487 244.025166 
L 199.734895 244.017141 
L 199.275304 244.009117 
L 198.815712 244.001092 
L 198.356121 243.993067 
L 197.89653 243.985042 
L 197.436938 243.977017 
L 196.977347 243.968992 
L 196.517755 243.960967 
L 196.058164 243.952942 
L 195.598572 243.944917 
L 195.138981 243.936892 
L 194.67939 243.928867 
L 194.219798 243.922094 
L 193.760207 243.915509 
L 193.300615 243.908924 
L 192.841024 243.902339 
L 192.381432 243.895754 
L 191.921841 243.889169 
L 191.462249 243.882583 
L 191.002658 243.875998 
L 190.543067 243.869413 
L 190.083475 243.862828 
L 189.623884 243.856243 
L 189.164292 243.849658 
L 188.704701 243.843393 
L 188.245109 243.83813 
L 187.785518 243.832868 
L 187.325926 243.827606 
L 186.866335 243.822344 
L 186.406744 243.817082 
L 185.947152 243.81182 
L 185.487561 243.806557 
L 185.027969 243.801295 
L 184.568378 243.796033 
L 184.108786 243.790771 
L 183.649195 243.785509 
L 183.189603 243.780247 
L 182.730012 243.774984 
L 182.270421 243.77092 
L 181.810829 243.76692 
L 181.351238 243.762921 
L 180.891646 243.758921 
L 180.432055 243.754922 
L 179.972463 243.750922 
L 179.512872 243.746922 
L 179.053281 243.742923 
L 178.593689 243.738923 
L 178.134098 243.734924 
L 177.674506 243.730924 
L 177.214915 243.726924 
L 176.755323 243.723332 
L 176.295732 243.720585 
L 175.83614 243.717838 
L 175.376549 243.715091 
L 174.916958 243.712344 
L 174.457366 243.709597 
L 173.997775 243.70685 
L 173.538183 243.704103 
L 173.078592 243.701356 
L 172.619 243.698608 
L 172.159409 243.695861 
L 171.699817 243.693114 
L 171.240226 243.690367 
L 170.780635 243.68762 
L 170.321043 243.685698 
L 169.861452 243.6841 
L 169.40186 243.682501 
L 168.942269 243.680903 
L 168.482677 243.679305 
L 168.023086 243.677707 
L 167.563495 243.676109 
L 167.103903 243.674511 
L 166.644312 243.672913 
L 166.18472 243.671315 
L 165.725129 243.669717 
L 165.265537 243.668119 
L 164.805946 243.666668 
L 164.346354 243.666179 
L 163.886763 243.665691 
L 163.427172 243.665202 
L 162.96758 243.664714 
L 162.507989 243.664225 
L 162.048397 243.663736 
L 161.588806 243.663248 
L 161.129214 243.662759 
L 160.669623 243.662271 
L 160.210031 243.661782 
L 159.75044 243.661293 
L 159.290849 243.660805 
L 158.831257 243.660316 
L 158.371666 243.660554 
L 157.912074 243.661122 
L 157.452483 243.661689 
L 156.992891 243.662257 
L 156.5333 243.662824 
L 156.073708 243.663392 
L 155.614117 243.663959 
L 155.154526 243.664527 
L 154.694934 243.665094 
L 154.235343 243.665662 
L 153.775751 243.666229 
L 153.31616 243.666797 
L 152.856568 243.667582 
L 152.396977 243.66917 
L 151.937386 243.670759 
L 151.477794 243.672347 
L 151.018203 243.673936 
L 150.558611 243.675524 
L 150.09902 243.677113 
L 149.639428 243.678701 
L 149.179837 243.68029 
L 148.720245 243.681879 
L 148.260654 243.683467 
L 147.801063 243.685056 
L 147.341471 243.686644 
L 146.88188 243.688813 
L 146.422288 243.691515 
L 145.962697 243.694216 
L 145.503105 243.696918 
L 145.043514 243.69962 
L 144.583922 243.702322 
L 144.124331 243.705023 
L 143.66474 243.707725 
L 143.205148 243.710427 
L 142.745557 243.713129 
L 142.285965 243.71583 
L 141.826374 243.718532 
L 141.366782 243.721234 
L 140.907191 243.724825 
L 140.447599 243.728668 
L 139.988008 243.73251 
L 139.528417 243.736353 
L 139.068825 243.740196 
L 138.609234 243.744039 
L 138.149642 243.747881 
L 137.690051 243.751724 
L 137.230459 243.755567 
L 136.770868 243.75941 
L 136.311277 243.763252 
L 135.851685 243.767095 
L 135.392094 243.770938 
L 134.932502 243.775932 
L 134.472911 243.780983 
L 134.013319 243.786035 
L 133.553728 243.791087 
L 133.094136 243.796139 
L 132.634545 243.80119 
L 132.174954 243.806242 
L 131.715362 243.811294 
L 131.255771 243.816346 
L 130.796179 243.821398 
L 130.336588 243.826449 
L 129.876996 243.831501 
L 129.417405 243.836553 
L 128.957813 243.842821 
L 128.498222 243.849264 
L 128.038631 243.855707 
L 127.579039 243.86215 
L 127.119448 243.868593 
L 126.659856 243.875037 
L 126.200265 243.88148 
L 125.740673 243.887923 
L 125.281082 243.894366 
L 124.82149 243.900809 
L 124.361899 243.907252 
L 123.902308 243.913695 
L 123.442716 243.920138 
L 122.983125 243.927637 
L 122.523533 243.935524 
L 122.063942 243.943411 
L 121.60435 243.951299 
L 121.144759 243.959186 
L 120.685168 243.967073 
L 120.225576 243.97496 
L 119.765985 243.982847 
L 119.306393 243.990734 
L 118.846802 243.998621 
L 118.38721 244.006508 
L 117.927619 244.014395 
L 117.468027 244.022283 
L 117.008436 244.031375 
L 116.548845 244.040887 
L 116.089253 244.050399 
L 115.629662 244.059911 
L 115.17007 244.069423 
L 114.710479 244.078936 
L 114.250887 244.088448 
L 113.791296 244.09796 
L 113.331704 244.107472 
L 112.872113 244.116984 
L 112.412522 244.126496 
L 111.95293 244.136008 
L 111.493339 244.14552 
z
" clip-path="url(#pc4d55e8395)" style="fill: url(#h011d174e3f); stroke: #a6a6a6"/>
   </g>
   <g id="FillBetweenPolyCollection_2">
    <path d="M 608.388285 178.393138 
L 608.388285 402.1092 
L 608.388285 402.1092 
L 684.833661 402.1092 
L 684.833661 178.393138 
L 684.833661 178.393138 
L 608.388285 178.393138 
L 608.388285 178.393138 
z
" clip-path="url(#pc4d55e8395)" style="fill: url(#h68b1783544); stroke: #a6a6a6"/>
   </g>
   <g id="matplotlib.axis_1">
    <g id="xtick_1"/>
    <g id="xtick_2"/>
    <g id="xtick_3"/>
    <g id="xtick_4"/>
    <g id="xtick_5"/>
   </g>
   <g id="matplotlib.axis_2">
    <g id="ytick_1"/>
    <g id="ytick_2"/>
    <g id="ytick_3"/>
    <g id="ytick_4"/>
    <g id="ytick_5"/>
    <g id="ytick_6"/>
    <g id="text_1">
     <!-- Energy -->
     <g transform="translate(31.536563 258.515381) rotate(-90) scale(0.34 -0.34)">
      <defs>
       <path id="ArialMT-45" d="M 506 0 
L 506 4581 
L 3819 4581 
L 3819 4041 
L 1113 4041 
L 1113 2638 
L 3647 2638 
L 3647 2100 
L 1113 2100 
L 1113 541 
L 3925 541 
L 3925 0 
L 506 0 
z
" transform="scale(0.015625)"/>
       <path id="ArialMT-6e" d="M 422 0 
L 422 3319 
L 928 3319 
L 928 2847 
Q 1294 3394 1984 3394 
Q 2284 3394 2536 3286 
Q 2788 3178 2913 3003 
Q 3038 2828 3088 2588 
Q 3119 2431 3119 2041 
L 3119 0 
L 2556 0 
L 2556 2019 
Q 2556 2363 2490 2533 
Q 2425 2703 2258 2804 
Q 2091 2906 1866 2906 
Q 1506 2906 1245 2678 
Q 984 2450 984 1813 
L 984 0 
L 422 0 
z
" transform="scale(0.015625)"/>
       <path id="ArialMT-65" d="M 2694 1069 
L 3275 997 
Q 3138 488 2766 206 
Q 2394 -75 1816 -75 
Q 1088 -75 661 373 
Q 234 822 234 1631 
Q 234 2469 665 2931 
Q 1097 3394 1784 3394 
Q 2450 3394 2872 2941 
Q 3294 2488 3294 1666 
Q 3294 1616 3291 1516 
L 816 1516 
Q 847 969 1125 678 
Q 1403 388 1819 388 
Q 2128 388 2347 550 
Q 2566 713 2694 1069 
z
M 847 1978 
L 2700 1978 
Q 2663 2397 2488 2606 
Q 2219 2931 1791 2931 
Q 1403 2931 1139 2672 
Q 875 2413 847 1978 
z
" transform="scale(0.015625)"/>
       <path id="ArialMT-72" d="M 416 0 
L 416 3319 
L 922 3319 
L 922 2816 
Q 1116 3169 1280 3281 
Q 1444 3394 1641 3394 
Q 1925 3394 2219 3213 
L 2025 2691 
Q 1819 2813 1613 2813 
Q 1428 2813 1281 2702 
Q 1134 2591 1072 2394 
Q 978 2094 978 1738 
L 978 0 
L 416 0 
z
" transform="scale(0.015625)"/>
       <path id="ArialMT-67" d="M 319 -275 
L 866 -356 
Q 900 -609 1056 -725 
Q 1266 -881 1628 -881 
Q 2019 -881 2231 -725 
Q 2444 -569 2519 -288 
Q 2563 -116 2559 434 
Q 2191 0 1641 0 
Q 956 0 581 494 
Q 206 988 206 1678 
Q 206 2153 378 2554 
Q 550 2956 876 3175 
Q 1203 3394 1644 3394 
Q 2231 3394 2613 2919 
L 2613 3319 
L 3131 3319 
L 3131 450 
Q 3131 -325 2973 -648 
Q 2816 -972 2473 -1159 
Q 2131 -1347 1631 -1347 
Q 1038 -1347 672 -1080 
Q 306 -813 319 -275 
z
M 784 1719 
Q 784 1066 1043 766 
Q 1303 466 1694 466 
Q 2081 466 2343 764 
Q 2606 1063 2606 1700 
Q 2606 2309 2336 2618 
Q 2066 2928 1684 2928 
Q 1309 2928 1046 2623 
Q 784 2319 784 1719 
z
" transform="scale(0.015625)"/>
       <path id="ArialMT-79" d="M 397 -1278 
L 334 -750 
Q 519 -800 656 -800 
Q 844 -800 956 -737 
Q 1069 -675 1141 -563 
Q 1194 -478 1313 -144 
Q 1328 -97 1363 -6 
L 103 3319 
L 709 3319 
L 1400 1397 
Q 1534 1031 1641 628 
Q 1738 1016 1872 1384 
L 2581 3319 
L 3144 3319 
L 1881 -56 
Q 1678 -603 1566 -809 
Q 1416 -1088 1222 -1217 
Q 1028 -1347 759 -1347 
Q 597 -1347 397 -1278 
z
" transform="scale(0.015625)"/>
      </defs>
      <use xlink:href="#ArialMT-45"/>
      <use xlink:href="#ArialMT-6e" transform="translate(66.699219 0)"/>
      <use xlink:href="#ArialMT-65" transform="translate(122.314453 0)"/>
      <use xlink:href="#ArialMT-72" transform="translate(177.929688 0)"/>
      <use xlink:href="#ArialMT-67" transform="translate(211.230469 0)"/>
      <use xlink:href="#ArialMT-79" transform="translate(266.845703 0)"/>
     </g>
    </g>
   </g>
   <g id="line2d_1">
    <path d="M 111.493339 42.741828 
L 134.472911 42.377291 
L 155.154526 42.260835 
L 179.053281 42.339231 
L 201.11367 42.640043 
L 220.41651 43.155449 
L 235.123436 43.780776 
L 245.694039 44.410049 
L 255.34546 45.154597 
L 265.916063 46.225027 
L 276.486666 47.693497 
L 281.542172 48.568837 
L 286.597678 49.58458 
L 292.112775 50.893169 
L 297.168281 52.313102 
L 302.683378 54.178704 
L 308.198475 56.484098 
L 314.173164 59.606099 
L 319.22867 62.989215 
L 323.824584 67.026614 
L 327.501316 71.220459 
L 330.258865 75.172216 
L 333.016413 80.299384 
L 334.854779 84.620494 
L 336.693145 90.357495 
L 338.071919 96.028021 
L 338.991102 100.931412 
L 339.910285 107.407188 
L 340.829468 116.466632 
L 340.829468 116.466632 
" clip-path="url(#pc4d55e8395)" style="fill: none; stroke: #000000; stroke-width: 2.6; stroke-linecap: square"/>
   </g>
   <g id="line2d_2">
    <path d="M 111.493339 244.14552 
L 134.472911 243.780983 
L 155.154526 243.664527 
L 179.053281 243.742923 
L 201.11367 244.043735 
L 220.41651 244.559141 
L 235.123436 245.184468 
L 245.694039 245.813741 
L 255.34546 246.558289 
L 265.916063 247.628719 
L 276.486666 249.097189 
L 281.542172 249.972529 
L 286.597678 250.988272 
L 292.112775 252.296861 
L 297.168281 253.716794 
L 302.683378 255.582396 
L 308.198475 257.88779 
L 314.173164 261.009791 
L 319.22867 264.392907 
L 323.824584 268.430306 
L 327.501316 272.624151 
L 330.258865 276.575908 
L 333.016413 281.703076 
L 334.854779 286.024186 
L 336.693145 291.761187 
L 338.071919 297.431713 
L 338.991102 302.335104 
L 339.910285 308.81088 
L 340.829468 317.870324 
L 340.829468 317.870324 
" clip-path="url(#pc4d55e8395)" style="fill: none; stroke: #000000; stroke-width: 2.6; stroke-linecap: square"/>
   </g>
   <g id="line2d_3">
    <path d="M 111.493339 138.902218 
L 340.829468 138.902218 
" clip-path="url(#pc4d55e8395)" style="fill: none; stroke-dasharray: 2,3.3; stroke-dashoffset: 0; stroke: #000000; stroke-width: 2"/>
   </g>
   <g id="line2d_4">
    <path d="M 0 0 
" clip-path="url(#pc4d55e8395)" style="fill: none; stroke: #000000; stroke-width: 2.4; stroke-linecap: square"/>
   </g>
   <g id="line2d_5">
    <path d="M 340.829468 402.1092 
L 340.829468 -1 
" clip-path="url(#pc4d55e8395)" style="fill: none; stroke: #000000; stroke-width: 2; stroke-linecap: square"/>
   </g>
   <g id="line2d_6">
    <path d="M 417.274844 402.1092 
L 417.274844 -1 
" clip-path="url(#pc4d55e8395)" style="fill: none; stroke: #000000; stroke-width: 2; stroke-linecap: square"/>
   </g>
   <g id="line2d_7">
    <path d="M 608.388285 178.393138 
L 684.833661 178.393138 
" clip-path="url(#pc4d55e8395)" style="fill: none; stroke: #000000; stroke-width: 2; stroke-linecap: square"/>
   </g>
   <g id="line2d_8">
    <path d="M 0 0 
" clip-path="url(#pc4d55e8395)" style="fill: none; stroke: #000000; stroke-width: 2.2; stroke-linecap: square"/>
   </g>
   <g id="line2d_9">
    <path d="M 0 0 
" clip-path="url(#pc4d55e8395)" style="fill: none; stroke: #000000; stroke-width: 2.2; stroke-linecap: square"/>
   </g>
   <g id="line2d_10">
    <path d="M 0 0 
" clip-path="url(#pc4d55e8395)" style="fill: none; stroke: #000000; stroke-width: 2.2; stroke-linecap: square"/>
   </g>
   <g id="line2d_11">
    <path d="M 608.388285 402.1092 
L 608.388285 -1 
" clip-path="url(#pc4d55e8395)" style="fill: none; stroke: #000000; stroke-width: 2; stroke-linecap: square"/>
   </g>
   <g id="line2d_12">
    <path d="M 684.833661 402.1092 
L 684.833661 178.393138 
" clip-path="url(#pc4d55e8395)" style="fill: none; stroke: #a6a6a6; stroke-width: 2; stroke-linecap: square"/>
   </g>
   <g id="line2d_13">
    <path clip-path="url(#pc4d55e8395)" style="fill: none; stroke: #000000; stroke-width: 2.2; stroke-linecap: square"/>
   </g>
   <g id="text_2">
    <!-- 4H-SiC -->
    <g transform="translate(174.598903 432.912384) scale(0.32 -0.32)">
     <defs>
      <path id="ArialMT-34" d="M 2069 0 
L 2069 1097 
L 81 1097 
L 81 1613 
L 2172 4581 
L 2631 4581 
L 2631 1613 
L 3250 1613 
L 3250 1097 
L 2631 1097 
L 2631 0 
L 2069 0 
z
M 2069 1613 
L 2069 3678 
L 634 1613 
L 2069 1613 
z
" transform="scale(0.015625)"/>
      <path id="ArialMT-48" d="M 513 0 
L 513 4581 
L 1119 4581 
L 1119 2700 
L 3500 2700 
L 3500 4581 
L 4106 4581 
L 4106 0 
L 3500 0 
L 3500 2159 
L 1119 2159 
L 1119 0 
L 513 0 
z
" transform="scale(0.015625)"/>
      <path id="ArialMT-2d" d="M 203 1375 
L 203 1941 
L 1931 1941 
L 1931 1375 
L 203 1375 
z
" transform="scale(0.015625)"/>
      <path id="ArialMT-53" d="M 288 1472 
L 859 1522 
Q 900 1178 1048 958 
Q 1197 738 1509 602 
Q 1822 466 2213 466 
Q 2559 466 2825 569 
Q 3091 672 3220 851 
Q 3350 1031 3350 1244 
Q 3350 1459 3225 1620 
Q 3100 1781 2813 1891 
Q 2628 1963 1997 2114 
Q 1366 2266 1113 2400 
Q 784 2572 623 2826 
Q 463 3081 463 3397 
Q 463 3744 659 4045 
Q 856 4347 1234 4503 
Q 1613 4659 2075 4659 
Q 2584 4659 2973 4495 
Q 3363 4331 3572 4012 
Q 3781 3694 3797 3291 
L 3216 3247 
Q 3169 3681 2898 3903 
Q 2628 4125 2100 4125 
Q 1550 4125 1298 3923 
Q 1047 3722 1047 3438 
Q 1047 3191 1225 3031 
Q 1400 2872 2139 2705 
Q 2878 2538 3153 2413 
Q 3553 2228 3743 1945 
Q 3934 1663 3934 1294 
Q 3934 928 3725 604 
Q 3516 281 3123 101 
Q 2731 -78 2241 -78 
Q 1619 -78 1198 103 
Q 778 284 539 648 
Q 300 1013 288 1472 
z
" transform="scale(0.015625)"/>
      <path id="ArialMT-69" d="M 425 3934 
L 425 4581 
L 988 4581 
L 988 3934 
L 425 3934 
z
M 425 0 
L 425 3319 
L 988 3319 
L 988 0 
L 425 0 
z
" transform="scale(0.015625)"/>
      <path id="ArialMT-43" d="M 3763 1606 
L 4369 1453 
Q 4178 706 3683 314 
Q 3188 -78 2472 -78 
Q 1731 -78 1267 223 
Q 803 525 561 1097 
Q 319 1669 319 2325 
Q 319 3041 592 3573 
Q 866 4106 1370 4382 
Q 1875 4659 2481 4659 
Q 3169 4659 3637 4309 
Q 4106 3959 4291 3325 
L 3694 3184 
Q 3534 3684 3231 3912 
Q 2928 4141 2469 4141 
Q 1941 4141 1586 3887 
Q 1231 3634 1087 3207 
Q 944 2781 944 2328 
Q 944 1744 1114 1308 
Q 1284 872 1643 656 
Q 2003 441 2422 441 
Q 2931 441 3284 734 
Q 3638 1028 3763 1606 
z
" transform="scale(0.015625)"/>
     </defs>
     <use xlink:href="#ArialMT-34"/>
     <use xlink:href="#ArialMT-48" transform="translate(55.615234 0)"/>
     <use xlink:href="#ArialMT-2d" transform="translate(127.832031 0)"/>
     <use xlink:href="#ArialMT-53" transform="translate(161.132812 0)"/>
     <use xlink:href="#ArialMT-69" transform="translate(227.832031 0)"/>
     <use xlink:href="#ArialMT-43" transform="translate(250.048828 0)"/>
    </g>
   </g>
   <g id="text_3">
    <!-- SiO$_2$ -->
    <g transform="translate(344.972156 433.367384) scale(0.32 -0.32)">
     <defs>
      <path id="ArialMT-4f" d="M 309 2231 
Q 309 3372 921 4017 
Q 1534 4663 2503 4663 
Q 3138 4663 3647 4359 
Q 4156 4056 4423 3514 
Q 4691 2972 4691 2284 
Q 4691 1588 4409 1038 
Q 4128 488 3612 205 
Q 3097 -78 2500 -78 
Q 1853 -78 1343 234 
Q 834 547 571 1087 
Q 309 1628 309 2231 
z
M 934 2222 
Q 934 1394 1379 917 
Q 1825 441 2497 441 
Q 3181 441 3623 922 
Q 4066 1403 4066 2288 
Q 4066 2847 3877 3264 
Q 3688 3681 3323 3911 
Q 2959 4141 2506 4141 
Q 1863 4141 1398 3698 
Q 934 3256 934 2222 
z
" transform="scale(0.015625)"/>
      <path id="ArialMT-32" d="M 3222 541 
L 3222 0 
L 194 0 
Q 188 203 259 391 
Q 375 700 629 1000 
Q 884 1300 1366 1694 
Q 2113 2306 2375 2664 
Q 2638 3022 2638 3341 
Q 2638 3675 2398 3904 
Q 2159 4134 1775 4134 
Q 1369 4134 1125 3890 
Q 881 3647 878 3216 
L 300 3275 
Q 359 3922 746 4261 
Q 1134 4600 1788 4600 
Q 2447 4600 2831 4234 
Q 3216 3869 3216 3328 
Q 3216 3053 3103 2787 
Q 2991 2522 2730 2228 
Q 2469 1934 1863 1422 
Q 1356 997 1212 845 
Q 1069 694 975 541 
L 3222 541 
z
" transform="scale(0.015625)"/>
     </defs>
     <use xlink:href="#ArialMT-53" transform="translate(0 0.140625)"/>
     <use xlink:href="#ArialMT-69" transform="translate(66.699219 0.140625)"/>
     <use xlink:href="#ArialMT-4f" transform="translate(88.916016 0.140625)"/>
     <use xlink:href="#ArialMT-32" transform="translate(168.441563 -29.728125) scale(0.7)"/>
    </g>
   </g>
   <g id="text_4">
    <!-- Vac -->
    <g transform="translate(486.441565 432.912384) scale(0.32 -0.32)">
     <defs>
      <path id="ArialMT-56" d="M 1803 0 
L 28 4581 
L 684 4581 
L 1875 1253 
Q 2019 853 2116 503 
Q 2222 878 2363 1253 
L 3600 4581 
L 4219 4581 
L 2425 0 
L 1803 0 
z
" transform="scale(0.015625)"/>
      <path id="ArialMT-61" d="M 2588 409 
Q 2275 144 1986 34 
Q 1697 -75 1366 -75 
Q 819 -75 525 192 
Q 231 459 231 875 
Q 231 1119 342 1320 
Q 453 1522 633 1644 
Q 813 1766 1038 1828 
Q 1203 1872 1538 1913 
Q 2219 1994 2541 2106 
Q 2544 2222 2544 2253 
Q 2544 2597 2384 2738 
Q 2169 2928 1744 2928 
Q 1347 2928 1158 2789 
Q 969 2650 878 2297 
L 328 2372 
Q 403 2725 575 2942 
Q 747 3159 1072 3276 
Q 1397 3394 1825 3394 
Q 2250 3394 2515 3294 
Q 2781 3194 2906 3042 
Q 3031 2891 3081 2659 
Q 3109 2516 3109 2141 
L 3109 1391 
Q 3109 606 3145 398 
Q 3181 191 3288 0 
L 2700 0 
Q 2613 175 2588 409 
z
M 2541 1666 
Q 2234 1541 1622 1453 
Q 1275 1403 1131 1340 
Q 988 1278 909 1158 
Q 831 1038 831 891 
Q 831 666 1001 516 
Q 1172 366 1500 366 
Q 1825 366 2078 508 
Q 2331 650 2450 897 
Q 2541 1088 2541 1459 
L 2541 1666 
z
" transform="scale(0.015625)"/>
      <path id="ArialMT-63" d="M 2588 1216 
L 3141 1144 
Q 3050 572 2676 248 
Q 2303 -75 1759 -75 
Q 1078 -75 664 370 
Q 250 816 250 1647 
Q 250 2184 428 2587 
Q 606 2991 970 3192 
Q 1334 3394 1763 3394 
Q 2303 3394 2647 3120 
Q 2991 2847 3088 2344 
L 2541 2259 
Q 2463 2594 2264 2762 
Q 2066 2931 1784 2931 
Q 1359 2931 1093 2626 
Q 828 2322 828 1663 
Q 828 994 1084 691 
Q 1341 388 1753 388 
Q 2084 388 2306 591 
Q 2528 794 2588 1216 
z
" transform="scale(0.015625)"/>
     </defs>
     <use xlink:href="#ArialMT-56"/>
     <use xlink:href="#ArialMT-61" transform="translate(59.324219 0)"/>
     <use xlink:href="#ArialMT-63" transform="translate(114.939453 0)"/>
    </g>
   </g>
   <g id="text_5">
    <!-- Tip -->
    <g transform="translate(624.985973 432.912384) scale(0.32 -0.32)">
     <defs>
      <path id="ArialMT-54" d="M 1659 0 
L 1659 4041 
L 150 4041 
L 150 4581 
L 3781 4581 
L 3781 4041 
L 2266 4041 
L 2266 0 
L 1659 0 
z
" transform="scale(0.015625)"/>
      <path id="ArialMT-70" d="M 422 -1272 
L 422 3319 
L 934 3319 
L 934 2888 
Q 1116 3141 1344 3267 
Q 1572 3394 1897 3394 
Q 2322 3394 2647 3175 
Q 2972 2956 3137 2557 
Q 3303 2159 3303 1684 
Q 3303 1175 3120 767 
Q 2938 359 2589 142 
Q 2241 -75 1856 -75 
Q 1575 -75 1351 44 
Q 1128 163 984 344 
L 984 -1272 
L 422 -1272 
z
M 931 1641 
Q 931 1000 1190 694 
Q 1450 388 1819 388 
Q 2194 388 2461 705 
Q 2728 1022 2728 1688 
Q 2728 2322 2467 2637 
Q 2206 2953 1844 2953 
Q 1484 2953 1207 2617 
Q 931 2281 931 1641 
z
" transform="scale(0.015625)"/>
     </defs>
     <use xlink:href="#ArialMT-54"/>
     <use xlink:href="#ArialMT-69" transform="translate(57.333984 0)"/>
     <use xlink:href="#ArialMT-70" transform="translate(79.550781 0)"/>
    </g>
   </g>
   <g id="patch_3">
    <path d="M 44.691265 401.121927 
Q 398.163605 401.121927 749.623484 401.121927 
" style="fill: none; stroke: #000000; stroke-width: 1.8; stroke-linecap: round"/>
    <path d="M 736.823484 394.721927 
L 749.623484 401.121927 
L 736.823484 407.521927 
z
" style="stroke: #000000; stroke-width: 1.8; stroke-linecap: round"/>
   </g>
   <g id="patch_4">
    <path d="M 44.825326 400.111635 
Q 44.825326 204.655543 44.825326 11.211912 
" style="fill: none; stroke: #000000; stroke-width: 1.8; stroke-linecap: round"/>
    <path d="M 38.425326 24.011912 
L 44.825326 11.211912 
L 51.225326 24.011912 
z
" style="stroke: #000000; stroke-width: 1.8; stroke-linecap: round"/>
   </g>
   <g id="FillBetweenPolyCollection_3">
    <defs>
     <path id="m62f19fa380" d="M 42.6925 -238.108236 
L 42.6925 -233.171872 
L 43.58229 -233.404697 
L 44.472079 -233.637004 
L 45.361869 -233.868276 
L 46.251659 -234.097998 
L 47.141449 -234.325658 
L 48.031238 -234.550751 
L 48.921028 -234.772774 
L 49.810818 -234.991234 
L 50.700608 -235.205644 
L 51.590397 -235.415528 
L 52.480187 -235.620418 
L 53.369977 -235.819857 
L 54.259767 -236.013403 
L 55.149556 -236.200624 
L 56.039346 -236.381104 
L 56.929136 -236.55444 
L 57.818926 -236.720248 
L 58.708715 -236.878157 
L 59.598505 -237.027817 
L 60.488295 -237.168894 
L 61.378084 -237.301075 
L 62.267874 -237.424065 
L 63.157664 -237.537591 
L 64.047454 -237.641399 
L 64.937243 -237.735258 
L 65.827033 -237.818961 
L 66.716823 -237.89232 
L 67.606613 -237.955172 
L 68.496402 -238.007378 
L 69.386192 -238.04882 
L 70.275982 -238.079408 
L 71.165772 -238.099072 
L 72.055561 -238.107769 
L 72.945351 -238.10548 
L 73.835141 -238.092209 
L 74.724931 -238.067987 
L 75.61472 -238.032867 
L 76.50451 -237.986927 
L 77.3943 -237.93027 
L 78.284089 -237.863022 
L 79.173879 -237.785332 
L 80.063669 -237.697373 
L 80.953459 -237.599342 
L 81.843248 -237.491455 
L 82.733038 -237.373954 
L 83.622828 -237.2471 
L 84.512618 -237.111176 
L 85.402407 -236.966483 
L 86.292197 -236.813344 
L 87.181987 -236.6521 
L 88.071777 -236.48311 
L 88.961566 -236.306749 
L 89.851356 -236.123411 
L 90.741146 -235.933503 
L 91.630936 -235.737449 
L 92.520725 -235.535683 
L 93.410515 -235.328657 
L 94.300305 -235.11683 
L 95.190094 -234.900673 
L 96.079884 -234.680669 
L 96.969674 -234.457307 
L 97.859464 -234.231083 
L 98.749253 -234.002502 
L 99.639043 -233.772072 
L 100.528833 -233.540306 
L 101.418623 -233.30772 
L 102.308412 -233.074831 
L 103.198202 -232.842159 
L 104.087992 -232.61022 
L 104.977782 -232.379532 
L 105.867571 -232.150607 
L 106.757361 -231.923955 
L 107.647151 -231.700081 
L 108.536941 -231.479483 
L 109.42673 -231.262652 
L 110.31652 -231.05007 
L 111.20631 -230.842211 
L 112.096099 -230.639537 
L 112.985889 -230.4425 
L 113.875679 -230.251538 
L 114.765469 -230.067076 
L 115.655258 -229.889525 
L 116.545048 -229.71928 
L 117.434838 -229.556719 
L 118.324628 -229.402206 
L 119.214417 -229.256082 
L 120.104207 -229.118675 
L 120.993997 -228.990289 
L 121.883787 -228.87121 
L 122.773576 -228.761704 
L 123.663366 -228.662015 
L 124.553156 -228.572363 
L 125.442946 -228.492949 
L 126.332735 -228.423949 
L 127.222525 -228.365517 
L 128.112315 -228.317784 
L 129.002105 -228.280854 
L 129.891894 -228.254811 
L 130.781684 -228.239713 
L 131.671474 -228.235592 
L 132.561263 -228.242459 
L 133.451053 -228.260298 
L 134.340843 -228.289069 
L 135.230633 -228.328708 
L 136.120422 -228.379127 
L 137.010212 -228.440214 
L 137.900002 -228.511832 
L 138.789792 -228.593823 
L 139.679581 -228.686004 
L 140.569371 -228.78817 
L 141.459161 -228.900093 
L 142.348951 -229.021524 
L 143.23874 -229.152192 
L 144.12853 -229.291808 
L 145.01832 -229.44006 
L 145.90811 -229.596619 
L 146.797899 -229.761135 
L 147.687689 -229.933243 
L 148.577479 -230.11256 
L 149.467268 -230.298686 
L 150.357058 -230.491207 
L 151.246848 -230.689695 
L 152.136638 -230.893707 
L 153.026427 -231.102791 
L 153.916217 -231.31648 
L 154.806007 -231.534298 
L 155.695797 -231.755762 
L 156.585586 -231.980377 
L 157.475376 -232.207645 
L 158.365166 -232.437058 
L 159.254956 -232.668108 
L 160.144745 -232.900278 
L 161.034535 -233.133053 
L 161.924325 -233.365915 
L 162.814115 -233.598344 
L 163.703904 -233.829825 
L 164.593694 -234.05984 
L 165.483484 -234.28788 
L 166.373273 -234.513435 
L 167.263063 -234.736004 
L 168.152853 -234.955092 
L 169.042643 -235.170211 
L 169.932432 -235.380882 
L 170.822222 -235.586636 
L 171.712012 -235.787015 
L 172.601802 -235.981573 
L 173.491591 -236.169878 
L 174.381381 -236.351509 
L 175.271171 -236.526063 
L 176.160961 -236.693152 
L 177.05075 -236.852402 
L 177.94054 -237.003461 
L 178.83033 -237.145991 
L 179.72012 -237.279676 
L 180.609909 -237.404217 
L 181.499699 -237.519338 
L 182.389489 -237.624782 
L 183.279278 -237.720315 
L 184.169068 -237.805724 
L 185.058858 -237.880819 
L 185.948648 -237.945433 
L 186.838437 -237.999421 
L 187.728227 -238.042665 
L 188.618017 -238.075067 
L 189.507807 -238.096555 
L 190.397596 -238.107082 
L 191.287386 -238.106624 
L 192.177176 -238.095183 
L 193.066966 -238.072783 
L 193.956755 -238.039474 
L 194.846545 -237.995331 
L 195.736335 -237.940452 
L 196.626125 -237.874959 
L 197.515914 -237.798998 
L 198.405704 -237.712738 
L 199.295494 -237.616371 
L 200.185283 -237.510111 
L 201.075073 -237.394195 
L 201.964863 -237.268881 
L 202.854653 -237.134447 
L 203.744442 -236.991194 
L 204.634232 -236.83944 
L 205.524022 -236.679522 
L 206.413812 -236.511797 
L 207.303601 -236.336638 
L 208.193391 -236.154435 
L 209.083181 -235.965593 
L 209.972971 -235.770533 
L 210.86276 -235.569689 
L 211.75255 -235.363507 
L 212.64234 -235.152448 
L 213.53213 -234.93698 
L 214.421919 -234.717583 
L 215.311709 -234.494746 
L 216.201499 -234.268964 
L 217.091288 -234.040741 
L 217.981078 -233.810583 
L 218.870868 -233.579004 
L 219.760658 -233.346519 
L 220.650447 -233.113645 
L 221.540237 -232.8809 
L 222.430027 -232.648804 
L 223.319817 -232.417871 
L 224.209606 -232.188617 
L 225.099396 -231.961551 
L 225.989186 -231.737179 
L 226.878976 -231.516001 
L 227.768765 -231.298508 
L 228.658555 -231.085185 
L 229.548345 -230.876506 
L 230.438135 -230.672937 
L 231.327924 -230.47493 
L 232.217714 -230.282925 
L 233.107504 -230.097351 
L 233.997293 -229.91862 
L 234.887083 -229.74713 
L 235.776873 -229.583264 
L 236.666663 -229.427384 
L 237.556452 -229.279839 
L 238.446242 -229.140957 
L 239.336032 -229.011048 
L 240.225822 -228.890399 
L 241.115611 -228.77928 
L 242.005401 -228.677938 
L 242.895191 -228.586599 
L 243.784981 -228.505466 
L 244.67477 -228.434719 
L 245.56456 -228.374516 
L 246.45435 -228.324992 
L 247.34414 -228.286255 
L 248.233929 -228.258393 
L 249.123719 -228.241467 
L 250.013509 -228.235516 
L 250.903298 -228.240552 
L 251.793088 -228.256564 
L 252.682878 -228.283517 
L 253.572668 -228.32135 
L 254.462457 -228.36998 
L 255.352247 -228.429297 
L 256.242037 -228.499171 
L 257.131827 -228.579445 
L 258.021616 -228.669942 
L 258.911406 -228.770458 
L 259.801196 -228.880771 
L 260.690986 -229.000636 
L 261.580775 -229.129785 
L 262.470565 -229.267931 
L 263.360355 -229.414766 
L 264.250145 -229.569964 
L 265.139934 -229.733179 
L 266.029724 -229.904047 
L 266.919514 -230.08219 
L 267.809304 -230.267209 
L 268.699093 -230.458694 
L 269.588883 -230.656218 
L 270.478673 -230.859341 
L 271.368462 -231.067611 
L 272.258252 -231.280565 
L 273.148042 -231.497729 
L 274.037832 -231.718619 
L 274.927621 -231.942744 
L 275.817411 -232.169604 
L 276.707201 -232.398695 
L 277.596991 -232.629508 
L 278.48678 -232.861527 
L 279.37657 -233.094237 
L 280.26636 -233.32712 
L 281.15615 -233.559658 
L 282.045939 -233.791332 
L 282.935729 -234.021628 
L 283.825519 -234.250032 
L 284.715309 -234.476036 
L 285.605098 -234.699138 
L 286.494888 -234.91884 
L 287.384678 -235.134654 
L 288.274467 -235.346099 
L 289.164257 -235.552704 
L 290.054047 -235.754011 
L 290.943837 -235.94957 
L 291.833626 -236.138946 
L 292.723416 -236.321718 
L 293.613206 -236.497479 
L 294.502996 -236.665838 
L 295.392785 -236.82642 
L 296.282575 -236.978868 
L 297.172365 -237.122842 
L 298.062155 -237.258022 
L 298.951944 -237.384107 
L 299.841734 -237.500816 
L 300.731524 -237.60789 
L 301.621314 -237.705091 
L 302.511103 -237.792201 
L 303.400893 -237.869027 
L 304.290683 -237.935398 
L 305.180472 -237.991167 
L 306.070262 -238.036208 
L 306.960052 -238.070423 
L 307.849842 -238.093734 
L 308.739631 -238.10609 
L 309.629421 -238.107464 
L 310.519211 -238.097852 
L 311.409001 -238.077275 
L 312.29879 -238.04578 
L 313.18858 -238.003437 
L 314.07837 -237.950339 
L 314.96816 -237.886606 
L 315.857949 -237.812378 
L 316.747739 -237.727822 
L 317.637529 -237.633125 
L 318.527319 -237.528498 
L 319.417108 -237.414174 
L 320.306898 -237.290407 
L 321.196688 -237.157474 
L 322.086477 -237.015669 
L 322.976267 -236.865308 
L 323.866057 -236.706727 
L 324.755847 -236.540278 
L 325.645636 -236.366331 
L 326.535426 -236.185274 
L 327.425216 -235.99751 
L 328.315006 -235.803456 
L 329.204795 -235.603545 
L 330.094585 -235.398222 
L 330.984375 -235.187943 
L 331.874165 -234.973177 
L 332.763954 -234.754401 
L 333.653744 -234.532103 
L 334.543534 -234.306778 
L 335.433324 -234.078926 
L 336.323113 -233.849056 
L 337.212903 -233.617678 
L 338.102693 -233.385307 
L 338.992482 -233.152462 
L 339.882272 -232.91966 
L 340.772062 -232.68742 
L 341.661852 -232.456257 
L 342.551641 -232.226688 
L 343.441431 -231.999222 
L 344.331221 -231.774366 
L 345.221011 -231.552621 
L 346.1108 -231.33448 
L 347.00059 -231.120429 
L 347.89038 -230.910944 
L 348.78017 -230.706491 
L 349.669959 -230.507526 
L 350.559749 -230.314491 
L 351.449539 -230.127816 
L 352.339329 -229.947916 
L 353.229118 -229.775193 
L 354.118908 -229.61003 
L 355.008698 -229.452794 
L 355.898487 -229.303837 
L 356.788277 -229.163489 
L 357.678067 -229.032064 
L 358.567857 -228.909852 
L 359.457646 -228.797127 
L 360.347436 -228.69414 
L 361.237226 -228.601119 
L 362.127016 -228.518271 
L 363.016805 -228.445782 
L 363.906595 -228.383812 
L 364.796385 -228.332499 
L 365.686175 -228.291958 
L 366.575964 -228.262279 
L 367.465754 -228.243527 
L 368.355544 -228.235745 
L 369.245334 -228.23895 
L 370.135123 -228.253134 
L 371.024913 -228.278267 
L 371.914703 -228.314292 
L 372.804492 -228.361129 
L 373.694282 -228.418674 
L 374.584072 -228.486799 
L 375.473862 -228.565351 
L 376.363651 -228.654157 
L 377.253441 -228.753019 
L 378.143231 -228.861716 
L 379.033021 -228.980006 
L 379.92281 -229.107627 
L 380.8126 -229.244294 
L 381.70239 -229.389703 
L 382.59218 -229.543531 
L 383.481969 -229.705435 
L 384.371759 -229.875054 
L 385.261549 -230.052011 
L 386.151339 -230.235913 
L 387.041128 -230.426349 
L 387.930918 -230.622896 
L 388.820708 -230.825117 
L 389.710497 -231.032562 
L 390.600287 -231.244768 
L 391.490077 -231.461263 
L 392.379867 -231.681566 
L 393.269656 -231.905186 
L 394.159446 -232.131625 
L 395.049236 -232.36038 
L 395.939026 -232.590941 
L 396.828815 -232.822795 
L 397.718605 -233.055426 
L 398.608395 -233.288317 
L 399.498185 -233.520948 
L 400.387974 -233.752802 
L 401.277764 -233.983363 
L 402.167554 -234.212118 
L 403.057344 -234.438557 
L 403.947133 -234.662177 
L 404.836923 -234.88248 
L 405.726713 -235.098975 
L 406.616503 -235.311181 
L 407.506292 -235.518626 
L 408.396082 -235.720847 
L 409.285872 -235.917394 
L 410.175661 -236.10783 
L 411.065451 -236.291732 
L 411.955241 -236.468689 
L 412.845031 -236.638308 
L 413.73482 -236.800212 
L 414.62461 -236.95404 
L 415.5144 -237.099449 
L 416.40419 -237.236116 
L 417.293979 -237.363737 
L 418.183769 -237.482027 
L 419.073559 -237.590724 
L 419.963349 -237.689586 
L 420.853138 -237.778392 
L 421.742928 -237.856944 
L 422.632718 -237.925069 
L 423.522508 -237.982614 
L 424.412297 -238.029451 
L 425.302087 -238.065476 
L 426.191877 -238.090609 
L 427.081666 -238.104793 
L 427.971456 -238.107998 
L 428.861246 -238.100216 
L 429.751036 -238.081464 
L 430.640825 -238.051785 
L 431.530615 -238.011244 
L 432.420405 -237.959931 
L 433.310195 -237.897961 
L 434.199984 -237.825472 
L 435.089774 -237.742624 
L 435.979564 -237.649603 
L 436.869354 -237.546616 
L 437.759143 -237.433891 
L 438.648933 -237.311679 
L 439.538723 -237.180254 
L 440.428513 -237.039906 
L 441.318302 -236.890949 
L 442.208092 -236.733713 
L 443.097882 -236.56855 
L 443.987671 -236.395827 
L 444.877461 -236.215927 
L 445.767251 -236.029252 
L 446.657041 -235.836217 
L 447.54683 -235.637252 
L 448.43662 -235.432799 
L 449.32641 -235.223314 
L 450.2162 -235.009263 
L 451.105989 -234.791122 
L 451.995779 -234.569377 
L 452.885569 -234.344521 
L 453.775359 -234.117055 
L 454.665148 -233.887486 
L 455.554938 -233.656323 
L 456.444728 -233.424083 
L 457.334518 -233.191281 
L 458.224307 -232.958436 
L 459.114097 -232.726065 
L 460.003887 -232.494687 
L 460.893676 -232.264817 
L 461.783466 -232.036965 
L 462.673256 -231.81164 
L 463.563046 -231.589342 
L 464.452835 -231.370566 
L 465.342625 -231.1558 
L 466.232415 -230.945521 
L 467.122205 -230.740198 
L 468.011994 -230.540287 
L 468.901784 -230.346233 
L 469.791574 -230.158469 
L 470.681364 -229.977412 
L 471.571153 -229.803465 
L 472.460943 -229.637016 
L 473.350733 -229.478435 
L 474.240523 -229.328074 
L 475.130312 -229.186269 
L 476.020102 -229.053336 
L 476.909892 -228.929569 
L 477.799681 -228.815245 
L 478.689471 -228.710618 
L 479.579261 -228.615921 
L 480.469051 -228.531365 
L 481.35884 -228.457137 
L 482.24863 -228.393404 
L 483.13842 -228.340306 
L 484.02821 -228.297963 
L 484.917999 -228.266468 
L 485.807789 -228.245891 
L 486.697579 -228.236279 
L 487.587369 -228.237653 
L 488.477158 -228.250009 
L 489.366948 -228.27332 
L 490.256738 -228.307535 
L 491.146528 -228.352576 
L 492.036317 -228.408345 
L 492.926107 -228.474716 
L 493.815897 -228.551542 
L 494.705686 -228.638652 
L 495.595476 -228.735853 
L 496.485266 -228.842927 
L 497.375056 -228.959636 
L 498.264845 -229.085721 
L 499.154635 -229.220901 
L 500.044425 -229.364875 
L 500.934215 -229.517323 
L 501.824004 -229.677905 
L 502.713794 -229.846264 
L 503.603584 -230.022025 
L 504.493374 -230.204797 
L 505.383163 -230.394173 
L 506.272953 -230.589732 
L 507.162743 -230.791039 
L 508.052533 -230.997644 
L 508.942322 -231.209089 
L 509.832112 -231.424903 
L 510.721902 -231.644605 
L 511.611691 -231.867707 
L 512.501481 -232.093711 
L 513.391271 -232.322115 
L 514.281061 -232.552411 
L 515.17085 -232.784085 
L 516.06064 -233.016623 
L 516.95043 -233.249506 
L 517.84022 -233.482216 
L 518.730009 -233.714235 
L 519.619799 -233.945048 
L 520.509589 -234.174139 
L 521.399379 -234.400999 
L 522.289168 -234.625124 
L 523.178958 -234.846014 
L 524.068748 -235.063178 
L 524.958538 -235.276132 
L 525.848327 -235.484402 
L 526.738117 -235.687525 
L 527.627907 -235.885049 
L 528.517696 -236.076534 
L 529.407486 -236.261553 
L 530.297276 -236.439696 
L 531.187066 -236.610564 
L 532.076855 -236.773779 
L 532.966645 -236.928977 
L 533.856435 -237.075812 
L 534.746225 -237.213958 
L 535.636014 -237.343107 
L 536.525804 -237.462972 
L 537.415594 -237.573285 
L 538.305384 -237.673801 
L 539.195173 -237.764298 
L 540.084963 -237.844572 
L 540.974753 -237.914446 
L 541.864543 -237.973763 
L 542.754332 -238.022393 
L 543.644122 -238.060226 
L 544.533912 -238.087179 
L 545.423702 -238.103191 
L 546.313491 -238.108227 
L 547.203281 -238.102276 
L 548.093071 -238.08535 
L 548.98286 -238.057488 
L 549.87265 -238.018751 
L 550.76244 -237.969227 
L 551.65223 -237.909024 
L 552.542019 -237.838277 
L 553.431809 -237.757144 
L 554.321599 -237.665805 
L 555.211389 -237.564463 
L 556.101178 -237.453344 
L 556.990968 -237.332695 
L 557.880758 -237.202786 
L 558.770548 -237.063904 
L 559.660337 -236.916359 
L 560.550127 -236.760479 
L 561.439917 -236.596613 
L 562.329707 -236.425123 
L 563.219496 -236.246392 
L 564.109286 -236.060818 
L 564.999076 -235.868813 
L 565.888865 -235.670806 
L 566.778655 -235.467237 
L 567.668445 -235.258558 
L 568.558235 -235.045235 
L 569.448024 -234.827742 
L 570.337814 -234.606564 
L 571.227604 -234.382192 
L 572.117394 -234.155126 
L 573.007183 -233.925872 
L 573.896973 -233.694939 
L 574.786763 -233.462843 
L 575.676553 -233.230098 
L 576.566342 -232.997224 
L 577.456132 -232.764739 
L 578.345922 -232.53316 
L 579.235712 -232.303002 
L 580.125501 -232.074779 
L 581.015291 -231.848997 
L 581.905081 -231.62616 
L 582.79487 -231.406763 
L 583.68466 -231.191295 
L 584.57445 -230.980236 
L 585.46424 -230.774054 
L 586.354029 -230.57321 
L 587.243819 -230.37815 
L 588.133609 -230.189308 
L 589.023399 -230.007105 
L 589.913188 -229.831946 
L 590.802978 -229.664221 
L 591.692768 -229.504303 
L 592.582558 -229.352549 
L 593.472347 -229.209296 
L 594.362137 -229.074862 
L 595.251927 -228.949548 
L 596.141717 -228.833632 
L 597.031506 -228.727372 
L 597.921296 -228.631005 
L 598.811086 -228.544745 
L 599.700875 -228.468784 
L 600.590665 -228.403291 
L 601.480455 -228.348412 
L 602.370245 -228.304269 
L 603.260034 -228.27096 
L 604.149824 -228.24856 
L 605.039614 -228.237119 
L 605.929404 -228.236661 
L 606.819193 -228.247188 
L 607.708983 -228.268676 
L 608.598773 -228.301078 
L 609.488563 -228.344322 
L 610.378352 -228.39831 
L 611.268142 -228.462924 
L 612.157932 -228.538019 
L 613.047722 -228.623428 
L 613.937511 -228.718961 
L 614.827301 -228.824405 
L 615.717091 -228.939526 
L 616.60688 -229.064067 
L 617.49667 -229.197752 
L 618.38646 -229.340282 
L 619.27625 -229.491341 
L 620.166039 -229.650591 
L 621.055829 -229.81768 
L 621.945619 -229.992234 
L 622.835409 -230.173865 
L 623.725198 -230.36217 
L 624.614988 -230.556728 
L 625.504778 -230.757107 
L 626.394568 -230.962861 
L 627.284357 -231.173532 
L 628.174147 -231.388651 
L 629.063937 -231.607739 
L 629.953727 -231.830308 
L 630.843516 -232.055863 
L 631.733306 -232.283903 
L 632.623096 -232.513918 
L 633.512885 -232.745399 
L 634.402675 -232.977828 
L 635.292465 -233.21069 
L 636.182255 -233.443465 
L 637.072044 -233.675635 
L 637.961834 -233.906685 
L 638.851624 -234.136098 
L 639.741414 -234.363366 
L 640.631203 -234.587981 
L 641.520993 -234.809445 
L 642.410783 -235.027263 
L 643.300573 -235.240952 
L 644.190362 -235.450036 
L 645.080152 -235.654048 
L 645.969942 -235.852536 
L 646.859732 -236.045057 
L 647.749521 -236.231183 
L 648.639311 -236.4105 
L 649.529101 -236.582608 
L 650.41889 -236.747124 
L 651.30868 -236.903683 
L 652.19847 -237.051935 
L 653.08826 -237.191551 
L 653.978049 -237.322219 
L 654.867839 -237.44365 
L 655.757629 -237.555573 
L 656.647419 -237.657739 
L 657.537208 -237.74992 
L 658.426998 -237.831911 
L 659.316788 -237.903529 
L 660.206578 -237.964616 
L 661.096367 -238.015035 
L 661.986157 -238.054674 
L 662.875947 -238.083445 
L 663.765737 -238.101284 
L 664.655526 -238.108151 
L 665.545316 -238.10403 
L 666.435106 -238.088932 
L 667.324895 -238.062889 
L 668.214685 -238.025959 
L 669.104475 -237.978226 
L 669.994265 -237.919794 
L 670.884054 -237.850794 
L 671.773844 -237.77138 
L 672.663634 -237.681728 
L 673.553424 -237.582039 
L 674.443213 -237.472533 
L 675.333003 -237.353454 
L 676.222793 -237.225068 
L 677.112583 -237.087661 
L 678.002372 -236.941537 
L 678.892162 -236.787024 
L 679.781952 -236.624463 
L 680.671742 -236.454218 
L 681.561531 -236.276667 
L 682.451321 -236.092205 
L 683.341111 -235.901243 
L 684.230901 -235.704206 
L 685.12069 -235.501532 
L 686.01048 -235.293673 
L 686.90027 -235.081091 
L 687.790059 -234.86426 
L 688.679849 -234.643662 
L 689.569639 -234.419788 
L 690.459429 -234.193136 
L 691.349218 -233.964211 
L 692.239008 -233.733523 
L 693.128798 -233.501584 
L 694.018588 -233.268912 
L 694.908377 -233.036023 
L 695.798167 -232.803437 
L 696.687957 -232.571671 
L 697.577747 -232.341241 
L 698.467536 -232.11266 
L 699.357326 -231.886436 
L 700.247116 -231.663074 
L 701.136906 -231.44307 
L 702.026695 -231.226913 
L 702.916485 -231.015086 
L 703.806275 -230.80806 
L 704.696064 -230.606294 
L 705.585854 -230.41024 
L 706.475644 -230.220332 
L 707.365434 -230.036994 
L 708.255223 -229.860633 
L 709.145013 -229.691643 
L 710.034803 -229.530399 
L 710.924593 -229.37726 
L 711.814382 -229.232567 
L 712.704172 -229.096643 
L 713.593962 -228.969789 
L 714.483752 -228.852288 
L 715.373541 -228.744401 
L 716.263331 -228.64637 
L 717.153121 -228.558411 
L 718.042911 -228.480721 
L 718.9327 -228.413473 
L 719.82249 -228.356816 
L 720.71228 -228.310876 
L 721.602069 -228.275756 
L 722.491859 -228.251534 
L 723.381649 -228.238263 
L 724.271439 -228.235974 
L 725.161228 -228.244671 
L 726.051018 -228.264335 
L 726.940808 -228.294923 
L 727.830598 -228.336365 
L 728.720387 -228.388571 
L 729.610177 -228.451423 
L 730.499967 -228.524782 
L 731.389757 -228.608485 
L 732.279546 -228.702344 
L 733.169336 -228.806152 
L 734.059126 -228.919678 
L 734.948916 -229.042668 
L 735.838705 -229.174849 
L 736.728495 -229.315926 
L 737.618285 -229.465586 
L 738.508074 -229.623495 
L 739.397864 -229.789303 
L 740.287654 -229.962639 
L 741.177444 -230.143119 
L 742.067233 -230.33034 
L 742.957023 -230.523886 
L 743.846813 -230.723325 
L 744.736603 -230.928215 
L 745.626392 -231.138099 
L 746.516182 -231.352509 
L 747.405972 -231.570969 
L 748.295762 -231.792992 
L 749.185551 -232.018085 
L 750.075341 -232.245745 
L 750.965131 -232.475467 
L 751.854921 -232.706739 
L 752.74471 -232.939046 
L 753.6345 -233.171872 
L 753.6345 -238.108236 
L 753.6345 -238.108236 
L 752.74471 -237.875411 
L 751.854921 -237.643104 
L 750.965131 -237.411832 
L 750.075341 -237.18211 
L 749.185551 -236.95445 
L 748.295762 -236.729357 
L 747.405972 -236.507334 
L 746.516182 -236.288874 
L 745.626392 -236.074464 
L 744.736603 -235.86458 
L 743.846813 -235.65969 
L 742.957023 -235.460251 
L 742.067233 -235.266705 
L 741.177444 -235.079484 
L 740.287654 -234.899004 
L 739.397864 -234.725668 
L 738.508074 -234.55986 
L 737.618285 -234.401951 
L 736.728495 -234.252291 
L 735.838705 -234.111214 
L 734.948916 -233.979033 
L 734.059126 -233.856043 
L 733.169336 -233.742517 
L 732.279546 -233.638709 
L 731.389757 -233.54485 
L 730.499967 -233.461147 
L 729.610177 -233.387788 
L 728.720387 -233.324936 
L 727.830598 -233.27273 
L 726.940808 -233.231288 
L 726.051018 -233.2007 
L 725.161228 -233.181036 
L 724.271439 -233.172339 
L 723.381649 -233.174628 
L 722.491859 -233.187899 
L 721.602069 -233.212121 
L 720.71228 -233.247241 
L 719.82249 -233.293181 
L 718.9327 -233.349838 
L 718.042911 -233.417086 
L 717.153121 -233.494776 
L 716.263331 -233.582735 
L 715.373541 -233.680766 
L 714.483752 -233.788653 
L 713.593962 -233.906154 
L 712.704172 -234.033008 
L 711.814382 -234.168932 
L 710.924593 -234.313625 
L 710.034803 -234.466764 
L 709.145013 -234.628008 
L 708.255223 -234.796998 
L 707.365434 -234.973359 
L 706.475644 -235.156697 
L 705.585854 -235.346605 
L 704.696064 -235.542659 
L 703.806275 -235.744425 
L 702.916485 -235.951451 
L 702.026695 -236.163278 
L 701.136906 -236.379435 
L 700.247116 -236.599439 
L 699.357326 -236.822801 
L 698.467536 -237.049025 
L 697.577747 -237.277606 
L 696.687957 -237.508036 
L 695.798167 -237.739802 
L 694.908377 -237.972388 
L 694.018588 -238.205277 
L 693.128798 -238.437949 
L 692.239008 -238.669888 
L 691.349218 -238.900576 
L 690.459429 -239.129501 
L 689.569639 -239.356153 
L 688.679849 -239.580027 
L 687.790059 -239.800625 
L 686.90027 -240.017456 
L 686.01048 -240.230038 
L 685.12069 -240.437897 
L 684.230901 -240.640571 
L 683.341111 -240.837608 
L 682.451321 -241.02857 
L 681.561531 -241.213032 
L 680.671742 -241.390583 
L 679.781952 -241.560828 
L 678.892162 -241.723389 
L 678.002372 -241.877902 
L 677.112583 -242.024026 
L 676.222793 -242.161433 
L 675.333003 -242.289819 
L 674.443213 -242.408898 
L 673.553424 -242.518404 
L 672.663634 -242.618093 
L 671.773844 -242.707745 
L 670.884054 -242.787159 
L 669.994265 -242.856159 
L 669.104475 -242.914591 
L 668.214685 -242.962324 
L 667.324895 -242.999254 
L 666.435106 -243.025297 
L 665.545316 -243.040395 
L 664.655526 -243.044516 
L 663.765737 -243.037649 
L 662.875947 -243.01981 
L 661.986157 -242.991039 
L 661.096367 -242.9514 
L 660.206578 -242.900981 
L 659.316788 -242.839894 
L 658.426998 -242.768276 
L 657.537208 -242.686285 
L 656.647419 -242.594104 
L 655.757629 -242.491938 
L 654.867839 -242.380015 
L 653.978049 -242.258584 
L 653.08826 -242.127916 
L 652.19847 -241.9883 
L 651.30868 -241.840048 
L 650.41889 -241.683489 
L 649.529101 -241.518973 
L 648.639311 -241.346865 
L 647.749521 -241.167548 
L 646.859732 -240.981422 
L 645.969942 -240.788901 
L 645.080152 -240.590413 
L 644.190362 -240.386401 
L 643.300573 -240.177317 
L 642.410783 -239.963628 
L 641.520993 -239.74581 
L 640.631203 -239.524346 
L 639.741414 -239.299731 
L 638.851624 -239.072463 
L 637.961834 -238.84305 
L 637.072044 -238.612 
L 636.182255 -238.37983 
L 635.292465 -238.147055 
L 634.402675 -237.914193 
L 633.512885 -237.681764 
L 632.623096 -237.450283 
L 631.733306 -237.220268 
L 630.843516 -236.992228 
L 629.953727 -236.766673 
L 629.063937 -236.544104 
L 628.174147 -236.325016 
L 627.284357 -236.109897 
L 626.394568 -235.899226 
L 625.504778 -235.693472 
L 624.614988 -235.493093 
L 623.725198 -235.298535 
L 622.835409 -235.11023 
L 621.945619 -234.928599 
L 621.055829 -234.754045 
L 620.166039 -234.586956 
L 619.27625 -234.427706 
L 618.38646 -234.276647 
L 617.49667 -234.134117 
L 616.60688 -234.000432 
L 615.717091 -233.875891 
L 614.827301 -233.76077 
L 613.937511 -233.655326 
L 613.047722 -233.559793 
L 612.157932 -233.474384 
L 611.268142 -233.399289 
L 610.378352 -233.334675 
L 609.488563 -233.280687 
L 608.598773 -233.237443 
L 607.708983 -233.205041 
L 606.819193 -233.183553 
L 605.929404 -233.173026 
L 605.039614 -233.173484 
L 604.149824 -233.184925 
L 603.260034 -233.207325 
L 602.370245 -233.240634 
L 601.480455 -233.284777 
L 600.590665 -233.339656 
L 599.700875 -233.405149 
L 598.811086 -233.48111 
L 597.921296 -233.56737 
L 597.031506 -233.663737 
L 596.141717 -233.769997 
L 595.251927 -233.885913 
L 594.362137 -234.011227 
L 593.472347 -234.145661 
L 592.582558 -234.288914 
L 591.692768 -234.440668 
L 590.802978 -234.600586 
L 589.913188 -234.768311 
L 589.023399 -234.94347 
L 588.133609 -235.125673 
L 587.243819 -235.314515 
L 586.354029 -235.509575 
L 585.46424 -235.710419 
L 584.57445 -235.916601 
L 583.68466 -236.12766 
L 582.79487 -236.343128 
L 581.905081 -236.562525 
L 581.015291 -236.785362 
L 580.125501 -237.011144 
L 579.235712 -237.239367 
L 578.345922 -237.469525 
L 577.456132 -237.701104 
L 576.566342 -237.933589 
L 575.676553 -238.166463 
L 574.786763 -238.399208 
L 573.896973 -238.631304 
L 573.007183 -238.862237 
L 572.117394 -239.091491 
L 571.227604 -239.318557 
L 570.337814 -239.542929 
L 569.448024 -239.764107 
L 568.558235 -239.9816 
L 567.668445 -240.194923 
L 566.778655 -240.403602 
L 565.888865 -240.607171 
L 564.999076 -240.805178 
L 564.109286 -240.997183 
L 563.219496 -241.182757 
L 562.329707 -241.361488 
L 561.439917 -241.532978 
L 560.550127 -241.696844 
L 559.660337 -241.852724 
L 558.770548 -242.000269 
L 557.880758 -242.139151 
L 556.990968 -242.26906 
L 556.101178 -242.389709 
L 555.211389 -242.500828 
L 554.321599 -242.60217 
L 553.431809 -242.693509 
L 552.542019 -242.774642 
L 551.65223 -242.845389 
L 550.76244 -242.905592 
L 549.87265 -242.955116 
L 548.98286 -242.993853 
L 548.093071 -243.021715 
L 547.203281 -243.038641 
L 546.313491 -243.044592 
L 545.423702 -243.039556 
L 544.533912 -243.023544 
L 543.644122 -242.996591 
L 542.754332 -242.958758 
L 541.864543 -242.910128 
L 540.974753 -242.850811 
L 540.084963 -242.780937 
L 539.195173 -242.700663 
L 538.305384 -242.610166 
L 537.415594 -242.50965 
L 536.525804 -242.399337 
L 535.636014 -242.279472 
L 534.746225 -242.150323 
L 533.856435 -242.012177 
L 532.966645 -241.865342 
L 532.076855 -241.710144 
L 531.187066 -241.546929 
L 530.297276 -241.376061 
L 529.407486 -241.197918 
L 528.517696 -241.012899 
L 527.627907 -240.821414 
L 526.738117 -240.62389 
L 525.848327 -240.420767 
L 524.958538 -240.212497 
L 524.068748 -239.999543 
L 523.178958 -239.782379 
L 522.289168 -239.561489 
L 521.399379 -239.337364 
L 520.509589 -239.110504 
L 519.619799 -238.881413 
L 518.730009 -238.6506 
L 517.84022 -238.418581 
L 516.95043 -238.185871 
L 516.06064 -237.952988 
L 515.17085 -237.72045 
L 514.281061 -237.488776 
L 513.391271 -237.25848 
L 512.501481 -237.030076 
L 511.611691 -236.804072 
L 510.721902 -236.58097 
L 509.832112 -236.361268 
L 508.942322 -236.145454 
L 508.052533 -235.934009 
L 507.162743 -235.727404 
L 506.272953 -235.526097 
L 505.383163 -235.330538 
L 504.493374 -235.141162 
L 503.603584 -234.95839 
L 502.713794 -234.782629 
L 501.824004 -234.61427 
L 500.934215 -234.453688 
L 500.044425 -234.30124 
L 499.154635 -234.157266 
L 498.264845 -234.022086 
L 497.375056 -233.896001 
L 496.485266 -233.779292 
L 495.595476 -233.672218 
L 494.705686 -233.575017 
L 493.815897 -233.487907 
L 492.926107 -233.411081 
L 492.036317 -233.34471 
L 491.146528 -233.288941 
L 490.256738 -233.2439 
L 489.366948 -233.209685 
L 488.477158 -233.186374 
L 487.587369 -233.174018 
L 486.697579 -233.172644 
L 485.807789 -233.182256 
L 484.917999 -233.202833 
L 484.02821 -233.234328 
L 483.13842 -233.276671 
L 482.24863 -233.329769 
L 481.35884 -233.393502 
L 480.469051 -233.46773 
L 479.579261 -233.552286 
L 478.689471 -233.646983 
L 477.799681 -233.75161 
L 476.909892 -233.865934 
L 476.020102 -233.989701 
L 475.130312 -234.122634 
L 474.240523 -234.264439 
L 473.350733 -234.4148 
L 472.460943 -234.573381 
L 471.571153 -234.73983 
L 470.681364 -234.913777 
L 469.791574 -235.094834 
L 468.901784 -235.282598 
L 468.011994 -235.476652 
L 467.122205 -235.676563 
L 466.232415 -235.881886 
L 465.342625 -236.092165 
L 464.452835 -236.306931 
L 463.563046 -236.525707 
L 462.673256 -236.748005 
L 461.783466 -236.97333 
L 460.893676 -237.201182 
L 460.003887 -237.431052 
L 459.114097 -237.66243 
L 458.224307 -237.894801 
L 457.334518 -238.127646 
L 456.444728 -238.360448 
L 455.554938 -238.592688 
L 454.665148 -238.823851 
L 453.775359 -239.05342 
L 452.885569 -239.280886 
L 451.995779 -239.505742 
L 451.105989 -239.727487 
L 450.2162 -239.945628 
L 449.32641 -240.159679 
L 448.43662 -240.369164 
L 447.54683 -240.573617 
L 446.657041 -240.772582 
L 445.767251 -240.965617 
L 444.877461 -241.152292 
L 443.987671 -241.332192 
L 443.097882 -241.504915 
L 442.208092 -241.670078 
L 441.318302 -241.827314 
L 440.428513 -241.976271 
L 439.538723 -242.116619 
L 438.648933 -242.248044 
L 437.759143 -242.370256 
L 436.869354 -242.482981 
L 435.979564 -242.585968 
L 435.089774 -242.678989 
L 434.199984 -242.761837 
L 433.310195 -242.834326 
L 432.420405 -242.896296 
L 431.530615 -242.947609 
L 430.640825 -242.98815 
L 429.751036 -243.017829 
L 428.861246 -243.036581 
L 427.971456 -243.044363 
L 427.081666 -243.041158 
L 426.191877 -243.026974 
L 425.302087 -243.001841 
L 424.412297 -242.965816 
L 423.522508 -242.918979 
L 422.632718 -242.861434 
L 421.742928 -242.793309 
L 420.853138 -242.714757 
L 419.963349 -242.625951 
L 419.073559 -242.527089 
L 418.183769 -242.418392 
L 417.293979 -242.300102 
L 416.40419 -242.172481 
L 415.5144 -242.035814 
L 414.62461 -241.890405 
L 413.73482 -241.736577 
L 412.845031 -241.574673 
L 411.955241 -241.405054 
L 411.065451 -241.228097 
L 410.175661 -241.044195 
L 409.285872 -240.853759 
L 408.396082 -240.657212 
L 407.506292 -240.454991 
L 406.616503 -240.247546 
L 405.726713 -240.03534 
L 404.836923 -239.818845 
L 403.947133 -239.598542 
L 403.057344 -239.374922 
L 402.167554 -239.148483 
L 401.277764 -238.919728 
L 400.387974 -238.689167 
L 399.498185 -238.457313 
L 398.608395 -238.224682 
L 397.718605 -237.991791 
L 396.828815 -237.75916 
L 395.939026 -237.527306 
L 395.049236 -237.296745 
L 394.159446 -237.06799 
L 393.269656 -236.841551 
L 392.379867 -236.617931 
L 391.490077 -236.397628 
L 390.600287 -236.181133 
L 389.710497 -235.968927 
L 388.820708 -235.761482 
L 387.930918 -235.559261 
L 387.041128 -235.362714 
L 386.151339 -235.172278 
L 385.261549 -234.988376 
L 384.371759 -234.811419 
L 383.481969 -234.6418 
L 382.59218 -234.479896 
L 381.70239 -234.326068 
L 380.8126 -234.180659 
L 379.92281 -234.043992 
L 379.033021 -233.916371 
L 378.143231 -233.798081 
L 377.253441 -233.689384 
L 376.363651 -233.590522 
L 375.473862 -233.501716 
L 374.584072 -233.423164 
L 373.694282 -233.355039 
L 372.804492 -233.297494 
L 371.914703 -233.250657 
L 371.024913 -233.214632 
L 370.135123 -233.189499 
L 369.245334 -233.175315 
L 368.355544 -233.17211 
L 367.465754 -233.179892 
L 366.575964 -233.198644 
L 365.686175 -233.228323 
L 364.796385 -233.268864 
L 363.906595 -233.320177 
L 363.016805 -233.382147 
L 362.127016 -233.454636 
L 361.237226 -233.537484 
L 360.347436 -233.630505 
L 359.457646 -233.733492 
L 358.567857 -233.846217 
L 357.678067 -233.968429 
L 356.788277 -234.099854 
L 355.898487 -234.240202 
L 355.008698 -234.389159 
L 354.118908 -234.546395 
L 353.229118 -234.711558 
L 352.339329 -234.884281 
L 351.449539 -235.064181 
L 350.559749 -235.250856 
L 349.669959 -235.443891 
L 348.78017 -235.642856 
L 347.89038 -235.847309 
L 347.00059 -236.056794 
L 346.1108 -236.270845 
L 345.221011 -236.488986 
L 344.331221 -236.710731 
L 343.441431 -236.935587 
L 342.551641 -237.163053 
L 341.661852 -237.392622 
L 340.772062 -237.623785 
L 339.882272 -237.856025 
L 338.992482 -238.088827 
L 338.102693 -238.321672 
L 337.212903 -238.554043 
L 336.323113 -238.785421 
L 335.433324 -239.015291 
L 334.543534 -239.243143 
L 333.653744 -239.468468 
L 332.763954 -239.690766 
L 331.874165 -239.909542 
L 330.984375 -240.124308 
L 330.094585 -240.334587 
L 329.204795 -240.53991 
L 328.315006 -240.739821 
L 327.425216 -240.933875 
L 326.535426 -241.121639 
L 325.645636 -241.302696 
L 324.755847 -241.476643 
L 323.866057 -241.643092 
L 322.976267 -241.801673 
L 322.086477 -241.952034 
L 321.196688 -242.093839 
L 320.306898 -242.226772 
L 319.417108 -242.350539 
L 318.527319 -242.464863 
L 317.637529 -242.56949 
L 316.747739 -242.664187 
L 315.857949 -242.748743 
L 314.96816 -242.822971 
L 314.07837 -242.886704 
L 313.18858 -242.939802 
L 312.29879 -242.982145 
L 311.409001 -243.01364 
L 310.519211 -243.034217 
L 309.629421 -243.043829 
L 308.739631 -243.042455 
L 307.849842 -243.030099 
L 306.960052 -243.006788 
L 306.070262 -242.972573 
L 305.180472 -242.927532 
L 304.290683 -242.871763 
L 303.400893 -242.805392 
L 302.511103 -242.728566 
L 301.621314 -242.641456 
L 300.731524 -242.544255 
L 299.841734 -242.437181 
L 298.951944 -242.320472 
L 298.062155 -242.194387 
L 297.172365 -242.059207 
L 296.282575 -241.915233 
L 295.392785 -241.762785 
L 294.502996 -241.602203 
L 293.613206 -241.433844 
L 292.723416 -241.258083 
L 291.833626 -241.075311 
L 290.943837 -240.885935 
L 290.054047 -240.690376 
L 289.164257 -240.489069 
L 288.274467 -240.282464 
L 287.384678 -240.071019 
L 286.494888 -239.855205 
L 285.605098 -239.635503 
L 284.715309 -239.412401 
L 283.825519 -239.186397 
L 282.935729 -238.957993 
L 282.045939 -238.727697 
L 281.15615 -238.496023 
L 280.26636 -238.263485 
L 279.37657 -238.030602 
L 278.48678 -237.797892 
L 277.596991 -237.565873 
L 276.707201 -237.33506 
L 275.817411 -237.105969 
L 274.927621 -236.879109 
L 274.037832 -236.654984 
L 273.148042 -236.434094 
L 272.258252 -236.21693 
L 271.368462 -236.003976 
L 270.478673 -235.795706 
L 269.588883 -235.592583 
L 268.699093 -235.395059 
L 267.809304 -235.203574 
L 266.919514 -235.018555 
L 266.029724 -234.840412 
L 265.139934 -234.669544 
L 264.250145 -234.506329 
L 263.360355 -234.351131 
L 262.470565 -234.204296 
L 261.580775 -234.06615 
L 260.690986 -233.937001 
L 259.801196 -233.817136 
L 258.911406 -233.706823 
L 258.021616 -233.606307 
L 257.131827 -233.51581 
L 256.242037 -233.435536 
L 255.352247 -233.365662 
L 254.462457 -233.306345 
L 253.572668 -233.257715 
L 252.682878 -233.219882 
L 251.793088 -233.192929 
L 250.903298 -233.176917 
L 250.013509 -233.171881 
L 249.123719 -233.177832 
L 248.233929 -233.194758 
L 247.34414 -233.22262 
L 246.45435 -233.261357 
L 245.56456 -233.310881 
L 244.67477 -233.371084 
L 243.784981 -233.441831 
L 242.895191 -233.522964 
L 242.005401 -233.614303 
L 241.115611 -233.715645 
L 240.225822 -233.826764 
L 239.336032 -233.947413 
L 238.446242 -234.077322 
L 237.556452 -234.216204 
L 236.666663 -234.363749 
L 235.776873 -234.519629 
L 234.887083 -234.683495 
L 233.997293 -234.854985 
L 233.107504 -235.033716 
L 232.217714 -235.21929 
L 231.327924 -235.411295 
L 230.438135 -235.609302 
L 229.548345 -235.812871 
L 228.658555 -236.02155 
L 227.768765 -236.234873 
L 226.878976 -236.452366 
L 225.989186 -236.673544 
L 225.099396 -236.897916 
L 224.209606 -237.124982 
L 223.319817 -237.354236 
L 222.430027 -237.585169 
L 221.540237 -237.817265 
L 220.650447 -238.05001 
L 219.760658 -238.282884 
L 218.870868 -238.515369 
L 217.981078 -238.746948 
L 217.091288 -238.977106 
L 216.201499 -239.205329 
L 215.311709 -239.431111 
L 214.421919 -239.653948 
L 213.53213 -239.873345 
L 212.64234 -240.088813 
L 211.75255 -240.299872 
L 210.86276 -240.506054 
L 209.972971 -240.706898 
L 209.083181 -240.901958 
L 208.193391 -241.0908 
L 207.303601 -241.273003 
L 206.413812 -241.448162 
L 205.524022 -241.615887 
L 204.634232 -241.775805 
L 203.744442 -241.927559 
L 202.854653 -242.070812 
L 201.964863 -242.205246 
L 201.075073 -242.33056 
L 200.185283 -242.446476 
L 199.295494 -242.552736 
L 198.405704 -242.649103 
L 197.515914 -242.735363 
L 196.626125 -242.811324 
L 195.736335 -242.876817 
L 194.846545 -242.931696 
L 193.956755 -242.975839 
L 193.066966 -243.009148 
L 192.177176 -243.031548 
L 191.287386 -243.042989 
L 190.397596 -243.043447 
L 189.507807 -243.03292 
L 188.618017 -243.011432 
L 187.728227 -242.97903 
L 186.838437 -242.935786 
L 185.948648 -242.881798 
L 185.058858 -242.817184 
L 184.169068 -242.742089 
L 183.279278 -242.65668 
L 182.389489 -242.561147 
L 181.499699 -242.455703 
L 180.609909 -242.340582 
L 179.72012 -242.216041 
L 178.83033 -242.082356 
L 177.94054 -241.939826 
L 177.05075 -241.788767 
L 176.160961 -241.629517 
L 175.271171 -241.462428 
L 174.381381 -241.287874 
L 173.491591 -241.106243 
L 172.601802 -240.917938 
L 171.712012 -240.72338 
L 170.822222 -240.523001 
L 169.932432 -240.317247 
L 169.042643 -240.106576 
L 168.152853 -239.891457 
L 167.263063 -239.672369 
L 166.373273 -239.4498 
L 165.483484 -239.224245 
L 164.593694 -238.996205 
L 163.703904 -238.76619 
L 162.814115 -238.534709 
L 161.924325 -238.30228 
L 161.034535 -238.069418 
L 160.144745 -237.836643 
L 159.254956 -237.604473 
L 158.365166 -237.373423 
L 157.475376 -237.14401 
L 156.585586 -236.916742 
L 155.695797 -236.692127 
L 154.806007 -236.470663 
L 153.916217 -236.252845 
L 153.026427 -236.039156 
L 152.136638 -235.830072 
L 151.246848 -235.62606 
L 150.357058 -235.427572 
L 149.467268 -235.235051 
L 148.577479 -235.048925 
L 147.687689 -234.869608 
L 146.797899 -234.6975 
L 145.90811 -234.532984 
L 145.01832 -234.376425 
L 144.12853 -234.228173 
L 143.23874 -234.088557 
L 142.348951 -233.957889 
L 141.459161 -233.836458 
L 140.569371 -233.724535 
L 139.679581 -233.622369 
L 138.789792 -233.530188 
L 137.900002 -233.448197 
L 137.010212 -233.376579 
L 136.120422 -233.315492 
L 135.230633 -233.265073 
L 134.340843 -233.225434 
L 133.451053 -233.196663 
L 132.561263 -233.178824 
L 131.671474 -233.171957 
L 130.781684 -233.176078 
L 129.891894 -233.191176 
L 129.002105 -233.217219 
L 128.112315 -233.254149 
L 127.222525 -233.301882 
L 126.332735 -233.360314 
L 125.442946 -233.429314 
L 124.553156 -233.508728 
L 123.663366 -233.59838 
L 122.773576 -233.698069 
L 121.883787 -233.807575 
L 120.993997 -233.926654 
L 120.104207 -234.05504 
L 119.214417 -234.192447 
L 118.324628 -234.338571 
L 117.434838 -234.493084 
L 116.545048 -234.655645 
L 115.655258 -234.82589 
L 114.765469 -235.003441 
L 113.875679 -235.187903 
L 112.985889 -235.378865 
L 112.096099 -235.575902 
L 111.20631 -235.778576 
L 110.31652 -235.986435 
L 109.42673 -236.199017 
L 108.536941 -236.415848 
L 107.647151 -236.636446 
L 106.757361 -236.86032 
L 105.867571 -237.086972 
L 104.977782 -237.315897 
L 104.087992 -237.546585 
L 103.198202 -237.778524 
L 102.308412 -238.011196 
L 101.418623 -238.244085 
L 100.528833 -238.476671 
L 99.639043 -238.708437 
L 98.749253 -238.938867 
L 97.859464 -239.167448 
L 96.969674 -239.393672 
L 96.079884 -239.617034 
L 95.190094 -239.837038 
L 94.300305 -240.053195 
L 93.410515 -240.265022 
L 92.520725 -240.472048 
L 91.630936 -240.673814 
L 90.741146 -240.869868 
L 89.851356 -241.059776 
L 88.961566 -241.243114 
L 88.071777 -241.419475 
L 87.181987 -241.588465 
L 86.292197 -241.749709 
L 85.402407 -241.902848 
L 84.512618 -242.047541 
L 83.622828 -242.183465 
L 82.733038 -242.310319 
L 81.843248 -242.42782 
L 80.953459 -242.535707 
L 80.063669 -242.633738 
L 79.173879 -242.721697 
L 78.284089 -242.799387 
L 77.3943 -242.866635 
L 76.50451 -242.923292 
L 75.61472 -242.969232 
L 74.724931 -243.004352 
L 73.835141 -243.028574 
L 72.945351 -243.041845 
L 72.055561 -243.044134 
L 71.165772 -243.035437 
L 70.275982 -243.015773 
L 69.386192 -242.985185 
L 68.496402 -242.943743 
L 67.606613 -242.891537 
L 66.716823 -242.828685 
L 65.827033 -242.755326 
L 64.937243 -242.671623 
L 64.047454 -242.577764 
L 63.157664 -242.473956 
L 62.267874 -242.36043 
L 61.378084 -242.23744 
L 60.488295 -242.105259 
L 59.598505 -241.964182 
L 58.708715 -241.814522 
L 57.818926 -241.656613 
L 56.929136 -241.490805 
L 56.039346 -241.317469 
L 55.149556 -241.136989 
L 54.259767 -240.949768 
L 53.369977 -240.756222 
L 52.480187 -240.556783 
L 51.590397 -240.351893 
L 50.700608 -240.142009 
L 49.810818 -239.927599 
L 48.921028 -239.709139 
L 48.031238 -239.487116 
L 47.141449 -239.262023 
L 46.251659 -239.034363 
L 45.361869 -238.804641 
L 44.472079 -238.573369 
L 43.58229 -238.341062 
L 42.6925 -238.108236 
z
" style="stroke: #ffffff"/>
    </defs>
    <g clip-path="url(#pc4d55e8395)">
     <use xlink:href="#m62f19fa380" x="0" y="450.167384" style="fill: #ffffff; stroke: #ffffff"/>
    </g>
   </g>
   <g id="line2d_14">
    <path d="M 42.6925 216.995512 
L 52.480187 214.546966 
L 57.818926 213.447136 
L 62.267874 212.743319 
L 66.716823 212.275064 
L 71.165772 212.068312 
L 75.61472 212.134517 
L 80.063669 212.470011 
L 84.512618 213.056208 
L 88.961566 213.860635 
L 94.300305 215.050554 
L 103.198202 217.325225 
L 111.20631 219.325173 
L 116.545048 220.448104 
L 120.993997 221.177095 
L 125.442946 221.674435 
L 129.891894 221.912573 
L 134.340843 221.878315 
L 138.789792 221.573561 
L 143.23874 221.015192 
L 147.687689 220.234141 
L 153.026427 219.064593 
L 161.034535 217.034331 
L 170.822222 214.580748 
L 176.160961 213.474232 
L 180.609909 212.763167 
L 185.058858 212.286565 
L 189.507807 212.070829 
L 193.956755 212.12791 
L 198.405704 212.454646 
L 202.854653 213.032937 
L 207.303601 213.830746 
L 212.64234 215.014936 
L 220.650447 217.053739 
L 229.548345 219.290878 
L 234.887083 220.420254 
L 239.336032 221.156336 
L 243.784981 221.661918 
L 248.233929 221.908991 
L 252.682878 221.883867 
L 257.131827 221.587939 
L 261.580775 221.037599 
L 266.029724 220.263337 
L 271.368462 219.099773 
L 279.37657 217.073147 
L 289.164257 214.61468 
L 294.502996 213.501546 
L 298.951944 212.783277 
L 303.400893 212.298357 
L 307.849842 212.07365 
L 312.29879 212.121604 
L 316.747739 212.439562 
L 321.196688 213.00991 
L 325.645636 213.801053 
L 330.984375 214.979441 
L 338.992482 217.014922 
L 347.89038 219.25644 
L 353.229118 220.392191 
L 357.678067 221.13532 
L 362.127016 221.649113 
L 366.575964 221.905105 
L 371.024913 221.889117 
L 375.473862 221.602033 
L 379.92281 221.059757 
L 384.371759 220.29233 
L 389.710497 219.134822 
L 397.718605 217.111958 
L 407.506292 214.648758 
L 412.845031 213.529076 
L 417.293979 212.803647 
L 421.742928 212.31044 
L 426.191877 212.076775 
L 430.640825 212.115599 
L 435.089774 212.42476 
L 439.538723 212.98713 
L 443.987671 213.771557 
L 449.32641 214.94407 
L 457.334518 216.976103 
L 467.122205 219.427186 
L 472.460943 220.530368 
L 476.909892 221.237815 
L 481.35884 221.710247 
L 485.807789 221.921493 
L 490.256738 221.859849 
L 494.705686 221.528732 
L 499.154635 220.946483 
L 503.603584 220.145359 
L 508.942322 218.958295 
L 516.95043 216.917878 
L 525.848327 214.682982 
L 531.187066 213.55682 
L 535.636014 212.824277 
L 540.084963 212.322812 
L 544.533912 212.080205 
L 548.98286 212.109896 
L 553.431809 212.41024 
L 557.880758 212.964598 
L 562.329707 213.742261 
L 567.668445 214.908826 
L 575.676553 216.937286 
L 585.46424 219.39333 
L 590.802978 220.503163 
L 595.251927 221.217836 
L 599.700875 221.6986 
L 604.149824 221.918824 
L 608.598773 221.866306 
L 613.047722 221.543956 
L 617.49667 220.969632 
L 621.945619 220.17515 
L 627.284357 218.993852 
L 635.292465 216.956694 
L 644.190362 214.717348 
L 649.529101 213.584776 
L 653.978049 212.845165 
L 658.426998 212.335473 
L 662.875947 212.083939 
L 667.324895 212.104495 
L 671.773844 212.396004 
L 676.222793 212.942316 
L 680.671742 213.713166 
L 686.01048 214.873711 
L 694.018588 216.898472 
L 703.806275 219.359324 
L 709.145013 220.475741 
L 713.593962 221.197595 
L 718.042911 221.686663 
L 722.491859 221.91585 
L 726.940808 221.872461 
L 731.389757 221.558899 
L 735.838705 220.992535 
L 740.287654 220.204745 
L 745.626392 219.029285 
L 753.6345 216.995512 
L 753.6345 216.995512 
" clip-path="url(#pc4d55e8395)" style="fill: none; stroke: #000000; stroke-width: 1.6; stroke-linecap: square"/>
   </g>
   <g id="line2d_15">
    <path d="M 42.6925 212.059148 
L 52.480187 209.610601 
L 57.818926 208.510771 
L 62.267874 207.806954 
L 66.716823 207.338699 
L 71.165772 207.131947 
L 75.61472 207.198152 
L 80.063669 207.533646 
L 84.512618 208.119843 
L 88.961566 208.92427 
L 94.300305 210.114189 
L 103.198202 212.38886 
L 111.20631 214.388808 
L 116.545048 215.511739 
L 120.993997 216.24073 
L 125.442946 216.73807 
L 129.891894 216.976208 
L 134.340843 216.94195 
L 138.789792 216.637196 
L 143.23874 216.078827 
L 147.687689 215.297776 
L 153.026427 214.128228 
L 161.034535 212.097966 
L 170.822222 209.644383 
L 176.160961 208.537867 
L 180.609909 207.826802 
L 185.058858 207.3502 
L 189.507807 207.134464 
L 193.956755 207.191545 
L 198.405704 207.518281 
L 202.854653 208.096572 
L 207.303601 208.894381 
L 212.64234 210.078571 
L 220.650447 212.117374 
L 229.548345 214.354513 
L 234.887083 215.483889 
L 239.336032 216.219971 
L 243.784981 216.725553 
L 248.233929 216.972626 
L 252.682878 216.947502 
L 257.131827 216.651574 
L 261.580775 216.101234 
L 266.029724 215.326972 
L 271.368462 214.163408 
L 279.37657 212.136782 
L 289.164257 209.678315 
L 294.502996 208.565181 
L 298.951944 207.846912 
L 303.400893 207.361992 
L 307.849842 207.137285 
L 312.29879 207.185239 
L 316.747739 207.503197 
L 321.196688 208.073545 
L 325.645636 208.864688 
L 330.984375 210.043076 
L 338.992482 212.078557 
L 347.89038 214.320075 
L 353.229118 215.455826 
L 357.678067 216.198955 
L 362.127016 216.712748 
L 366.575964 216.96874 
L 371.024913 216.952752 
L 375.473862 216.665668 
L 379.92281 216.123392 
L 384.371759 215.355965 
L 389.710497 214.198457 
L 397.718605 212.175593 
L 407.506292 209.712393 
L 412.845031 208.592711 
L 417.293979 207.867282 
L 421.742928 207.374075 
L 426.191877 207.14041 
L 430.640825 207.179234 
L 435.089774 207.488395 
L 439.538723 208.050765 
L 443.987671 208.835192 
L 449.32641 210.007705 
L 457.334518 212.039738 
L 467.122205 214.490821 
L 472.460943 215.594003 
L 476.909892 216.30145 
L 481.35884 216.773882 
L 485.807789 216.985128 
L 490.256738 216.923484 
L 494.705686 216.592367 
L 499.154635 216.010118 
L 503.603584 215.208994 
L 508.942322 214.02193 
L 516.95043 211.981513 
L 525.848327 209.746617 
L 531.187066 208.620455 
L 535.636014 207.887912 
L 540.084963 207.386447 
L 544.533912 207.14384 
L 548.98286 207.173531 
L 553.431809 207.473875 
L 557.880758 208.028233 
L 562.329707 208.805896 
L 567.668445 209.972461 
L 575.676553 212.000921 
L 585.46424 214.456965 
L 590.802978 215.566798 
L 595.251927 216.281471 
L 599.700875 216.762235 
L 604.149824 216.982459 
L 608.598773 216.929941 
L 613.047722 216.607591 
L 617.49667 216.033267 
L 621.945619 215.238785 
L 627.284357 214.057487 
L 635.292465 212.020329 
L 644.190362 209.780983 
L 649.529101 208.648411 
L 653.978049 207.9088 
L 658.426998 207.399108 
L 662.875947 207.147574 
L 667.324895 207.16813 
L 671.773844 207.459639 
L 676.222793 208.005951 
L 680.671742 208.776801 
L 686.01048 209.937346 
L 694.018588 211.962107 
L 703.806275 214.422959 
L 709.145013 215.539376 
L 713.593962 216.26123 
L 718.042911 216.750298 
L 722.491859 216.979485 
L 726.940808 216.936096 
L 731.389757 216.622534 
L 735.838705 216.05617 
L 740.287654 215.26838 
L 745.626392 214.09292 
L 753.6345 212.059148 
L 753.6345 212.059148 
" clip-path="url(#pc4d55e8395)" style="fill: none; stroke: #000000; stroke-width: 1.6; stroke-linecap: square"/>
   </g>
   <g id="PathCollection_1">
    <defs>
     <path id="m2ee4119945" d="M 0 4.743416 
C 1.257969 4.743416 2.464584 4.24362 3.354102 3.354102 
C 4.24362 2.464584 4.743416 1.257969 4.743416 0 
C 4.743416 -1.257969 4.24362 -2.464584 3.354102 -3.354102 
C 2.464584 -4.24362 1.257969 -4.743416 0 -4.743416 
C -1.257969 -4.743416 -2.464584 -4.24362 -3.354102 -3.354102 
C -4.24362 -2.464584 -4.743416 -1.257969 -4.743416 0 
C -4.743416 1.257969 -4.24362 2.464584 -3.354102 3.354102 
C -2.464584 4.24362 -1.257969 4.743416 0 4.743416 
z
" style="stroke: #000000; stroke-width: 1.6"/>
    </defs>
    <g>
     <use xlink:href="#m2ee4119945" x="340.829468" y="149.441551" style="stroke: #000000; stroke-width: 1.6"/>
    </g>
   </g>
   <g id="line2d_16">
    <path d="M 327.986645 149.441551 
L 353.672291 149.441551 
" style="fill: none; stroke: #000000; stroke-width: 1.6; stroke-linecap: square"/>
   </g>
  </g>
 </g>
 <defs>
  <clipPath id="pc4d55e8395">
   <rect x="42.6925" y="7.2" width="710.942" height="394.9092"/>
  </clipPath>
 </defs>
 <defs>
  <pattern id="h011d174e3f" patternUnits="userSpaceOnUse" x="0" y="0" width="72" height="72">
   <rect x="0" y="0" width="73" height="73" fill="none"/>
   <path d="M -36 36 
L 36 -36 
M -33 39 
L 39 -33 
M -30 42 
L 42 -30 
M -27 45 
L 45 -27 
M -24 48 
L 48 -24 
M -21 51 
L 51 -21 
M -18 54 
L 54 -18 
M -15 57 
L 57 -15 
M -12 60 
L 60 -12 
M -9 63 
L 63 -9 
M -6 66 
L 66 -6 
M -3 69 
L 69 -3 
M 0 72 
L 72 0 
M 3 75 
L 75 3 
M 6 78 
L 78 6 
M 9 81 
L 81 9 
M 12 84 
L 84 12 
M 15 87 
L 87 15 
M 18 90 
L 90 18 
M 21 93 
L 93 21 
M 24 96 
L 96 24 
M 27 99 
L 99 27 
M 30 102 
L 102 30 
M 33 105 
L 105 33 
M 36 108 
L 108 36 
" style="fill: #a6a6a6; stroke: #a6a6a6; stroke-width: 1.0; stroke-linecap: butt; stroke-linejoin: miter"/>
  </pattern>
  <pattern id="h68b1783544" patternUnits="userSpaceOnUse" x="0" y="0" width="72" height="72">
   <rect x="0" y="0" width="73" height="73" fill="none"/>
   <path d="M -36 36 
L 36 108 
M -33 33 
L 39 105 
M -30 30 
L 42 102 
M -27 27 
L 45 99 
M -24 24 
L 48 96 
M -21 21 
L 51 93 
M -18 18 
L 54 90 
M -15 15 
L 57 87 
M -12 12 
L 60 84 
M -9 9 
L 63 81 
M -6 6 
L 66 78 
M -3 3 
L 69 75 
M 0 0 
L 72 72 
M 3 -3 
L 75 69 
M 6 -6 
L 78 66 
M 9 -9 
L 81 63 
M 12 -12 
L 84 60 
M 15 -15 
L 87 57 
M 18 -18 
L 90 54 
M 21 -21 
L 93 51 
M 24 -24 
L 96 48 
M 27 -27 
L 99 45 
M 30 -30 
L 102 42 
M 33 -33 
L 105 39 
M 36 -36 
L 108 36 
" style="fill: #a6a6a6; stroke: #a6a6a6; stroke-width: 1.0; stroke-linecap: butt; stroke-linejoin: miter"/>
  </pattern>
 </defs>
</svg>
