<?xml version="1.0" encoding="utf-8" standalone="no"?>
<!DOCTYPE svg PUBLIC "-//W3C//DTD SVG 1.1//EN"
  "http://www.w3.org/Graphics/SVG/1.1/DTD/svg11.dtd">
<svg xmlns:xlink="http://www.w3.org/1999/xlink" width="288pt" height="288pt" viewBox="0 0 288 288" xmlns="http://www.w3.org/2000/svg" version="1.1">
 <metadata>
  <rdf:RDF xmlns:dc="http://purl.org/dc/elements/1.1/" xmlns:cc="http://creativecommons.org/ns#" xmlns:rdf="http://www.w3.org/1999/02/22-rdf-syntax-ns#">
   <cc:Work>
    <dc:type rdf:resource="http://purl.org/dc/dcmitype/StillImage"/>
    <dc:date>2026-03-12T15:55:38.966725</dc:date>
    <dc:format>image/svg+xml</dc:format>
    <dc:creator>
     <cc:Agent>
      <dc:title>Matplotlib v3.10.0, https://matplotlib.org/</dc:title>
     </cc:Agent>
    </dc:creator>
   </cc:Work>
  </rdf:RDF>
 </metadata>
 <defs>
  <style type="text/css">*{stroke-linejoin: round; stroke-linecap: butt}</style>
 </defs>
 <g id="figure_1">
  <g id="patch_1">
   <path d="M 0 288 
L 288 288 
L 288 0 
L 0 0 
L 0 288 
z
" style="fill: none; opacity: 0"/>
  </g>
  <g id="axes_1">
   <g id="patch_2">
    <path d="M 38.665169 277.2 
L 277.2 277.2 
L 277.2 35.3376 
L 38.665169 35.3376 
L 38.665169 277.2 
z
" style="fill: none; opacity: 0"/>
   </g>
   <g id="patch_3">
    <path d="M 99.117816 114.647861 
L 99.228222 114.595233 
L 99.338627 114.542704 
L 99.449033 114.490273 
L 99.559438 114.43794 
L 99.669843 114.385705 
L 99.780249 114.333567 
L 99.890654 114.281527 
L 100.00106 114.229584 
L 100.111465 114.177738 
L 100.221871 114.125989 
L 100.332276 114.074335 
L 100.442681 114.022778 
L 100.553087 113.971317 
L 100.663492 113.919951 
L 100.773898 113.868681 
L 100.884303 113.817505 
L 100.994709 113.766425 
L 101.105114 113.715439 
L 101.21552 113.664547 
L 101.325925 113.613749 
L 101.43633 113.563045 
L 101.546736 113.512435 
L 101.657141 113.461917 
L 101.767547 113.411493 
L 101.877952 113.361162 
L 101.988358 113.310923 
L 102.098763 113.260777 
L 102.209169 113.210722 
L 102.319574 113.16076 
L 102.429979 113.110889 
L 102.540385 113.061109 
L 102.65079 113.011421 
L 102.761196 112.961823 
L 102.871601 112.912316 
L 102.982007 112.862899 
L 103.092412 112.813572 
L 103.202817 112.764336 
L 103.313223 112.715189 
L 103.423628 112.666131 
L 103.534034 112.617163 
L 103.644439 112.568283 
L 103.754845 112.519493 
L 103.86525 112.47079 
L 103.975656 112.422177 
L 104.086061 112.373651 
L 104.196466 112.325213 
L 104.306872 112.276862 
L 104.417277 112.228599 
L 104.527683 112.180423 
L 104.638088 112.132334 
L 104.748494 112.084332 
L 104.858899 112.036416 
L 104.969305 111.988586 
L 105.07971 111.940842 
L 105.190115 111.893185 
L 105.300521 111.845612 
L 105.410926 111.798125 
L 105.521332 111.750723 
L 105.631737 111.703406 
L 105.742143 111.656174 
L 105.852548 111.609026 
L 105.962953 111.561963 
L 106.073359 111.514983 
L 106.183764 111.468088 
L 106.29417 111.421275 
L 106.404575 111.374547 
L 106.514981 111.327901 
L 106.625386 111.281339 
L 106.735792 111.234859 
L 106.846197 111.188461 
L 106.956602 111.142147 
L 107.067008 111.095914 
L 107.177413 111.049763 
L 107.287819 111.003694 
L 107.398224 110.957706 
L 107.50863 110.911799 
L 107.619035 110.865974 
L 107.729441 110.820229 
L 107.839846 110.774566 
L 107.950251 110.728982 
L 108.060657 110.683479 
L 108.171062 110.638056 
L 108.281468 110.592713 
L 108.391873 110.547449 
L 108.502279 110.502265 
L 108.612684 110.45716 
L 108.723089 110.412135 
L 108.833495 110.367188 
L 108.9439 110.322319 
L 109.054306 110.27753 
L 109.164711 110.232818 
L 109.275117 110.188184 
L 109.385522 110.143629 
L 109.495928 110.099151 
L 109.606333 110.05475 
L 109.716738 110.010427 
L 109.827144 109.966181 
L 109.937549 109.922012 
L 110.047955 109.877919 
L 110.15836 109.833903 
L 110.268766 109.789963 
L 110.379171 109.7461 
L 110.489576 109.702312 
L 110.599982 109.6586 
L 110.710387 109.614964 
L 110.820793 109.571403 
L 110.931198 109.527917 
L 111.041604 109.484507 
L 111.152009 109.441171 
L 111.262415 109.397909 
L 111.37282 109.354723 
L 111.483225 109.31161 
L 111.593631 109.268571 
L 111.704036 109.225607 
L 111.814442 109.182716 
L 111.924847 109.139899 
L 112.035253 109.097155 
L 112.145658 109.054484 
L 112.256064 109.011886 
L 112.366469 108.969361 
L 112.476874 108.926908 
L 112.58728 108.884528 
L 112.697685 108.842221 
L 112.808091 108.799985 
L 112.918496 108.757821 
L 113.028902 108.71573 
L 113.139307 108.673709 
L 113.249712 108.63176 
L 113.360118 108.589882 
L 113.470523 108.548076 
L 113.580929 108.50634 
L 113.691334 108.464675 
L 113.80174 108.42308 
L 113.912145 108.381556 
L 114.022551 108.340102 
L 114.132956 108.298718 
L 114.243361 108.257404 
L 114.353767 108.216159 
L 114.464172 108.174984 
L 114.574578 108.133879 
L 114.684983 108.092842 
L 114.795389 108.051875 
L 114.905794 108.010976 
L 115.0162 107.970146 
L 115.126605 107.929384 
L 115.23701 107.888691 
L 115.347416 107.848066 
L 115.457821 107.807509 
L 115.568227 107.76702 
L 115.678632 107.726599 
L 115.789038 107.686245 
L 115.899443 107.645958 
L 116.009848 107.605739 
L 116.120254 107.565587 
L 116.230659 107.525501 
L 116.341065 107.485483 
L 116.45147 107.44553 
L 116.561876 107.405645 
L 116.672281 107.365825 
L 116.782687 107.326072 
L 116.893092 107.286384 
L 117.003497 107.246762 
L 117.113903 107.207206 
L 117.224308 107.167715 
L 117.334714 107.12829 
L 117.445119 107.08893 
L 117.555525 107.049634 
L 117.66593 107.010404 
L 117.776336 106.971238 
L 117.886741 106.932137 
L 117.997146 106.8931 
L 118.107552 106.854127 
L 118.217957 106.815219 
L 118.328363 106.776374 
L 118.438768 106.737593 
L 118.549174 106.698876 
L 118.659579 106.660222 
L 118.769984 106.621632 
L 118.88039 106.583104 
L 118.990795 106.54464 
L 119.101201 106.506239 
L 119.211606 106.4679 
L 119.322012 106.429624 
L 119.432417 106.39141 
L 119.542823 106.353258 
L 119.653228 106.315169 
L 119.763633 106.277142 
L 119.874039 106.239176 
L 119.984444 106.201273 
L 120.09485 106.16343 
L 120.205255 106.12565 
L 120.315661 106.08793 
L 120.426066 106.050272 
L 120.536472 106.012674 
L 120.646877 105.975138 
L 120.757282 105.937662 
L 120.867688 105.900246 
L 120.978093 105.862892 
L 121.088499 105.825597 
L 121.198904 105.788362 
L 121.30931 105.751188 
L 121.419715 105.714073 
L 121.53012 105.677018 
L 121.640526 105.640023 
L 121.750931 105.603087 
L 121.861337 105.566211 
L 121.971742 105.529393 
L 122.082148 105.492635 
L 122.192553 105.455935 
L 122.302959 105.419295 
L 122.413364 105.382713 
L 122.523769 105.346189 
L 122.634175 105.309724 
L 122.74458 105.273317 
L 122.854986 105.236968 
L 122.965391 105.200677 
L 123.075797 105.164444 
L 123.186202 105.128268 
L 123.296607 105.092151 
L 123.407013 105.05609 
L 123.517418 105.020087 
L 123.627824 104.984141 
L 123.738229 104.948252 
L 123.848635 104.91242 
L 123.95904 104.876645 
L 124.069446 104.840926 
L 124.179851 104.805264 
L 124.290256 104.769658 
L 124.400662 104.734109 
L 124.511067 104.698616 
L 124.621473 104.663178 
L 124.731878 104.627797 
L 124.842284 104.592471 
L 124.952689 104.557201 
L 125.063095 104.521987 
L 125.1735 104.486828 
L 125.283905 104.451724 
L 125.394311 104.416675 
L 125.504716 104.381681 
L 125.615122 104.346742 
L 125.725527 104.311858 
L 125.835933 104.277029 
L 125.946338 104.242254 
L 126.056743 104.207533 
L 126.167149 104.172866 
L 126.277554 104.138254 
L 126.38796 104.103696 
L 126.498365 104.069192 
L 126.608771 104.034741 
L 126.719176 104.000344 
L 126.829582 103.966001 
L 126.939987 103.931711 
L 127.050392 103.897474 
L 127.160798 103.863291 
L 127.271203 103.82916 
L 127.381609 103.795083 
L 127.492014 103.761058 
L 127.60242 103.727086 
L 127.712825 103.693167 
L 127.823231 103.6593 
L 127.933636 103.625486 
L 128.044041 103.591723 
L 128.154447 103.558013 
L 128.264852 103.524355 
L 128.375258 103.490749 
L 128.485663 103.457194 
L 128.596069 103.423691 
L 128.706474 103.39024 
L 128.816879 103.35684 
L 128.927285 103.323492 
L 129.03769 103.290194 
L 129.148096 103.256948 
L 129.258501 103.223753 
L 129.368907 103.190608 
L 129.479312 103.157515 
L 129.589718 103.124472 
L 129.700123 103.091479 
L 129.810528 103.058537 
L 129.920934 103.025645 
L 130.031339 102.992804 
L 130.141745 102.960012 
L 130.25215 102.927271 
L 130.362556 102.894579 
L 130.472961 102.861937 
L 130.583367 102.829345 
L 130.693772 102.796802 
L 130.804177 102.764309 
L 130.914583 102.731865 
L 131.024988 102.69947 
L 131.135394 102.667125 
L 131.245799 102.634828 
L 131.356205 102.602581 
L 131.46661 102.570382 
L 131.577015 102.538232 
L 131.687421 102.50613 
L 131.797826 102.474077 
L 131.908232 102.442072 
L 132.018637 102.410116 
L 132.129043 102.378207 
L 132.239448 102.346347 
L 132.349854 102.314535 
L 132.460259 102.28277 
L 132.570664 102.251053 
L 132.68107 102.219384 
L 132.791475 102.187763 
L 132.901881 102.156188 
L 133.012286 102.124662 
L 133.122692 102.093182 
L 133.233097 102.06175 
L 133.343503 102.030364 
L 133.453908 101.999026 
L 133.564313 101.967734 
L 133.674719 101.936489 
L 133.785124 101.905291 
L 133.89553 101.874139 
L 134.005935 101.843033 
L 134.116341 101.811974 
L 134.226746 101.780962 
L 134.337151 101.749995 
L 134.447557 101.719074 
L 134.557962 101.688199 
L 134.668368 101.657371 
L 134.778773 101.626587 
L 134.889179 101.59585 
L 134.999584 101.565158 
L 135.10999 101.534511 
L 135.220395 101.50391 
L 135.3308 101.473354 
L 135.441206 101.442843 
L 135.551611 101.412378 
L 135.662017 101.381957 
L 135.772422 101.351581 
L 135.882828 101.32125 
L 135.993233 101.290963 
L 136.103638 101.260721 
L 136.214044 101.230524 
L 136.324449 101.200371 
L 136.434855 101.170262 
L 136.54526 101.140198 
L 136.655666 101.110177 
L 136.766071 101.080201 
L 136.876477 101.050268 
L 136.986882 101.02038 
L 137.097287 100.990535 
L 137.207693 100.960734 
L 137.318098 100.930976 
L 137.428504 100.901262 
L 137.538909 100.871591 
L 137.649315 100.841963 
L 137.75972 100.812379 
L 137.870126 100.782838 
L 137.980531 100.75334 
L 138.090936 100.723884 
L 138.201342 100.694472 
L 138.311747 100.665102 
L 138.422153 100.635775 
L 138.532558 100.60649 
L 138.642964 100.577248 
L 138.753369 100.548049 
L 138.863774 100.518891 
L 138.97418 100.489776 
L 139.084585 100.460703 
L 139.194991 100.431672 
L 139.305396 100.402683 
L 139.415802 100.373736 
L 139.526207 100.34483 
L 139.636613 100.315967 
L 139.747018 100.287145 
L 139.857423 100.258364 
L 139.967829 100.229625 
L 140.078234 100.200927 
L 140.18864 100.17227 
L 140.299045 100.143655 
L 140.409451 100.115081 
L 140.519856 100.086547 
L 140.630262 100.058055 
L 140.740667 100.029603 
L 140.851072 100.001193 
L 140.961478 99.972822 
L 141.071883 99.944493 
L 141.182289 99.916204 
L 141.292694 99.887955 
L 141.4031 99.859747 
L 141.513505 99.831579 
L 141.62391 99.803451 
L 141.734316 99.775363 
L 141.844721 99.747315 
L 141.955127 99.719307 
L 142.065532 99.691339 
L 142.175938 99.663411 
L 142.286343 99.635522 
L 142.396749 99.607673 
L 142.507154 99.579864 
L 142.617559 99.552094 
L 142.727965 99.524363 
L 142.83837 99.496671 
L 142.948776 99.469019 
L 143.059181 99.441406 
L 143.169587 99.413832 
L 143.279992 99.386297 
L 143.390398 99.3588 
L 143.500803 99.331343 
L 143.611208 99.303924 
L 143.721614 99.276544 
L 143.832019 99.249202 
L 143.942425 99.221899 
L 144.05283 99.194635 
L 144.163236 99.167408 
L 144.273641 99.14022 
L 144.384046 99.11307 
L 144.494452 99.085958 
L 144.604857 99.058885 
L 144.715263 99.031849 
L 144.825668 99.004851 
L 144.936074 98.97789 
L 145.046479 98.950968 
L 145.156885 98.924083 
L 145.26729 98.897236 
L 145.377695 98.870426 
L 145.488101 98.843653 
L 145.598506 98.816918 
L 145.708912 98.79022 
L 145.819317 98.76356 
L 145.929723 98.736936 
L 146.040128 98.71035 
L 146.150534 98.6838 
L 146.260939 98.657288 
L 146.371344 98.630812 
L 146.48175 98.604373 
L 146.592155 98.57797 
L 146.702561 98.551604 
L 146.812966 98.525275 
L 146.923372 98.498982 
L 147.033777 98.472726 
L 147.144182 98.446506 
L 147.254588 98.420322 
L 147.364993 98.394174 
L 147.475399 98.368062 
L 147.585804 98.341987 
L 147.69621 98.315947 
L 147.806615 98.289943 
L 147.917021 98.263975 
L 148.027426 98.238043 
L 148.137831 98.212146 
L 148.248237 98.186285 
L 148.358642 98.160459 
L 148.469048 98.134669 
L 148.579453 98.108915 
L 148.689859 98.083195 
L 148.800264 98.057511 
L 148.910669 98.031862 
L 149.021075 98.006248 
L 149.13148 97.98067 
L 149.241886 97.955126 
L 149.352291 97.929617 
L 149.462697 97.904143 
L 149.573102 97.878703 
L 149.683508 97.853298 
L 149.793913 97.827928 
L 149.904318 97.802593 
L 150.014724 97.777292 
L 150.125129 97.752025 
L 150.235535 97.726793 
L 150.34594 97.701595 
L 150.456346 97.676431 
L 150.566751 97.651302 
L 150.677157 97.626206 
L 150.787562 97.601145 
L 150.897967 97.576117 
L 151.008373 97.551124 
L 151.118778 97.526164 
L 151.229184 97.501238 
L 151.339589 97.476345 
L 151.449995 97.451487 
L 151.5604 97.426661 
L 151.670805 97.40187 
L 151.781211 97.377111 
L 151.891616 97.352386 
L 152.002022 97.327695 
L 152.112427 97.303036 
L 152.222833 97.278411 
L 152.333238 97.253819 
L 152.443644 97.22926 
L 152.554049 97.204734 
L 152.664454 97.180241 
L 152.77486 97.155781 
L 152.885265 97.131353 
L 152.995671 97.106958 
L 153.106076 97.082596 
L 153.216482 97.058267 
L 153.326887 97.03397 
L 153.437293 97.009705 
L 153.547698 96.985473 
L 153.658103 96.961273 
L 153.768509 96.937106 
L 153.878914 96.91297 
L 153.98932 96.888867 
L 154.099725 96.864796 
L 154.210131 96.840757 
L 154.210131 96.840757 
L 154.210131 97.247661 
L 154.210131 97.654565 
L 154.210131 98.061469 
L 154.210131 98.468373 
L 154.210131 98.875277 
L 154.210131 99.282181 
L 154.210131 99.689085 
L 154.210131 100.095989 
L 154.210131 100.502893 
L 154.210131 100.909797 
L 154.210131 101.316701 
L 154.210131 101.723605 
L 154.210131 102.130509 
L 154.210131 102.537413 
L 154.210131 102.944317 
L 154.210131 103.351221 
L 154.210131 103.758125 
L 154.210131 104.165029 
L 154.210131 104.571933 
L 154.210131 104.978837 
L 154.210131 105.385741 
L 154.210131 105.792645 
L 154.210131 106.199549 
L 154.210131 106.606453 
L 154.210131 107.013357 
L 154.210131 107.420261 
L 154.210131 107.827165 
L 154.210131 108.234069 
L 154.210131 108.640973 
L 154.210131 109.047877 
L 154.210131 109.454781 
L 154.210131 109.861685 
L 154.210131 110.268589 
L 154.210131 110.675493 
L 154.210131 111.082397 
L 154.210131 111.489301 
L 154.210131 111.896205 
L 154.210131 112.303109 
L 154.210131 112.710013 
L 154.210131 113.116917 
L 154.210131 113.523821 
L 154.210131 113.930726 
L 154.210131 114.33763 
L 154.210131 114.744534 
L 154.210131 115.151438 
L 154.210131 115.558342 
L 154.210131 115.965246 
L 154.210131 116.37215 
L 154.210131 116.779054 
L 154.210131 117.185958 
L 154.210131 117.592862 
L 154.210131 117.999766 
L 154.210131 118.40667 
L 154.210131 118.813574 
L 154.210131 119.220478 
L 154.210131 119.627382 
L 154.210131 120.034286 
L 154.210131 120.44119 
L 154.210131 120.848094 
L 154.210131 121.254998 
L 154.210131 121.661902 
L 154.210131 122.068806 
L 154.210131 122.47571 
L 154.210131 122.882614 
L 154.210131 123.289518 
L 154.210131 123.696422 
L 154.210131 124.103326 
L 154.210131 124.51023 
L 154.210131 124.917134 
L 154.210131 125.324038 
L 154.210131 125.730942 
L 154.210131 126.137846 
L 154.210131 126.54475 
L 154.210131 126.951654 
L 154.210131 127.358558 
L 154.210131 127.765462 
L 154.210131 128.172366 
L 154.210131 128.57927 
L 154.210131 128.986174 
L 154.210131 128.986174 
L 154.099725 129.034252 
L 153.98932 129.082394 
L 153.878914 129.1306 
L 153.768509 129.17887 
L 153.658103 129.227205 
L 153.547698 129.275605 
L 153.437293 129.324069 
L 153.326887 129.372598 
L 153.216482 129.421192 
L 153.106076 129.469851 
L 152.995671 129.518576 
L 152.885265 129.567365 
L 152.77486 129.61622 
L 152.664454 129.665141 
L 152.554049 129.714127 
L 152.443644 129.763179 
L 152.333238 129.812297 
L 152.222833 129.861482 
L 152.112427 129.910732 
L 152.002022 129.960049 
L 151.891616 130.009432 
L 151.781211 130.058882 
L 151.670805 130.108398 
L 151.5604 130.157982 
L 151.449995 130.207632 
L 151.339589 130.25735 
L 151.229184 130.307134 
L 151.118778 130.356987 
L 151.008373 130.406906 
L 150.897967 130.456894 
L 150.787562 130.506949 
L 150.677157 130.557072 
L 150.566751 130.607263 
L 150.456346 130.657522 
L 150.34594 130.707849 
L 150.235535 130.758245 
L 150.125129 130.80871 
L 150.014724 130.859243 
L 149.904318 130.909845 
L 149.793913 130.960516 
L 149.683508 131.011256 
L 149.573102 131.062065 
L 149.462697 131.112944 
L 149.352291 131.163892 
L 149.241886 131.21491 
L 149.13148 131.265998 
L 149.021075 131.317156 
L 148.910669 131.368384 
L 148.800264 131.419681 
L 148.689859 131.47105 
L 148.579453 131.522488 
L 148.469048 131.573998 
L 148.358642 131.625578 
L 148.248237 131.677229 
L 148.137831 131.728951 
L 148.027426 131.780744 
L 147.917021 131.832609 
L 147.806615 131.884545 
L 147.69621 131.936553 
L 147.585804 131.988632 
L 147.475399 132.040784 
L 147.364993 132.093007 
L 147.254588 132.145302 
L 147.144182 132.19767 
L 147.033777 132.250111 
L 146.923372 132.302624 
L 146.812966 132.355209 
L 146.702561 132.407868 
L 146.592155 132.4606 
L 146.48175 132.513404 
L 146.371344 132.566283 
L 146.260939 132.619234 
L 146.150534 132.672259 
L 146.040128 132.725359 
L 145.929723 132.778532 
L 145.819317 132.831779 
L 145.708912 132.8851 
L 145.598506 132.938496 
L 145.488101 132.991966 
L 145.377695 133.045511 
L 145.26729 133.09913 
L 145.156885 133.152825 
L 145.046479 133.206595 
L 144.936074 133.26044 
L 144.825668 133.31436 
L 144.715263 133.368356 
L 144.604857 133.422428 
L 144.494452 133.476576 
L 144.384046 133.530799 
L 144.273641 133.585099 
L 144.163236 133.639476 
L 144.05283 133.693928 
L 143.942425 133.748458 
L 143.832019 133.803064 
L 143.721614 133.857747 
L 143.611208 133.912507 
L 143.500803 133.967345 
L 143.390398 134.02226 
L 143.279992 134.077253 
L 143.169587 134.132323 
L 143.059181 134.187471 
L 142.948776 134.242697 
L 142.83837 134.298002 
L 142.727965 134.353385 
L 142.617559 134.408846 
L 142.507154 134.464387 
L 142.396749 134.520006 
L 142.286343 134.575704 
L 142.175938 134.631481 
L 142.065532 134.687338 
L 141.955127 134.743274 
L 141.844721 134.799289 
L 141.734316 134.855385 
L 141.62391 134.911561 
L 141.513505 134.967817 
L 141.4031 135.024153 
L 141.292694 135.080569 
L 141.182289 135.137067 
L 141.071883 135.193645 
L 140.961478 135.250304 
L 140.851072 135.307044 
L 140.740667 135.363866 
L 140.630262 135.420769 
L 140.519856 135.477754 
L 140.409451 135.534821 
L 140.299045 135.591969 
L 140.18864 135.6492 
L 140.078234 135.706513 
L 139.967829 135.763909 
L 139.857423 135.821387 
L 139.747018 135.878948 
L 139.636613 135.936593 
L 139.526207 135.99432 
L 139.415802 136.052131 
L 139.305396 136.110025 
L 139.194991 136.168003 
L 139.084585 136.226065 
L 138.97418 136.284211 
L 138.863774 136.342442 
L 138.753369 136.400756 
L 138.642964 136.459156 
L 138.532558 136.51764 
L 138.422153 136.576209 
L 138.311747 136.634863 
L 138.201342 136.693603 
L 138.090936 136.752427 
L 137.980531 136.811338 
L 137.870126 136.870335 
L 137.75972 136.929417 
L 137.649315 136.988586 
L 137.538909 137.047841 
L 137.428504 137.107183 
L 137.318098 137.166611 
L 137.207693 137.226126 
L 137.097287 137.285729 
L 136.986882 137.345419 
L 136.876477 137.405196 
L 136.766071 137.465061 
L 136.655666 137.525013 
L 136.54526 137.585054 
L 136.434855 137.645183 
L 136.324449 137.705401 
L 136.214044 137.765707 
L 136.103638 137.826102 
L 135.993233 137.886585 
L 135.882828 137.947158 
L 135.772422 138.007821 
L 135.662017 138.068573 
L 135.551611 138.129414 
L 135.441206 138.190346 
L 135.3308 138.251367 
L 135.220395 138.312479 
L 135.10999 138.373682 
L 134.999584 138.434975 
L 134.889179 138.496359 
L 134.778773 138.557834 
L 134.668368 138.6194 
L 134.557962 138.681058 
L 134.447557 138.742807 
L 134.337151 138.804649 
L 134.226746 138.866582 
L 134.116341 138.928608 
L 134.005935 138.990726 
L 133.89553 139.052937 
L 133.785124 139.11524 
L 133.674719 139.177637 
L 133.564313 139.240127 
L 133.453908 139.30271 
L 133.343503 139.365387 
L 133.233097 139.428158 
L 133.122692 139.491023 
L 133.012286 139.553982 
L 132.901881 139.617036 
L 132.791475 139.680184 
L 132.68107 139.743427 
L 132.570664 139.806766 
L 132.460259 139.870199 
L 132.349854 139.933728 
L 132.239448 139.997353 
L 132.129043 140.061073 
L 132.018637 140.12489 
L 131.908232 140.188803 
L 131.797826 140.252813 
L 131.687421 140.316919 
L 131.577015 140.381122 
L 131.46661 140.445423 
L 131.356205 140.50982 
L 131.245799 140.574316 
L 131.135394 140.638909 
L 131.024988 140.7036 
L 130.914583 140.768389 
L 130.804177 140.833277 
L 130.693772 140.898264 
L 130.583367 140.963349 
L 130.472961 141.028533 
L 130.362556 141.093817 
L 130.25215 141.1592 
L 130.141745 141.224683 
L 130.031339 141.290266 
L 129.920934 141.355949 
L 129.810528 141.421733 
L 129.700123 141.487617 
L 129.589718 141.553602 
L 129.479312 141.619688 
L 129.368907 141.685875 
L 129.258501 141.752164 
L 129.148096 141.818555 
L 129.03769 141.885047 
L 128.927285 141.951642 
L 128.816879 142.018339 
L 128.706474 142.085139 
L 128.596069 142.152042 
L 128.485663 142.219047 
L 128.375258 142.286156 
L 128.264852 142.353369 
L 128.154447 142.420685 
L 128.044041 142.488106 
L 127.933636 142.55563 
L 127.823231 142.623259 
L 127.712825 142.690993 
L 127.60242 142.758832 
L 127.492014 142.826776 
L 127.381609 142.894825 
L 127.271203 142.96298 
L 127.160798 143.031241 
L 127.050392 143.099608 
L 126.939987 143.168081 
L 126.829582 143.236661 
L 126.719176 143.305348 
L 126.608771 143.374141 
L 126.498365 143.443042 
L 126.38796 143.512051 
L 126.277554 143.581168 
L 126.167149 143.650392 
L 126.056743 143.719725 
L 125.946338 143.789166 
L 125.835933 143.858716 
L 125.725527 143.928375 
L 125.615122 143.998143 
L 125.504716 144.068021 
L 125.394311 144.138009 
L 125.283905 144.208106 
L 125.1735 144.278314 
L 125.063095 144.348633 
L 124.952689 144.419062 
L 124.842284 144.489602 
L 124.731878 144.560253 
L 124.621473 144.631016 
L 124.511067 144.701891 
L 124.400662 144.772877 
L 124.290256 144.843976 
L 124.179851 144.915187 
L 124.069446 144.986512 
L 123.95904 145.057949 
L 123.848635 145.129499 
L 123.738229 145.201163 
L 123.627824 145.272941 
L 123.517418 145.344833 
L 123.407013 145.416839 
L 123.296607 145.48896 
L 123.186202 145.561196 
L 123.075797 145.633547 
L 122.965391 145.706013 
L 122.854986 145.778595 
L 122.74458 145.851293 
L 122.634175 145.924107 
L 122.523769 145.997037 
L 122.413364 146.070084 
L 122.302959 146.143248 
L 122.192553 146.21653 
L 122.082148 146.289929 
L 121.971742 146.363446 
L 121.861337 146.43708 
L 121.750931 146.510833 
L 121.640526 146.584705 
L 121.53012 146.658696 
L 121.419715 146.732806 
L 121.30931 146.807035 
L 121.198904 146.881384 
L 121.088499 146.955853 
L 120.978093 147.030442 
L 120.867688 147.105152 
L 120.757282 147.179983 
L 120.646877 147.254934 
L 120.536472 147.330007 
L 120.426066 147.405202 
L 120.315661 147.480519 
L 120.205255 147.555958 
L 120.09485 147.63152 
L 119.984444 147.707204 
L 119.874039 147.783012 
L 119.763633 147.858943 
L 119.653228 147.934997 
L 119.542823 148.011176 
L 119.432417 148.087479 
L 119.322012 148.163906 
L 119.211606 148.240459 
L 119.101201 148.317136 
L 118.990795 148.393939 
L 118.88039 148.470868 
L 118.769984 148.547922 
L 118.659579 148.625103 
L 118.549174 148.702411 
L 118.438768 148.779846 
L 118.328363 148.857407 
L 118.217957 148.935097 
L 118.107552 149.012914 
L 117.997146 149.090859 
L 117.886741 149.168933 
L 117.776336 149.247136 
L 117.66593 149.325467 
L 117.555525 149.403928 
L 117.445119 149.482519 
L 117.334714 149.561239 
L 117.224308 149.64009 
L 117.113903 149.719071 
L 117.003497 149.798184 
L 116.893092 149.877427 
L 116.782687 149.956802 
L 116.672281 150.036309 
L 116.561876 150.115948 
L 116.45147 150.19572 
L 116.341065 150.275624 
L 116.230659 150.355662 
L 116.120254 150.435832 
L 116.009848 150.516137 
L 115.899443 150.596576 
L 115.789038 150.677149 
L 115.678632 150.757857 
L 115.568227 150.8387 
L 115.457821 150.919678 
L 115.347416 151.000792 
L 115.23701 151.082042 
L 115.126605 151.163428 
L 115.0162 151.244951 
L 114.905794 151.326611 
L 114.795389 151.408408 
L 114.684983 151.490343 
L 114.574578 151.572416 
L 114.464172 151.654627 
L 114.353767 151.736978 
L 114.243361 151.819467 
L 114.132956 151.902095 
L 114.022551 151.984863 
L 113.912145 152.067771 
L 113.80174 152.15082 
L 113.691334 152.234009 
L 113.580929 152.317339 
L 113.470523 152.400811 
L 113.360118 152.484424 
L 113.249712 152.568179 
L 113.139307 152.652077 
L 113.028902 152.736118 
L 112.918496 152.820302 
L 112.808091 152.904629 
L 112.697685 152.989101 
L 112.58728 153.073716 
L 112.476874 153.158476 
L 112.366469 153.243381 
L 112.256064 153.328431 
L 112.145658 153.413626 
L 112.035253 153.498968 
L 111.924847 153.584456 
L 111.814442 153.670091 
L 111.704036 153.755873 
L 111.593631 153.841802 
L 111.483225 153.927879 
L 111.37282 154.014104 
L 111.262415 154.100478 
L 111.152009 154.187 
L 111.041604 154.273672 
L 110.931198 154.360494 
L 110.820793 154.447465 
L 110.710387 154.534587 
L 110.599982 154.62186 
L 110.489576 154.709284 
L 110.379171 154.796859 
L 110.268766 154.884586 
L 110.15836 154.972465 
L 110.047955 155.060497 
L 109.937549 155.148682 
L 109.827144 155.237021 
L 109.716738 155.325513 
L 109.606333 155.41416 
L 109.495928 155.502961 
L 109.385522 155.591917 
L 109.275117 155.681028 
L 109.164711 155.770295 
L 109.054306 155.859718 
L 108.9439 155.949298 
L 108.833495 156.039034 
L 108.723089 156.128928 
L 108.612684 156.21898 
L 108.502279 156.30919 
L 108.391873 156.399558 
L 108.281468 156.490085 
L 108.171062 156.580771 
L 108.060657 156.671617 
L 107.950251 156.762624 
L 107.839846 156.85379 
L 107.729441 156.945118 
L 107.619035 157.036607 
L 107.50863 157.128258 
L 107.398224 157.220071 
L 107.287819 157.312046 
L 107.177413 157.404185 
L 107.067008 157.496486 
L 106.956602 157.588952 
L 106.846197 157.681582 
L 106.735792 157.774377 
L 106.625386 157.867336 
L 106.514981 157.960461 
L 106.404575 158.053752 
L 106.29417 158.14721 
L 106.183764 158.240834 
L 106.073359 158.334626 
L 105.962953 158.428585 
L 105.852548 158.522712 
L 105.742143 158.617007 
L 105.631737 158.711472 
L 105.521332 158.806106 
L 105.410926 158.90091 
L 105.300521 158.995884 
L 105.190115 159.091028 
L 105.07971 159.186344 
L 104.969305 159.281831 
L 104.858899 159.377491 
L 104.748494 159.473323 
L 104.638088 159.569327 
L 104.527683 159.665505 
L 104.417277 159.761857 
L 104.306872 159.858384 
L 104.196466 159.955084 
L 104.086061 160.051961 
L 103.975656 160.149012 
L 103.86525 160.24624 
L 103.754845 160.343644 
L 103.644439 160.441226 
L 103.534034 160.538985 
L 103.423628 160.636921 
L 103.313223 160.735036 
L 103.202817 160.83333 
L 103.092412 160.931804 
L 102.982007 161.030457 
L 102.871601 161.12929 
L 102.761196 161.228305 
L 102.65079 161.3275 
L 102.540385 161.426877 
L 102.429979 161.526437 
L 102.319574 161.626179 
L 102.209169 161.726104 
L 102.098763 161.826213 
L 101.988358 161.926506 
L 101.877952 162.026983 
L 101.767547 162.127646 
L 101.657141 162.228494 
L 101.546736 162.329528 
L 101.43633 162.430749 
L 101.325925 162.532157 
L 101.21552 162.633753 
L 101.105114 162.735536 
L 100.994709 162.837508 
L 100.884303 162.93967 
L 100.773898 163.042021 
L 100.663492 163.144562 
L 100.553087 163.247293 
L 100.442681 163.350216 
L 100.332276 163.45333 
L 100.221871 163.556636 
L 100.111465 163.660135 
L 100.00106 163.763828 
L 99.890654 163.867713 
L 99.780249 163.971794 
L 99.669843 164.076068 
L 99.559438 164.180538 
L 99.449033 164.285204 
L 99.338627 164.390066 
L 99.228222 164.495125 
L 99.117816 164.600382 
L 99.117816 164.600382 
L 99.117816 163.968071 
L 99.117816 163.335761 
L 99.117816 162.703451 
L 99.117816 162.07114 
L 99.117816 161.43883 
L 99.117816 160.806519 
L 99.117816 160.174209 
L 99.117816 159.541899 
L 99.117816 158.909588 
L 99.117816 158.277278 
L 99.117816 157.644968 
L 99.117816 157.012657 
L 99.117816 156.380347 
L 99.117816 155.748036 
L 99.117816 155.115726 
L 99.117816 154.483416 
L 99.117816 153.851105 
L 99.117816 153.218795 
L 99.117816 152.586484 
L 99.117816 151.954174 
L 99.117816 151.321864 
L 99.117816 150.689553 
L 99.117816 150.057243 
L 99.117816 149.424933 
L 99.117816 148.792622 
L 99.117816 148.160312 
L 99.117816 147.528001 
L 99.117816 146.895691 
L 99.117816 146.263381 
L 99.117816 145.63107 
L 99.117816 144.99876 
L 99.117816 144.366449 
L 99.117816 143.734139 
L 99.117816 143.101829 
L 99.117816 142.469518 
L 99.117816 141.837208 
L 99.117816 141.204898 
L 99.117816 140.572587 
L 99.117816 139.940277 
L 99.117816 139.307966 
L 99.117816 138.675656 
L 99.117816 138.043346 
L 99.117816 137.411035 
L 99.117816 136.778725 
L 99.117816 136.146414 
L 99.117816 135.514104 
L 99.117816 134.881794 
L 99.117816 134.249483 
L 99.117816 133.617173 
L 99.117816 132.984863 
L 99.117816 132.352552 
L 99.117816 131.720242 
L 99.117816 131.087931 
L 99.117816 130.455621 
L 99.117816 129.823311 
L 99.117816 129.191 
L 99.117816 128.55869 
L 99.117816 127.926379 
L 99.117816 127.294069 
L 99.117816 126.661759 
L 99.117816 126.029448 
L 99.117816 125.397138 
L 99.117816 124.764828 
L 99.117816 124.132517 
L 99.117816 123.500207 
L 99.117816 122.867896 
L 99.117816 122.235586 
L 99.117816 121.603276 
L 99.117816 120.970965 
L 99.117816 120.338655 
L 99.117816 119.706344 
L 99.117816 119.074034 
L 99.117816 118.441724 
L 99.117816 117.809413 
L 99.117816 117.177103 
L 99.117816 116.544793 
L 99.117816 115.912482 
L 99.117816 115.280172 
z
" clip-path="url(#p603ab83af9)" style="fill: #bdbdbd; opacity: 0.35"/>
   </g>
   <g id="matplotlib.axis_1"/>
   <g id="matplotlib.axis_2"/>
   <g id="line2d_1">
    <path d="M 44.025502 163.077128 
L 47.091359 158.392683 
L 50.26671 153.944182 
L 53.551557 149.723486 
L 56.945898 145.721829 
L 60.449735 141.930041 
L 64.172561 138.234557 
L 68.004882 134.747141 
L 71.946698 131.456097 
L 76.107503 128.269792 
L 80.487299 125.197317 
L 85.086084 122.24497 
L 89.903859 119.416653 
L 95.050118 116.65814 
L 99.101429 114.655681 
L 99.101429 114.655681 
" clip-path="url(#p603ab83af9)" style="fill: none; stroke: #0004ff; stroke-opacity: 0.22; stroke-width: 2.2; stroke-linecap: square"/>
   </g>
   <g id="line2d_2">
    <path d="M 99.210924 114.603472 
L 104.904658 112.016582 
L 110.926877 109.529618 
L 117.27758 107.148684 
L 124.066263 104.841955 
L 131.292926 102.621057 
L 139.067062 100.465315 
L 147.498169 98.362682 
L 156.476749 96.354219 
L 166.221794 94.404108 
L 176.842798 92.510141 
L 188.339761 90.689882 
L 200.822178 88.941107 
L 214.509039 87.251214 
L 229.509838 85.626376 
L 233.123169 85.265857 
L 233.123169 85.265857 
" clip-path="url(#p603ab83af9)" style="fill: none; stroke: #0004ff; stroke-width: 2.2; stroke-linecap: square"/>
   </g>
   <g id="line2d_3">
    <path d="M 233.232664 85.255105 
L 250.204371 83.701731 
L 262.905778 82.670363 
L 262.905778 82.670363 
" clip-path="url(#p603ab83af9)" style="fill: none; stroke: #0004ff; stroke-opacity: 0.22; stroke-width: 2.2; stroke-linecap: square"/>
   </g>
   <g id="line2d_4">
    <path d="M 44.025502 261.458914 
L 46.872369 252.732709 
L 49.828731 244.375051 
L 52.894588 236.382357 
L 55.960444 229.00168 
L 59.135796 221.93311 
L 62.420643 215.171579 
L 65.705489 208.911116 
L 67.785892 205.181537 
L 67.785892 205.181537 
" clip-path="url(#p603ab83af9)" style="fill: none; stroke: #ff0202; stroke-opacity: 0.22; stroke-width: 2.2; stroke-linecap: square"/>
   </g>
   <g id="line2d_5">
    <path d="M 67.895387 204.990006 
L 71.399223 199.097793 
L 74.90306 193.632364 
L 78.516391 188.397575 
L 82.239217 183.387534 
L 86.071538 178.595726 
L 90.013354 174.015175 
L 94.174159 169.524631 
L 98.44446 165.246638 
L 102.824255 161.171729 
L 107.423041 157.199419 
L 112.131321 153.424701 
L 117.05859 149.75869 
L 122.20485 146.208362 
L 127.570099 142.778711 
L 133.154339 139.472994 
L 139.067062 136.235288 
L 145.198776 133.132443 
L 151.658974 130.113709 
L 154.177357 129.000439 
L 154.177357 129.000439 
" clip-path="url(#p603ab83af9)" style="fill: none; stroke: #ff0202; stroke-width: 2.2; stroke-linecap: square"/>
   </g>
   <g id="line2d_6">
    <path d="M 154.286852 128.952802 
L 161.185029 126.073536 
L 168.521187 123.254511 
L 176.295323 120.509601 
L 184.50744 117.849642 
L 193.157536 115.282741 
L 202.355106 112.786185 
L 212.209646 110.345115 
L 222.721155 107.974641 
L 233.889633 105.686265 
L 245.824576 103.468924 
L 258.635477 101.316198 
L 262.905778 100.645384 
L 262.905778 100.645384 
" clip-path="url(#p603ab83af9)" style="fill: none; stroke: #ff0202; stroke-opacity: 0.22; stroke-width: 2.2; stroke-linecap: square"/>
   </g>
   <g id="text_1">
    <!-- Tip-sample distance $s$ -->
    <g transform="translate(57.747955 28.918976) scale(0.2 -0.2)">
     <defs>
      <path id="ArialMT-54" d="M 1659 0 
L 1659 4041 
L 150 4041 
L 150 4581 
L 3781 4581 
L 3781 4041 
L 2266 4041 
L 2266 0 
L 1659 0 
z
" transform="scale(0.015625)"/>
      <path id="ArialMT-69" d="M 425 3934 
L 425 4581 
L 988 4581 
L 988 3934 
L 425 3934 
z
M 425 0 
L 425 3319 
L 988 3319 
L 988 0 
L 425 0 
z
" transform="scale(0.015625)"/>
      <path id="ArialMT-70" d="M 422 -1272 
L 422 3319 
L 934 3319 
L 934 2888 
Q 1116 3141 1344 3267 
Q 1572 3394 1897 3394 
Q 2322 3394 2647 3175 
Q 2972 2956 3137 2557 
Q 3303 2159 3303 1684 
Q 3303 1175 3120 767 
Q 2938 359 2589 142 
Q 2241 -75 1856 -75 
Q 1575 -75 1351 44 
Q 1128 163 984 344 
L 984 -1272 
L 422 -1272 
z
M 931 1641 
Q 931 1000 1190 694 
Q 1450 388 1819 388 
Q 2194 388 2461 705 
Q 2728 1022 2728 1688 
Q 2728 2322 2467 2637 
Q 2206 2953 1844 2953 
Q 1484 2953 1207 2617 
Q 931 2281 931 1641 
z
" transform="scale(0.015625)"/>
      <path id="ArialMT-2d" d="M 203 1375 
L 203 1941 
L 1931 1941 
L 1931 1375 
L 203 1375 
z
" transform="scale(0.015625)"/>
      <path id="ArialMT-73" d="M 197 991 
L 753 1078 
Q 800 744 1014 566 
Q 1228 388 1613 388 
Q 2000 388 2187 545 
Q 2375 703 2375 916 
Q 2375 1106 2209 1216 
Q 2094 1291 1634 1406 
Q 1016 1563 777 1677 
Q 538 1791 414 1992 
Q 291 2194 291 2438 
Q 291 2659 392 2848 
Q 494 3038 669 3163 
Q 800 3259 1026 3326 
Q 1253 3394 1513 3394 
Q 1903 3394 2198 3281 
Q 2494 3169 2634 2976 
Q 2775 2784 2828 2463 
L 2278 2388 
Q 2241 2644 2061 2787 
Q 1881 2931 1553 2931 
Q 1166 2931 1000 2803 
Q 834 2675 834 2503 
Q 834 2394 903 2306 
Q 972 2216 1119 2156 
Q 1203 2125 1616 2013 
Q 2213 1853 2448 1751 
Q 2684 1650 2818 1456 
Q 2953 1263 2953 975 
Q 2953 694 2789 445 
Q 2625 197 2315 61 
Q 2006 -75 1616 -75 
Q 969 -75 630 194 
Q 291 463 197 991 
z
" transform="scale(0.015625)"/>
      <path id="ArialMT-61" d="M 2588 409 
Q 2275 144 1986 34 
Q 1697 -75 1366 -75 
Q 819 -75 525 192 
Q 231 459 231 875 
Q 231 1119 342 1320 
Q 453 1522 633 1644 
Q 813 1766 1038 1828 
Q 1203 1872 1538 1913 
Q 2219 1994 2541 2106 
Q 2544 2222 2544 2253 
Q 2544 2597 2384 2738 
Q 2169 2928 1744 2928 
Q 1347 2928 1158 2789 
Q 969 2650 878 2297 
L 328 2372 
Q 403 2725 575 2942 
Q 747 3159 1072 3276 
Q 1397 3394 1825 3394 
Q 2250 3394 2515 3294 
Q 2781 3194 2906 3042 
Q 3031 2891 3081 2659 
Q 3109 2516 3109 2141 
L 3109 1391 
Q 3109 606 3145 398 
Q 3181 191 3288 0 
L 2700 0 
Q 2613 175 2588 409 
z
M 2541 1666 
Q 2234 1541 1622 1453 
Q 1275 1403 1131 1340 
Q 988 1278 909 1158 
Q 831 1038 831 891 
Q 831 666 1001 516 
Q 1172 366 1500 366 
Q 1825 366 2078 508 
Q 2331 650 2450 897 
Q 2541 1088 2541 1459 
L 2541 1666 
z
" transform="scale(0.015625)"/>
      <path id="ArialMT-6d" d="M 422 0 
L 422 3319 
L 925 3319 
L 925 2853 
Q 1081 3097 1340 3245 
Q 1600 3394 1931 3394 
Q 2300 3394 2536 3241 
Q 2772 3088 2869 2813 
Q 3263 3394 3894 3394 
Q 4388 3394 4653 3120 
Q 4919 2847 4919 2278 
L 4919 0 
L 4359 0 
L 4359 2091 
Q 4359 2428 4304 2576 
Q 4250 2725 4106 2815 
Q 3963 2906 3769 2906 
Q 3419 2906 3187 2673 
Q 2956 2441 2956 1928 
L 2956 0 
L 2394 0 
L 2394 2156 
Q 2394 2531 2256 2718 
Q 2119 2906 1806 2906 
Q 1569 2906 1367 2781 
Q 1166 2656 1075 2415 
Q 984 2175 984 1722 
L 984 0 
L 422 0 
z
" transform="scale(0.015625)"/>
      <path id="ArialMT-6c" d="M 409 0 
L 409 4581 
L 972 4581 
L 972 0 
L 409 0 
z
" transform="scale(0.015625)"/>
      <path id="ArialMT-65" d="M 2694 1069 
L 3275 997 
Q 3138 488 2766 206 
Q 2394 -75 1816 -75 
Q 1088 -75 661 373 
Q 234 822 234 1631 
Q 234 2469 665 2931 
Q 1097 3394 1784 3394 
Q 2450 3394 2872 2941 
Q 3294 2488 3294 1666 
Q 3294 1616 3291 1516 
L 816 1516 
Q 847 969 1125 678 
Q 1403 388 1819 388 
Q 2128 388 2347 550 
Q 2566 713 2694 1069 
z
M 847 1978 
L 2700 1978 
Q 2663 2397 2488 2606 
Q 2219 2931 1791 2931 
Q 1403 2931 1139 2672 
Q 875 2413 847 1978 
z
" transform="scale(0.015625)"/>
      <path id="ArialMT-20" transform="scale(0.015625)"/>
      <path id="ArialMT-64" d="M 2575 0 
L 2575 419 
Q 2259 -75 1647 -75 
Q 1250 -75 917 144 
Q 584 363 401 755 
Q 219 1147 219 1656 
Q 219 2153 384 2558 
Q 550 2963 881 3178 
Q 1213 3394 1622 3394 
Q 1922 3394 2156 3267 
Q 2391 3141 2538 2938 
L 2538 4581 
L 3097 4581 
L 3097 0 
L 2575 0 
z
M 797 1656 
Q 797 1019 1065 703 
Q 1334 388 1700 388 
Q 2069 388 2326 689 
Q 2584 991 2584 1609 
Q 2584 2291 2321 2609 
Q 2059 2928 1675 2928 
Q 1300 2928 1048 2622 
Q 797 2316 797 1656 
z
" transform="scale(0.015625)"/>
      <path id="ArialMT-74" d="M 1650 503 
L 1731 6 
Q 1494 -44 1306 -44 
Q 1000 -44 831 53 
Q 663 150 594 308 
Q 525 466 525 972 
L 525 2881 
L 113 2881 
L 113 3319 
L 525 3319 
L 525 4141 
L 1084 4478 
L 1084 3319 
L 1650 3319 
L 1650 2881 
L 1084 2881 
L 1084 941 
Q 1084 700 1114 631 
Q 1144 563 1211 522 
Q 1278 481 1403 481 
Q 1497 481 1650 503 
z
" transform="scale(0.015625)"/>
      <path id="ArialMT-6e" d="M 422 0 
L 422 3319 
L 928 3319 
L 928 2847 
Q 1294 3394 1984 3394 
Q 2284 3394 2536 3286 
Q 2788 3178 2913 3003 
Q 3038 2828 3088 2588 
Q 3119 2431 3119 2041 
L 3119 0 
L 2556 0 
L 2556 2019 
Q 2556 2363 2490 2533 
Q 2425 2703 2258 2804 
Q 2091 2906 1866 2906 
Q 1506 2906 1245 2678 
Q 984 2450 984 1813 
L 984 0 
L 422 0 
z
" transform="scale(0.015625)"/>
      <path id="ArialMT-63" d="M 2588 1216 
L 3141 1144 
Q 3050 572 2676 248 
Q 2303 -75 1759 -75 
Q 1078 -75 664 370 
Q 250 816 250 1647 
Q 250 2184 428 2587 
Q 606 2991 970 3192 
Q 1334 3394 1763 3394 
Q 2303 3394 2647 3120 
Q 2991 2847 3088 2344 
L 2541 2259 
Q 2463 2594 2264 2762 
Q 2066 2931 1784 2931 
Q 1359 2931 1093 2626 
Q 828 2322 828 1663 
Q 828 994 1084 691 
Q 1341 388 1753 388 
Q 2084 388 2306 591 
Q 2528 794 2588 1216 
z
" transform="scale(0.015625)"/>
      <path id="DejaVuSans-Oblique-73" d="M 3200 3397 
L 3091 2853 
Q 2863 2978 2609 3040 
Q 2356 3103 2088 3103 
Q 1634 3103 1373 2948 
Q 1113 2794 1113 2528 
Q 1113 2219 1719 2053 
Q 1766 2041 1788 2034 
L 1972 1978 
Q 2547 1819 2739 1644 
Q 2931 1469 2931 1166 
Q 2931 609 2489 259 
Q 2047 -91 1331 -91 
Q 1053 -91 747 -37 
Q 441 16 72 128 
L 184 722 
Q 500 559 806 475 
Q 1113 391 1394 391 
Q 1816 391 2080 572 
Q 2344 753 2344 1031 
Q 2344 1331 1650 1516 
L 1591 1531 
L 1394 1581 
Q 956 1697 753 1886 
Q 550 2075 550 2369 
Q 550 2928 970 3256 
Q 1391 3584 2113 3584 
Q 2397 3584 2667 3537 
Q 2938 3491 3200 3397 
z
" transform="scale(0.015625)"/>
     </defs>
     <use xlink:href="#ArialMT-54" transform="translate(0 0.421875)"/>
     <use xlink:href="#ArialMT-69" transform="translate(61.083984 0.421875)"/>
     <use xlink:href="#ArialMT-70" transform="translate(83.300781 0.421875)"/>
     <use xlink:href="#ArialMT-2d" transform="translate(138.916016 0.421875)"/>
     <use xlink:href="#ArialMT-73" transform="translate(172.216797 0.421875)"/>
     <use xlink:href="#ArialMT-61" transform="translate(222.216797 0.421875)"/>
     <use xlink:href="#ArialMT-6d" transform="translate(277.832031 0.421875)"/>
     <use xlink:href="#ArialMT-70" transform="translate(361.132812 0.421875)"/>
     <use xlink:href="#ArialMT-6c" transform="translate(416.748047 0.421875)"/>
     <use xlink:href="#ArialMT-65" transform="translate(438.964844 0.421875)"/>
     <use xlink:href="#ArialMT-20" transform="translate(494.580078 0.421875)"/>
     <use xlink:href="#ArialMT-64" transform="translate(522.363281 0.421875)"/>
     <use xlink:href="#ArialMT-69" transform="translate(577.978516 0.421875)"/>
     <use xlink:href="#ArialMT-73" transform="translate(600.195312 0.421875)"/>
     <use xlink:href="#ArialMT-74" transform="translate(650.195312 0.421875)"/>
     <use xlink:href="#ArialMT-61" transform="translate(677.978516 0.421875)"/>
     <use xlink:href="#ArialMT-6e" transform="translate(733.59375 0.421875)"/>
     <use xlink:href="#ArialMT-63" transform="translate(789.208984 0.421875)"/>
     <use xlink:href="#ArialMT-65" transform="translate(839.208984 0.421875)"/>
     <use xlink:href="#ArialMT-20" transform="translate(894.824219 0.421875)"/>
     <use xlink:href="#DejaVuSans-Oblique-73" transform="translate(922.607422 0.421875)"/>
    </g>
   </g>
   <g id="text_2">
    <!-- Force $F$ -->
    <g transform="translate(29.523391 202.46192) rotate(-90) scale(0.2 -0.2)">
     <defs>
      <path id="ArialMT-46" d="M 525 0 
L 525 4581 
L 3616 4581 
L 3616 4041 
L 1131 4041 
L 1131 2622 
L 3281 2622 
L 3281 2081 
L 1131 2081 
L 1131 0 
L 525 0 
z
" transform="scale(0.015625)"/>
      <path id="ArialMT-6f" d="M 213 1659 
Q 213 2581 725 3025 
Q 1153 3394 1769 3394 
Q 2453 3394 2887 2945 
Q 3322 2497 3322 1706 
Q 3322 1066 3130 698 
Q 2938 331 2570 128 
Q 2203 -75 1769 -75 
Q 1072 -75 642 372 
Q 213 819 213 1659 
z
M 791 1659 
Q 791 1022 1069 705 
Q 1347 388 1769 388 
Q 2188 388 2466 706 
Q 2744 1025 2744 1678 
Q 2744 2294 2464 2611 
Q 2184 2928 1769 2928 
Q 1347 2928 1069 2612 
Q 791 2297 791 1659 
z
" transform="scale(0.015625)"/>
      <path id="ArialMT-72" d="M 416 0 
L 416 3319 
L 922 3319 
L 922 2816 
Q 1116 3169 1280 3281 
Q 1444 3394 1641 3394 
Q 1925 3394 2219 3213 
L 2025 2691 
Q 1819 2813 1613 2813 
Q 1428 2813 1281 2702 
Q 1134 2591 1072 2394 
Q 978 2094 978 1738 
L 978 0 
L 416 0 
z
" transform="scale(0.015625)"/>
      <path id="DejaVuSans-Oblique-46" d="M 1081 4666 
L 3756 4666 
L 3653 4134 
L 1606 4134 
L 1338 2759 
L 3188 2759 
L 3084 2228 
L 1234 2228 
L 800 0 
L 172 0 
L 1081 4666 
z
" transform="scale(0.015625)"/>
     </defs>
     <use xlink:href="#ArialMT-46" transform="translate(0 0.09375)"/>
     <use xlink:href="#ArialMT-6f" transform="translate(61.083984 0.09375)"/>
     <use xlink:href="#ArialMT-72" transform="translate(116.699219 0.09375)"/>
     <use xlink:href="#ArialMT-63" transform="translate(150 0.09375)"/>
     <use xlink:href="#ArialMT-65" transform="translate(200 0.09375)"/>
     <use xlink:href="#ArialMT-20" transform="translate(255.615234 0.09375)"/>
     <use xlink:href="#DejaVuSans-Oblique-46" transform="translate(283.398438 0.09375)"/>
    </g>
   </g>
   <g id="line2d_7">
    <path d="M 99.210924 114.603472 
L 104.904658 112.016582 
L 110.926877 109.529618 
L 117.27758 107.148684 
L 124.066263 104.841955 
L 131.292926 102.621057 
L 139.067062 100.465315 
L 147.498169 98.362682 
L 156.476749 96.354219 
L 166.221794 94.404108 
L 176.842798 92.510141 
L 188.339761 90.689882 
L 200.822178 88.941107 
L 214.509039 87.251214 
L 229.509838 85.626376 
L 233.123169 85.265857 
L 233.123169 85.265857 
" clip-path="url(#p603ab83af9)" style="fill: none; stroke-dasharray: 2.6,2.6; stroke-dashoffset: 0; stroke: #f58518; stroke-width: 2.6"/>
   </g>
   <g id="line2d_8">
    <path d="M 99.117816 114.647861 
L 99.117816 164.600382 
" clip-path="url(#p603ab83af9)" style="fill: none; stroke-dasharray: 2.6,2.6; stroke-dashoffset: 0; stroke: #f58518; stroke-width: 2.6"/>
   </g>
   <g id="line2d_9">
    <path d="M 67.895387 204.990006 
L 71.399223 199.097793 
L 74.90306 193.632364 
L 78.516391 188.397575 
L 82.239217 183.387534 
L 86.071538 178.595726 
L 90.013354 174.015175 
L 94.174159 169.524631 
L 98.44446 165.246638 
L 99.101429 164.616021 
L 99.101429 164.616021 
" clip-path="url(#p603ab83af9)" style="fill: none; stroke-dasharray: 2.6,2.6; stroke-dashoffset: 0; stroke: #f58518; stroke-width: 2.6"/>
   </g>
   <g id="line2d_10">
    <path d="M 67.895387 204.990006 
L 71.399223 199.097793 
L 74.90306 193.632364 
L 78.516391 188.397575 
L 82.239217 183.387534 
L 86.071538 178.595726 
L 90.013354 174.015175 
L 94.174159 169.524631 
L 98.44446 165.246638 
L 102.824255 161.171729 
L 107.423041 157.199419 
L 112.131321 153.424701 
L 117.05859 149.75869 
L 122.20485 146.208362 
L 127.570099 142.778711 
L 133.154339 139.472994 
L 139.067062 136.235288 
L 145.198776 133.132443 
L 151.658974 130.113709 
L 154.177357 129.000439 
L 154.177357 129.000439 
" clip-path="url(#p603ab83af9)" style="fill: none; stroke-dasharray: 2.6,2.6; stroke-dashoffset: 3.9; stroke: #2ca02c; stroke-width: 2.6"/>
   </g>
   <g id="line2d_11">
    <path d="M 154.210131 128.986174 
L 154.210131 96.840757 
" clip-path="url(#p603ab83af9)" style="fill: none; stroke-dasharray: 2.6,2.6; stroke-dashoffset: 3.9; stroke: #2ca02c; stroke-width: 2.6"/>
   </g>
   <g id="line2d_12">
    <path d="M 154.286852 96.824071 
L 163.812907 94.865894 
L 174.214921 92.958357 
L 185.492894 91.12047 
L 197.756321 89.350838 
L 211.114697 87.650346 
L 225.787012 86.009761 
L 233.123169 85.265857 
L 233.123169 85.265857 
" clip-path="url(#p603ab83af9)" style="fill: none; stroke-dasharray: 2.6,2.6; stroke-dashoffset: 3.9; stroke: #2ca02c; stroke-width: 2.6"/>
   </g>
   <g id="legend_1">
    <g id="line2d_13">
     <path d="M 138.53875 197.327813 
L 150.43875 197.327813 
L 162.33875 197.327813 
" style="fill: none; stroke: #0004ff; stroke-width: 2.2; stroke-linecap: square"/>
    </g>
    <g id="text_3">
     <!-- Unoccupied -->
     <g transform="translate(173.53875 202.227813) scale(0.14 -0.14)">
      <defs>
       <path id="ArialMT-55" d="M 3500 4581 
L 4106 4581 
L 4106 1934 
Q 4106 1244 3950 837 
Q 3794 431 3386 176 
Q 2978 -78 2316 -78 
Q 1672 -78 1262 144 
Q 853 366 678 786 
Q 503 1206 503 1934 
L 503 4581 
L 1109 4581 
L 1109 1938 
Q 1109 1341 1220 1058 
Q 1331 775 1601 622 
Q 1872 469 2263 469 
Q 2931 469 3215 772 
Q 3500 1075 3500 1938 
L 3500 4581 
z
" transform="scale(0.015625)"/>
       <path id="ArialMT-75" d="M 2597 0 
L 2597 488 
Q 2209 -75 1544 -75 
Q 1250 -75 995 37 
Q 741 150 617 320 
Q 494 491 444 738 
Q 409 903 409 1263 
L 409 3319 
L 972 3319 
L 972 1478 
Q 972 1038 1006 884 
Q 1059 663 1231 536 
Q 1403 409 1656 409 
Q 1909 409 2131 539 
Q 2353 669 2445 892 
Q 2538 1116 2538 1541 
L 2538 3319 
L 3100 3319 
L 3100 0 
L 2597 0 
z
" transform="scale(0.015625)"/>
      </defs>
      <use xlink:href="#ArialMT-55"/>
      <use xlink:href="#ArialMT-6e" transform="translate(72.216797 0)"/>
      <use xlink:href="#ArialMT-6f" transform="translate(127.832031 0)"/>
      <use xlink:href="#ArialMT-63" transform="translate(183.447266 0)"/>
      <use xlink:href="#ArialMT-63" transform="translate(233.447266 0)"/>
      <use xlink:href="#ArialMT-75" transform="translate(283.447266 0)"/>
      <use xlink:href="#ArialMT-70" transform="translate(339.0625 0)"/>
      <use xlink:href="#ArialMT-69" transform="translate(394.677734 0)"/>
      <use xlink:href="#ArialMT-65" transform="translate(416.894531 0)"/>
      <use xlink:href="#ArialMT-64" transform="translate(472.509766 0)"/>
     </g>
    </g>
    <g id="line2d_14">
     <path d="M 138.53875 217.310625 
L 150.43875 217.310625 
L 162.33875 217.310625 
" style="fill: none; stroke: #ff0202; stroke-width: 2.2; stroke-linecap: square"/>
    </g>
    <g id="text_4">
     <!-- Occupied -->
     <g transform="translate(173.53875 222.210625) scale(0.14 -0.14)">
      <defs>
       <path id="ArialMT-4f" d="M 309 2231 
Q 309 3372 921 4017 
Q 1534 4663 2503 4663 
Q 3138 4663 3647 4359 
Q 4156 4056 4423 3514 
Q 4691 2972 4691 2284 
Q 4691 1588 4409 1038 
Q 4128 488 3612 205 
Q 3097 -78 2500 -78 
Q 1853 -78 1343 234 
Q 834 547 571 1087 
Q 309 1628 309 2231 
z
M 934 2222 
Q 934 1394 1379 917 
Q 1825 441 2497 441 
Q 3181 441 3623 922 
Q 4066 1403 4066 2288 
Q 4066 2847 3877 3264 
Q 3688 3681 3323 3911 
Q 2959 4141 2506 4141 
Q 1863 4141 1398 3698 
Q 934 3256 934 2222 
z
" transform="scale(0.015625)"/>
      </defs>
      <use xlink:href="#ArialMT-4f"/>
      <use xlink:href="#ArialMT-63" transform="translate(77.783203 0)"/>
      <use xlink:href="#ArialMT-63" transform="translate(127.783203 0)"/>
      <use xlink:href="#ArialMT-75" transform="translate(177.783203 0)"/>
      <use xlink:href="#ArialMT-70" transform="translate(233.398438 0)"/>
      <use xlink:href="#ArialMT-69" transform="translate(289.013672 0)"/>
      <use xlink:href="#ArialMT-65" transform="translate(311.230469 0)"/>
      <use xlink:href="#ArialMT-64" transform="translate(366.845703 0)"/>
     </g>
    </g>
    <g id="line2d_15">
     <path d="M 138.53875 237.114063 
L 150.43875 237.114063 
L 162.33875 237.114063 
" style="fill: none; stroke-dasharray: 2.2,2.2; stroke-dashoffset: 0; stroke: #f58518; stroke-width: 2.2"/>
    </g>
    <g id="text_5">
     <!-- Approach path -->
     <g transform="translate(173.53875 242.014063) scale(0.14 -0.14)">
      <defs>
       <path id="ArialMT-41" d="M -9 0 
L 1750 4581 
L 2403 4581 
L 4278 0 
L 3588 0 
L 3053 1388 
L 1138 1388 
L 634 0 
L -9 0 
z
M 1313 1881 
L 2866 1881 
L 2388 3150 
Q 2169 3728 2063 4100 
Q 1975 3659 1816 3225 
L 1313 1881 
z
" transform="scale(0.015625)"/>
       <path id="ArialMT-68" d="M 422 0 
L 422 4581 
L 984 4581 
L 984 2938 
Q 1378 3394 1978 3394 
Q 2347 3394 2619 3248 
Q 2891 3103 3008 2847 
Q 3125 2591 3125 2103 
L 3125 0 
L 2563 0 
L 2563 2103 
Q 2563 2525 2380 2717 
Q 2197 2909 1863 2909 
Q 1613 2909 1392 2779 
Q 1172 2650 1078 2428 
Q 984 2206 984 1816 
L 984 0 
L 422 0 
z
" transform="scale(0.015625)"/>
      </defs>
      <use xlink:href="#ArialMT-41"/>
      <use xlink:href="#ArialMT-70" transform="translate(66.699219 0)"/>
      <use xlink:href="#ArialMT-70" transform="translate(122.314453 0)"/>
      <use xlink:href="#ArialMT-72" transform="translate(177.929688 0)"/>
      <use xlink:href="#ArialMT-6f" transform="translate(211.230469 0)"/>
      <use xlink:href="#ArialMT-61" transform="translate(266.845703 0)"/>
      <use xlink:href="#ArialMT-63" transform="translate(322.460938 0)"/>
      <use xlink:href="#ArialMT-68" transform="translate(372.460938 0)"/>
      <use xlink:href="#ArialMT-20" transform="translate(428.076172 0)"/>
      <use xlink:href="#ArialMT-70" transform="translate(455.859375 0)"/>
      <use xlink:href="#ArialMT-61" transform="translate(511.474609 0)"/>
      <use xlink:href="#ArialMT-74" transform="translate(567.089844 0)"/>
      <use xlink:href="#ArialMT-68" transform="translate(594.873047 0)"/>
     </g>
    </g>
    <g id="line2d_16">
     <path d="M 138.53875 256.9175 
L 150.43875 256.9175 
L 162.33875 256.9175 
" style="fill: none; stroke-dasharray: 2.2,2.2; stroke-dashoffset: 3.3; stroke: #2ca02c; stroke-width: 2.2"/>
    </g>
    <g id="text_6">
     <!-- Retract path -->
     <g transform="translate(173.53875 261.8175) scale(0.14 -0.14)">
      <defs>
       <path id="ArialMT-52" d="M 503 0 
L 503 4581 
L 2534 4581 
Q 3147 4581 3465 4457 
Q 3784 4334 3975 4021 
Q 4166 3709 4166 3331 
Q 4166 2844 3850 2509 
Q 3534 2175 2875 2084 
Q 3116 1969 3241 1856 
Q 3506 1613 3744 1247 
L 4541 0 
L 3778 0 
L 3172 953 
Q 2906 1366 2734 1584 
Q 2563 1803 2427 1890 
Q 2291 1978 2150 2013 
Q 2047 2034 1813 2034 
L 1109 2034 
L 1109 0 
L 503 0 
z
M 1109 2559 
L 2413 2559 
Q 2828 2559 3062 2645 
Q 3297 2731 3419 2920 
Q 3541 3109 3541 3331 
Q 3541 3656 3305 3865 
Q 3069 4075 2559 4075 
L 1109 4075 
L 1109 2559 
z
" transform="scale(0.015625)"/>
      </defs>
      <use xlink:href="#ArialMT-52"/>
      <use xlink:href="#ArialMT-65" transform="translate(72.216797 0)"/>
      <use xlink:href="#ArialMT-74" transform="translate(127.832031 0)"/>
      <use xlink:href="#ArialMT-72" transform="translate(155.615234 0)"/>
      <use xlink:href="#ArialMT-61" transform="translate(188.916016 0)"/>
      <use xlink:href="#ArialMT-63" transform="translate(244.53125 0)"/>
      <use xlink:href="#ArialMT-74" transform="translate(294.53125 0)"/>
      <use xlink:href="#ArialMT-20" transform="translate(322.314453 0)"/>
      <use xlink:href="#ArialMT-70" transform="translate(350.097656 0)"/>
      <use xlink:href="#ArialMT-61" transform="translate(405.712891 0)"/>
      <use xlink:href="#ArialMT-74" transform="translate(461.328125 0)"/>
      <use xlink:href="#ArialMT-68" transform="translate(489.111328 0)"/>
     </g>
    </g>
   </g>
   <g id="line2d_17">
    <defs>
     <path id="md26afcc879" d="M 0 3.5 
C 0.928211 3.5 1.81853 3.131218 2.474874 2.474874 
C 3.131218 1.81853 3.5 0.928211 3.5 0 
C 3.5 -0.928211 3.131218 -1.81853 2.474874 -2.474874 
C 1.81853 -3.131218 0.928211 -3.5 0 -3.5 
C -0.928211 -3.5 -1.81853 -3.131218 -2.474874 -2.474874 
C -3.131218 -1.81853 -3.5 -0.928211 -3.5 0 
C -3.5 0.928211 -3.131218 1.81853 -2.474874 2.474874 
C -1.81853 3.131218 -0.928211 3.5 0 3.5 
z
" style="stroke: #000000"/>
    </defs>
    <g clip-path="url(#p603ab83af9)">
     <use xlink:href="#md26afcc879" x="67.849205" y="205.070732" style="stroke: #000000"/>
    </g>
   </g>
   <g id="line2d_18">
    <g clip-path="url(#p603ab83af9)">
     <use xlink:href="#md26afcc879" x="233.126148" y="85.265565" style="stroke: #000000"/>
    </g>
   </g>
   <g id="patch_4">
    <path d="M 137.682436 107.337877 
Q 126.663973 111.412202 117.952516 114.633459 
" style="fill: none; stroke: #f58518; stroke-width: 2.2; stroke-linecap: round"/>
    <path d="M 125.954178 115.512899 
L 117.952516 114.633459 
L 123.457065 108.759794 
z
" style="fill: #f58518; stroke: #f58518; stroke-width: 2.2; stroke-linecap: round"/>
   </g>
   <g id="patch_5">
    <path d="M 115.645511 143.034287 
Q 126.663973 136.75016 135.545827 131.684598 
" style="fill: none; stroke: #2ca02c; stroke-width: 2.2; stroke-linecap: round"/>
    <path d="M 127.508008 132.124446 
L 135.545827 131.684598 
L 131.075014 138.378762 
z
" style="fill: #2ca02c; stroke: #2ca02c; stroke-width: 2.2; stroke-linecap: round"/>
   </g>
   <g id="PathCollection_1">
    <path d="M 99.117816 145.948677 
L 105.442372 133.299566 
L 92.793261 133.299566 
z
" style="fill: #f58518"/>
   </g>
   <g id="PathCollection_2">
    <path d="M 154.210131 106.58891 
L 147.885575 119.238021 
L 160.534686 119.238021 
z
" style="fill: #2ca02c"/>
   </g>
   <g id="patch_6">
    <path d="M 8.885539 35.3376 
Q 143.04277 35.3376 275.522949 35.3376 
" style="fill: none; stroke: #000000; stroke-width: 1.5; stroke-linecap: round"/>
    <path d="M 267.522949 31.3376 
L 275.522949 35.3376 
L 267.522949 39.3376 
z
" style="stroke: #000000; stroke-width: 1.5; stroke-linecap: round"/>
   </g>
   <g id="patch_7">
    <path d="M 38.665169 10.872816 
Q 38.665169 144.036408 38.665169 275.522949 
" style="fill: none; stroke: #000000; stroke-width: 1.5; stroke-linecap: round"/>
    <path d="M 42.665169 267.522949 
L 38.665169 275.522949 
L 34.665169 267.522949 
z
" style="stroke: #000000; stroke-width: 1.5; stroke-linecap: round"/>
   </g>
  </g>
 </g>
 <defs>
  <clipPath id="p603ab83af9">
   <rect x="38.665169" y="35.3376" width="238.534831" height="241.8624"/>
  </clipPath>
 </defs>
</svg>
