<?xml version="1.0" encoding="utf-8" standalone="no"?>
<!DOCTYPE svg PUBLIC "-//W3C//DTD SVG 1.1//EN"
  "http://www.w3.org/Graphics/SVG/1.1/DTD/svg11.dtd">
<svg xmlns:xlink="http://www.w3.org/1999/xlink" width="288pt" height="288pt" viewBox="0 0 288 288" xmlns="http://www.w3.org/2000/svg" version="1.1">
 <metadata>
  <rdf:RDF xmlns:dc="http://purl.org/dc/elements/1.1/" xmlns:cc="http://creativecommons.org/ns#" xmlns:rdf="http://www.w3.org/1999/02/22-rdf-syntax-ns#">
   <cc:Work>
    <dc:type rdf:resource="http://purl.org/dc/dcmitype/StillImage"/>
    <dc:date>2026-05-05T17:28:01.732437</dc:date>
    <dc:format>image/svg+xml</dc:format>
    <dc:creator>
     <cc:Agent>
      <dc:title>Matplotlib v3.10.0, https://matplotlib.org/</dc:title>
     </cc:Agent>
    </dc:creator>
   </cc:Work>
  </rdf:RDF>
 </metadata>
 <defs>
  <style type="text/css">*{stroke-linejoin: round; stroke-linecap: butt}</style>
 </defs>
 <g id="figure_1">
  <g id="patch_1">
   <path d="M 0 288 
L 288 288 
L 288 0 
L 0 0 
L 0 288 
z
" style="fill: none; opacity: 0"/>
  </g>
  <g id="axes_1">
   <g id="patch_2">
    <path d="M 38.253875 277.2 
L 277.2 277.2 
L 277.2 35.3376 
L 38.253875 35.3376 
L 38.253875 277.2 
z
" style="fill: none; opacity: 0"/>
   </g>
   <g id="patch_3">
    <path d="M 101.443809 104.861948 
L 101.552773 104.80932 
L 101.661736 104.75679 
L 101.7707 104.704359 
L 101.879663 104.652026 
L 101.988626 104.599791 
L 102.09759 104.547654 
L 102.206553 104.495614 
L 102.315516 104.443671 
L 102.42448 104.391825 
L 102.533443 104.340075 
L 102.642407 104.288422 
L 102.75137 104.236865 
L 102.860333 104.185403 
L 102.969297 104.134038 
L 103.07826 104.082767 
L 103.187224 104.031592 
L 103.296187 103.980511 
L 103.40515 103.929525 
L 103.514114 103.878633 
L 103.623077 103.827835 
L 103.732041 103.777131 
L 103.841004 103.726521 
L 103.949967 103.676004 
L 104.058931 103.62558 
L 104.167894 103.575248 
L 104.276858 103.52501 
L 104.385821 103.474863 
L 104.494784 103.424809 
L 104.603748 103.374846 
L 104.712711 103.324975 
L 104.821675 103.275195 
L 104.930638 103.225507 
L 105.039601 103.175909 
L 105.148565 103.126402 
L 105.257528 103.076985 
L 105.366492 103.027659 
L 105.475455 102.978422 
L 105.584418 102.929275 
L 105.693382 102.880217 
L 105.802345 102.831249 
L 105.911309 102.78237 
L 106.020272 102.733579 
L 106.129235 102.684877 
L 106.238199 102.636263 
L 106.347162 102.587737 
L 106.456126 102.539299 
L 106.565089 102.490949 
L 106.674052 102.442686 
L 106.783016 102.39451 
L 106.891979 102.34642 
L 107.000943 102.298418 
L 107.109906 102.250502 
L 107.218869 102.202672 
L 107.327833 102.154929 
L 107.436796 102.107271 
L 107.545759 102.059699 
L 107.654723 102.012212 
L 107.763686 101.96481 
L 107.87265 101.917493 
L 107.981613 101.87026 
L 108.090576 101.823113 
L 108.19954 101.776049 
L 108.308503 101.72907 
L 108.417467 101.682174 
L 108.52643 101.635362 
L 108.635393 101.588633 
L 108.744357 101.541988 
L 108.85332 101.495425 
L 108.962284 101.448945 
L 109.071247 101.402548 
L 109.18021 101.356233 
L 109.289174 101.31 
L 109.398137 101.263849 
L 109.507101 101.21778 
L 109.616064 101.171792 
L 109.725027 101.125886 
L 109.833991 101.08006 
L 109.942954 101.034316 
L 110.051918 100.988652 
L 110.160881 100.943069 
L 110.269844 100.897565 
L 110.378808 100.852142 
L 110.487771 100.806799 
L 110.596735 100.761536 
L 110.705698 100.716352 
L 110.814661 100.671247 
L 110.923625 100.626221 
L 111.032588 100.581274 
L 111.141552 100.536406 
L 111.250515 100.491616 
L 111.359478 100.446904 
L 111.468442 100.402271 
L 111.577405 100.357715 
L 111.686369 100.313237 
L 111.795332 100.268837 
L 111.904295 100.224513 
L 112.013259 100.180267 
L 112.122222 100.136098 
L 112.231186 100.092006 
L 112.340149 100.04799 
L 112.449112 100.00405 
L 112.558076 99.960186 
L 112.667039 99.916399 
L 112.776002 99.872687 
L 112.884966 99.82905 
L 112.993929 99.785489 
L 113.102893 99.742004 
L 113.211856 99.698593 
L 113.320819 99.655257 
L 113.429783 99.611996 
L 113.538746 99.568809 
L 113.64771 99.525696 
L 113.756673 99.482658 
L 113.865636 99.439693 
L 113.9746 99.396802 
L 114.083563 99.353985 
L 114.192527 99.311241 
L 114.30149 99.26857 
L 114.410453 99.225972 
L 114.519417 99.183447 
L 114.62838 99.140995 
L 114.737344 99.098615 
L 114.846307 99.056307 
L 114.95527 99.014071 
L 115.064234 98.971908 
L 115.173197 98.929816 
L 115.282161 98.887796 
L 115.391124 98.845847 
L 115.500087 98.803969 
L 115.609051 98.762162 
L 115.718014 98.720426 
L 115.826978 98.678761 
L 115.935941 98.637167 
L 116.044904 98.595642 
L 116.153868 98.554188 
L 116.262831 98.512804 
L 116.371795 98.47149 
L 116.480758 98.430246 
L 116.589721 98.389071 
L 116.698685 98.347965 
L 116.807648 98.306928 
L 116.916612 98.265961 
L 117.025575 98.225062 
L 117.134538 98.184232 
L 117.243502 98.143471 
L 117.352465 98.102778 
L 117.461429 98.062153 
L 117.570392 98.021596 
L 117.679355 97.981107 
L 117.788319 97.940685 
L 117.897282 97.900331 
L 118.006245 97.860045 
L 118.115209 97.819825 
L 118.224172 97.779673 
L 118.333136 97.739588 
L 118.442099 97.699569 
L 118.551062 97.659617 
L 118.660026 97.619731 
L 118.768989 97.579911 
L 118.877953 97.540158 
L 118.986916 97.50047 
L 119.095879 97.460849 
L 119.204843 97.421292 
L 119.313806 97.381802 
L 119.42277 97.342376 
L 119.531733 97.303016 
L 119.640696 97.263721 
L 119.74966 97.22449 
L 119.858623 97.185325 
L 119.967587 97.146223 
L 120.07655 97.107186 
L 120.185513 97.068214 
L 120.294477 97.029305 
L 120.40344 96.990461 
L 120.512404 96.95168 
L 120.621367 96.912962 
L 120.73033 96.874309 
L 120.839294 96.835718 
L 120.948257 96.797191 
L 121.057221 96.758726 
L 121.166184 96.720325 
L 121.275147 96.681986 
L 121.384111 96.64371 
L 121.493074 96.605496 
L 121.602038 96.567345 
L 121.711001 96.529256 
L 121.819964 96.491228 
L 121.928928 96.453263 
L 122.037891 96.415359 
L 122.146855 96.377517 
L 122.255818 96.339736 
L 122.364781 96.302016 
L 122.473745 96.264358 
L 122.582708 96.226761 
L 122.691672 96.189224 
L 122.800635 96.151748 
L 122.909598 96.114333 
L 123.018562 96.076978 
L 123.127525 96.039683 
L 123.236489 96.002449 
L 123.345452 95.965274 
L 123.454415 95.92816 
L 123.563379 95.891105 
L 123.672342 95.854109 
L 123.781305 95.817174 
L 123.890269 95.780297 
L 123.999232 95.74348 
L 124.108196 95.706721 
L 124.217159 95.670022 
L 124.326122 95.633381 
L 124.435086 95.596799 
L 124.544049 95.560275 
L 124.653013 95.52381 
L 124.761976 95.487403 
L 124.870939 95.451054 
L 124.979903 95.414763 
L 125.088866 95.37853 
L 125.19783 95.342355 
L 125.306793 95.306237 
L 125.415756 95.270177 
L 125.52472 95.234173 
L 125.633683 95.198227 
L 125.742647 95.162338 
L 125.85161 95.126506 
L 125.960573 95.090731 
L 126.069537 95.055013 
L 126.1785 95.019351 
L 126.287464 94.983745 
L 126.396427 94.948195 
L 126.50539 94.912702 
L 126.614354 94.877265 
L 126.723317 94.841883 
L 126.832281 94.806558 
L 126.941244 94.771288 
L 127.050207 94.736073 
L 127.159171 94.700914 
L 127.268134 94.66581 
L 127.377098 94.630761 
L 127.486061 94.595767 
L 127.595024 94.560829 
L 127.703988 94.525944 
L 127.812951 94.491115 
L 127.921915 94.45634 
L 128.030878 94.421619 
L 128.139841 94.386953 
L 128.248805 94.352341 
L 128.357768 94.317782 
L 128.466732 94.283278 
L 128.575695 94.248828 
L 128.684658 94.214431 
L 128.793622 94.180087 
L 128.902585 94.145797 
L 129.011548 94.111561 
L 129.120512 94.077377 
L 129.229475 94.043247 
L 129.338439 94.009169 
L 129.447402 93.975145 
L 129.556365 93.941173 
L 129.665329 93.907253 
L 129.774292 93.873386 
L 129.883256 93.839572 
L 129.992219 93.80581 
L 130.101182 93.772099 
L 130.210146 93.738441 
L 130.319109 93.704835 
L 130.428073 93.67128 
L 130.537036 93.637778 
L 130.645999 93.604326 
L 130.754963 93.570926 
L 130.863926 93.537578 
L 130.97289 93.504281 
L 131.081853 93.471034 
L 131.190816 93.437839 
L 131.29978 93.404695 
L 131.408743 93.371601 
L 131.517707 93.338558 
L 131.62667 93.305565 
L 131.735633 93.272623 
L 131.844597 93.239732 
L 131.95356 93.20689 
L 132.062524 93.174099 
L 132.171487 93.141357 
L 132.28045 93.108665 
L 132.389414 93.076024 
L 132.498377 93.043431 
L 132.607341 93.010889 
L 132.716304 92.978395 
L 132.825267 92.945952 
L 132.934231 92.913557 
L 133.043194 92.881211 
L 133.152158 92.848915 
L 133.261121 92.816667 
L 133.370084 92.784468 
L 133.479048 92.752318 
L 133.588011 92.720216 
L 133.696975 92.688163 
L 133.805938 92.656158 
L 133.914901 92.624202 
L 134.023865 92.592294 
L 134.132828 92.560433 
L 134.241791 92.528621 
L 134.350755 92.496856 
L 134.459718 92.46514 
L 134.568682 92.43347 
L 134.677645 92.401849 
L 134.786608 92.370275 
L 134.895572 92.338748 
L 135.004535 92.307268 
L 135.113499 92.275836 
L 135.222462 92.24445 
L 135.331425 92.213112 
L 135.440389 92.18182 
L 135.549352 92.150575 
L 135.658316 92.119377 
L 135.767279 92.088225 
L 135.876242 92.05712 
L 135.985206 92.026061 
L 136.094169 91.995048 
L 136.203133 91.964081 
L 136.312096 91.933161 
L 136.421059 91.902286 
L 136.530023 91.871457 
L 136.638986 91.840674 
L 136.74795 91.809936 
L 136.856913 91.779244 
L 136.965876 91.748598 
L 137.07484 91.717996 
L 137.183803 91.68744 
L 137.292767 91.65693 
L 137.40173 91.626464 
L 137.510693 91.596043 
L 137.619657 91.565667 
L 137.72862 91.535336 
L 137.837584 91.50505 
L 137.946547 91.474808 
L 138.05551 91.44461 
L 138.164474 91.414457 
L 138.273437 91.384348 
L 138.382401 91.354284 
L 138.491364 91.324264 
L 138.600327 91.294287 
L 138.709291 91.264355 
L 138.818254 91.234466 
L 138.927218 91.204621 
L 139.036181 91.17482 
L 139.145144 91.145062 
L 139.254108 91.115348 
L 139.363071 91.085677 
L 139.472035 91.05605 
L 139.580998 91.026465 
L 139.689961 90.996924 
L 139.798925 90.967426 
L 139.907888 90.937971 
L 140.016851 90.908558 
L 140.125815 90.879188 
L 140.234778 90.849861 
L 140.343742 90.820577 
L 140.452705 90.791335 
L 140.561668 90.762135 
L 140.670632 90.732978 
L 140.779595 90.703863 
L 140.888559 90.674789 
L 140.997522 90.645758 
L 141.106485 90.616769 
L 141.215449 90.587822 
L 141.324412 90.558917 
L 141.433376 90.530053 
L 141.542339 90.501231 
L 141.651302 90.47245 
L 141.760266 90.443711 
L 141.869229 90.415013 
L 141.978193 90.386357 
L 142.087156 90.357741 
L 142.196119 90.329167 
L 142.305083 90.300634 
L 142.414046 90.272141 
L 142.52301 90.24369 
L 142.631973 90.215279 
L 142.740936 90.186909 
L 142.8499 90.158579 
L 142.958863 90.13029 
L 143.067827 90.102042 
L 143.17679 90.073833 
L 143.285753 90.045665 
L 143.394717 90.017537 
L 143.50368 89.989449 
L 143.612644 89.961402 
L 143.721607 89.933394 
L 143.83057 89.905426 
L 143.939534 89.877497 
L 144.048497 89.849609 
L 144.157461 89.82176 
L 144.266424 89.79395 
L 144.375387 89.76618 
L 144.484351 89.738449 
L 144.593314 89.710758 
L 144.702278 89.683106 
L 144.811241 89.655492 
L 144.920204 89.627918 
L 145.029168 89.600383 
L 145.138131 89.572887 
L 145.247094 89.545429 
L 145.356058 89.518011 
L 145.465021 89.49063 
L 145.573985 89.463289 
L 145.682948 89.435986 
L 145.791911 89.408721 
L 145.900875 89.381495 
L 146.009838 89.354306 
L 146.118802 89.327157 
L 146.227765 89.300045 
L 146.336728 89.272971 
L 146.445692 89.245935 
L 146.554655 89.218937 
L 146.663619 89.191977 
L 146.772582 89.165054 
L 146.881545 89.138169 
L 146.990509 89.111322 
L 147.099472 89.084512 
L 147.208436 89.05774 
L 147.317399 89.031005 
L 147.426362 89.004307 
L 147.535326 88.977646 
L 147.644289 88.951023 
L 147.753253 88.924436 
L 147.862216 88.897887 
L 147.971179 88.871374 
L 148.080143 88.844898 
L 148.189106 88.818459 
L 148.29807 88.792057 
L 148.407033 88.765691 
L 148.515996 88.739361 
L 148.62496 88.713069 
L 148.733923 88.686812 
L 148.842887 88.660592 
L 148.95185 88.634408 
L 149.060813 88.60826 
L 149.169777 88.582149 
L 149.27874 88.556073 
L 149.387704 88.530033 
L 149.496667 88.504029 
L 149.60563 88.478061 
L 149.714594 88.452129 
L 149.823557 88.426232 
L 149.932521 88.400371 
L 150.041484 88.374546 
L 150.150447 88.348756 
L 150.259411 88.323001 
L 150.368374 88.297282 
L 150.477337 88.271598 
L 150.586301 88.245949 
L 150.695264 88.220335 
L 150.804228 88.194756 
L 150.913191 88.169212 
L 151.022154 88.143703 
L 151.131118 88.118229 
L 151.240081 88.09279 
L 151.349045 88.067385 
L 151.458008 88.042015 
L 151.566971 88.016679 
L 151.675935 87.991378 
L 151.784898 87.966112 
L 151.893862 87.940879 
L 152.002825 87.915681 
L 152.111788 87.890518 
L 152.220752 87.865388 
L 152.329715 87.840293 
L 152.438679 87.815231 
L 152.547642 87.790204 
L 152.656605 87.76521 
L 152.765569 87.74025 
L 152.874532 87.715324 
L 152.983496 87.690432 
L 153.092459 87.665573 
L 153.201422 87.640748 
L 153.310386 87.615956 
L 153.419349 87.591198 
L 153.528313 87.566473 
L 153.637276 87.541781 
L 153.746239 87.517123 
L 153.855203 87.492498 
L 153.964166 87.467906 
L 154.07313 87.443346 
L 154.182093 87.41882 
L 154.291056 87.394327 
L 154.40002 87.369867 
L 154.508983 87.345439 
L 154.617947 87.321045 
L 154.72691 87.296682 
L 154.835873 87.272353 
L 154.944837 87.248056 
L 155.0538 87.223791 
L 155.162764 87.199559 
L 155.271727 87.175359 
L 155.38069 87.151192 
L 155.489654 87.127057 
L 155.598617 87.102954 
L 155.70758 87.078883 
L 155.816544 87.054844 
L 155.816544 87.054844 
L 155.816544 87.461748 
L 155.816544 87.868652 
L 155.816544 88.275556 
L 155.816544 88.68246 
L 155.816544 89.089364 
L 155.816544 89.496268 
L 155.816544 89.903172 
L 155.816544 90.310076 
L 155.816544 90.71698 
L 155.816544 91.123884 
L 155.816544 91.530788 
L 155.816544 91.937692 
L 155.816544 92.344596 
L 155.816544 92.7515 
L 155.816544 93.158404 
L 155.816544 93.565308 
L 155.816544 93.972212 
L 155.816544 94.379116 
L 155.816544 94.78602 
L 155.816544 95.192924 
L 155.816544 95.599828 
L 155.816544 96.006732 
L 155.816544 96.413636 
L 155.816544 96.82054 
L 155.816544 97.227444 
L 155.816544 97.634348 
L 155.816544 98.041252 
L 155.816544 98.448156 
L 155.816544 98.85506 
L 155.816544 99.261964 
L 155.816544 99.668868 
L 155.816544 100.075772 
L 155.816544 100.482676 
L 155.816544 100.88958 
L 155.816544 101.296484 
L 155.816544 101.703388 
L 155.816544 102.110292 
L 155.816544 102.517196 
L 155.816544 102.9241 
L 155.816544 103.331004 
L 155.816544 103.737908 
L 155.816544 104.144812 
L 155.816544 104.551716 
L 155.816544 104.95862 
L 155.816544 105.365524 
L 155.816544 105.772428 
L 155.816544 106.179332 
L 155.816544 106.586236 
L 155.816544 106.99314 
L 155.816544 107.400044 
L 155.816544 107.806948 
L 155.816544 108.213852 
L 155.816544 108.620756 
L 155.816544 109.02766 
L 155.816544 109.434564 
L 155.816544 109.841468 
L 155.816544 110.248372 
L 155.816544 110.655276 
L 155.816544 111.06218 
L 155.816544 111.469084 
L 155.816544 111.875988 
L 155.816544 112.282892 
L 155.816544 112.689796 
L 155.816544 113.0967 
L 155.816544 113.503604 
L 155.816544 113.910508 
L 155.816544 114.317412 
L 155.816544 114.724316 
L 155.816544 115.13122 
L 155.816544 115.538124 
L 155.816544 115.945028 
L 155.816544 116.351932 
L 155.816544 116.758836 
L 155.816544 117.16574 
L 155.816544 117.572644 
L 155.816544 117.979548 
L 155.816544 118.386452 
L 155.816544 118.793356 
L 155.816544 119.20026 
L 155.816544 119.20026 
L 155.70758 119.248338 
L 155.598617 119.29648 
L 155.489654 119.344686 
L 155.38069 119.392957 
L 155.271727 119.441292 
L 155.162764 119.489691 
L 155.0538 119.538155 
L 154.944837 119.586684 
L 154.835873 119.635278 
L 154.72691 119.683938 
L 154.617947 119.732662 
L 154.508983 119.781451 
L 154.40002 119.830307 
L 154.291056 119.879227 
L 154.182093 119.928213 
L 154.07313 119.977266 
L 153.964166 120.026384 
L 153.855203 120.075568 
L 153.746239 120.124818 
L 153.637276 120.174135 
L 153.528313 120.223518 
L 153.419349 120.272968 
L 153.310386 120.322485 
L 153.201422 120.372068 
L 153.092459 120.421719 
L 152.983496 120.471436 
L 152.874532 120.521221 
L 152.765569 120.571073 
L 152.656605 120.620993 
L 152.547642 120.67098 
L 152.438679 120.721035 
L 152.329715 120.771158 
L 152.220752 120.821349 
L 152.111788 120.871608 
L 152.002825 120.921936 
L 151.893862 120.972331 
L 151.784898 121.022796 
L 151.675935 121.073329 
L 151.566971 121.123931 
L 151.458008 121.174602 
L 151.349045 121.225342 
L 151.240081 121.276152 
L 151.131118 121.327031 
L 151.022154 121.377979 
L 150.913191 121.428997 
L 150.804228 121.480084 
L 150.695264 121.531242 
L 150.586301 121.58247 
L 150.477337 121.633768 
L 150.368374 121.685136 
L 150.259411 121.736575 
L 150.150447 121.788084 
L 150.041484 121.839664 
L 149.932521 121.891315 
L 149.823557 121.943038 
L 149.714594 121.994831 
L 149.60563 122.046695 
L 149.496667 122.098631 
L 149.387704 122.150639 
L 149.27874 122.202719 
L 149.169777 122.25487 
L 149.060813 122.307093 
L 148.95185 122.359389 
L 148.842887 122.411757 
L 148.733923 122.464197 
L 148.62496 122.51671 
L 148.515996 122.569296 
L 148.407033 122.621954 
L 148.29807 122.674686 
L 148.189106 122.727491 
L 148.080143 122.780369 
L 147.971179 122.833321 
L 147.862216 122.886346 
L 147.753253 122.939445 
L 147.644289 122.992618 
L 147.535326 123.045865 
L 147.426362 123.099186 
L 147.317399 123.152582 
L 147.208436 123.206052 
L 147.099472 123.259597 
L 146.990509 123.313217 
L 146.881545 123.366911 
L 146.772582 123.420681 
L 146.663619 123.474526 
L 146.554655 123.528447 
L 146.445692 123.582443 
L 146.336728 123.636514 
L 146.227765 123.690662 
L 146.118802 123.744886 
L 146.009838 123.799186 
L 145.900875 123.853562 
L 145.791911 123.908015 
L 145.682948 123.962544 
L 145.573985 124.01715 
L 145.465021 124.071833 
L 145.356058 124.126594 
L 145.247094 124.181431 
L 145.138131 124.236346 
L 145.029168 124.291339 
L 144.920204 124.346409 
L 144.811241 124.401557 
L 144.702278 124.456784 
L 144.593314 124.512088 
L 144.484351 124.567471 
L 144.375387 124.622933 
L 144.266424 124.678473 
L 144.157461 124.734092 
L 144.048497 124.78979 
L 143.939534 124.845567 
L 143.83057 124.901424 
L 143.721607 124.95736 
L 143.612644 125.013376 
L 143.50368 125.069471 
L 143.394717 125.125647 
L 143.285753 125.181903 
L 143.17679 125.238239 
L 143.067827 125.294656 
L 142.958863 125.351153 
L 142.8499 125.407731 
L 142.740936 125.46439 
L 142.631973 125.521131 
L 142.52301 125.577952 
L 142.414046 125.634855 
L 142.305083 125.69184 
L 142.196119 125.748907 
L 142.087156 125.806055 
L 141.978193 125.863286 
L 141.869229 125.920599 
L 141.760266 125.977995 
L 141.651302 126.035473 
L 141.542339 126.093035 
L 141.433376 126.150679 
L 141.324412 126.208406 
L 141.215449 126.266217 
L 141.106485 126.324112 
L 140.997522 126.38209 
L 140.888559 126.440152 
L 140.779595 126.498298 
L 140.670632 126.556528 
L 140.561668 126.614843 
L 140.452705 126.673242 
L 140.343742 126.731726 
L 140.234778 126.790295 
L 140.125815 126.848949 
L 140.016851 126.907689 
L 139.907888 126.966514 
L 139.798925 127.025424 
L 139.689961 127.084421 
L 139.580998 127.143503 
L 139.472035 127.202672 
L 139.363071 127.261927 
L 139.254108 127.321269 
L 139.145144 127.380697 
L 139.036181 127.440213 
L 138.927218 127.499815 
L 138.818254 127.559505 
L 138.709291 127.619282 
L 138.600327 127.679147 
L 138.491364 127.7391 
L 138.382401 127.799141 
L 138.273437 127.85927 
L 138.164474 127.919487 
L 138.05551 127.979793 
L 137.946547 128.040188 
L 137.837584 128.100672 
L 137.72862 128.161245 
L 137.619657 128.221907 
L 137.510693 128.282659 
L 137.40173 128.3435 
L 137.292767 128.404432 
L 137.183803 128.465454 
L 137.07484 128.526566 
L 136.965876 128.587768 
L 136.856913 128.649061 
L 136.74795 128.710445 
L 136.638986 128.77192 
L 136.530023 128.833486 
L 136.421059 128.895144 
L 136.312096 128.956894 
L 136.203133 129.018735 
L 136.094169 129.080669 
L 135.985206 129.142694 
L 135.876242 129.204812 
L 135.767279 129.267023 
L 135.658316 129.329327 
L 135.549352 129.391723 
L 135.440389 129.454213 
L 135.331425 129.516797 
L 135.222462 129.579474 
L 135.113499 129.642244 
L 135.004535 129.705109 
L 134.895572 129.768069 
L 134.786608 129.831122 
L 134.677645 129.89427 
L 134.568682 129.957514 
L 134.459718 130.020852 
L 134.350755 130.084285 
L 134.241791 130.147814 
L 134.132828 130.211439 
L 134.023865 130.27516 
L 133.914901 130.338976 
L 133.805938 130.402889 
L 133.696975 130.466899 
L 133.588011 130.531005 
L 133.479048 130.595209 
L 133.370084 130.659509 
L 133.261121 130.723907 
L 133.152158 130.788402 
L 133.043194 130.852995 
L 132.934231 130.917686 
L 132.825267 130.982476 
L 132.716304 131.047364 
L 132.607341 131.11235 
L 132.498377 131.177435 
L 132.389414 131.24262 
L 132.28045 131.307904 
L 132.171487 131.373287 
L 132.062524 131.43877 
L 131.95356 131.504353 
L 131.844597 131.570036 
L 131.735633 131.635819 
L 131.62667 131.701703 
L 131.517707 131.767688 
L 131.408743 131.833774 
L 131.29978 131.899962 
L 131.190816 131.966251 
L 131.081853 132.032641 
L 130.97289 132.099134 
L 130.863926 132.165728 
L 130.754963 132.232426 
L 130.645999 132.299225 
L 130.537036 132.366128 
L 130.428073 132.433134 
L 130.319109 132.500243 
L 130.210146 132.567455 
L 130.101182 132.634772 
L 129.992219 132.702192 
L 129.883256 132.769717 
L 129.774292 132.837346 
L 129.665329 132.905079 
L 129.556365 132.972918 
L 129.447402 133.040862 
L 129.338439 133.108911 
L 129.229475 133.177066 
L 129.120512 133.245327 
L 129.011548 133.313694 
L 128.902585 133.382167 
L 128.793622 133.450747 
L 128.684658 133.519434 
L 128.575695 133.588228 
L 128.466732 133.657129 
L 128.357768 133.726137 
L 128.248805 133.795254 
L 128.139841 133.864478 
L 128.030878 133.933811 
L 127.921915 134.003252 
L 127.812951 134.072802 
L 127.703988 134.142462 
L 127.595024 134.21223 
L 127.486061 134.282108 
L 127.377098 134.352095 
L 127.268134 134.422193 
L 127.159171 134.492401 
L 127.050207 134.562719 
L 126.941244 134.633148 
L 126.832281 134.703688 
L 126.723317 134.774339 
L 126.614354 134.845102 
L 126.50539 134.915977 
L 126.396427 134.986963 
L 126.287464 135.058062 
L 126.1785 135.129274 
L 126.069537 135.200598 
L 125.960573 135.272035 
L 125.85161 135.343586 
L 125.742647 135.41525 
L 125.633683 135.487028 
L 125.52472 135.558919 
L 125.415756 135.630926 
L 125.306793 135.703047 
L 125.19783 135.775282 
L 125.088866 135.847633 
L 124.979903 135.920099 
L 124.870939 135.992681 
L 124.761976 136.065379 
L 124.653013 136.138193 
L 124.544049 136.211124 
L 124.435086 136.284171 
L 124.326122 136.357335 
L 124.217159 136.430616 
L 124.108196 136.504015 
L 123.999232 136.577532 
L 123.890269 136.651167 
L 123.781305 136.72492 
L 123.672342 136.798792 
L 123.563379 136.872782 
L 123.454415 136.946892 
L 123.345452 137.021121 
L 123.236489 137.09547 
L 123.127525 137.169939 
L 123.018562 137.244528 
L 122.909598 137.319238 
L 122.800635 137.394069 
L 122.691672 137.469021 
L 122.582708 137.544094 
L 122.473745 137.619289 
L 122.364781 137.694605 
L 122.255818 137.770045 
L 122.146855 137.845606 
L 122.037891 137.921291 
L 121.928928 137.997098 
L 121.819964 138.073029 
L 121.711001 138.149084 
L 121.602038 138.225262 
L 121.493074 138.301565 
L 121.384111 138.377993 
L 121.275147 138.454545 
L 121.166184 138.531223 
L 121.057221 138.608025 
L 120.948257 138.684954 
L 120.839294 138.762009 
L 120.73033 138.83919 
L 120.621367 138.916497 
L 120.512404 138.993932 
L 120.40344 139.071494 
L 120.294477 139.149183 
L 120.185513 139.227 
L 120.07655 139.304946 
L 119.967587 139.383019 
L 119.858623 139.461222 
L 119.74966 139.539553 
L 119.640696 139.618014 
L 119.531733 139.696605 
L 119.42277 139.775325 
L 119.313806 139.854176 
L 119.204843 139.933158 
L 119.095879 140.01227 
L 118.986916 140.091514 
L 118.877953 140.170889 
L 118.768989 140.250396 
L 118.660026 140.330035 
L 118.551062 140.409806 
L 118.442099 140.48971 
L 118.333136 140.569748 
L 118.224172 140.649919 
L 118.115209 140.730223 
L 118.006245 140.810662 
L 117.897282 140.891235 
L 117.788319 140.971943 
L 117.679355 141.052786 
L 117.570392 141.133764 
L 117.461429 141.214878 
L 117.352465 141.296128 
L 117.243502 141.377514 
L 117.134538 141.459037 
L 117.025575 141.540697 
L 116.916612 141.622495 
L 116.807648 141.70443 
L 116.698685 141.786503 
L 116.589721 141.868714 
L 116.480758 141.951064 
L 116.371795 142.033553 
L 116.262831 142.116181 
L 116.153868 142.198949 
L 116.044904 142.281857 
L 115.935941 142.364906 
L 115.826978 142.448095 
L 115.718014 142.531425 
L 115.609051 142.614897 
L 115.500087 142.69851 
L 115.391124 142.782266 
L 115.282161 142.866164 
L 115.173197 142.950204 
L 115.064234 143.034388 
L 114.95527 143.118716 
L 114.846307 143.203187 
L 114.737344 143.287802 
L 114.62838 143.372562 
L 114.519417 143.457467 
L 114.410453 143.542517 
L 114.30149 143.627713 
L 114.192527 143.713055 
L 114.083563 143.798543 
L 113.9746 143.884177 
L 113.865636 143.969959 
L 113.756673 144.055888 
L 113.64771 144.141965 
L 113.538746 144.228191 
L 113.429783 144.314564 
L 113.320819 144.401087 
L 113.211856 144.487759 
L 113.102893 144.57458 
L 112.993929 144.661552 
L 112.884966 144.748674 
L 112.776002 144.835946 
L 112.667039 144.92337 
L 112.558076 145.010945 
L 112.449112 145.098672 
L 112.340149 145.186552 
L 112.231186 145.274584 
L 112.122222 145.362769 
L 112.013259 145.451107 
L 111.904295 145.5396 
L 111.795332 145.628246 
L 111.686369 145.717047 
L 111.577405 145.806003 
L 111.468442 145.895114 
L 111.359478 145.984381 
L 111.250515 146.073804 
L 111.141552 146.163384 
L 111.032588 146.253121 
L 110.923625 146.343015 
L 110.814661 146.433066 
L 110.705698 146.523276 
L 110.596735 146.613644 
L 110.487771 146.704171 
L 110.378808 146.794858 
L 110.269844 146.885704 
L 110.160881 146.97671 
L 110.051918 147.067877 
L 109.942954 147.159204 
L 109.833991 147.250693 
L 109.725027 147.342344 
L 109.616064 147.434157 
L 109.507101 147.526132 
L 109.398137 147.618271 
L 109.289174 147.710573 
L 109.18021 147.803038 
L 109.071247 147.895668 
L 108.962284 147.988463 
L 108.85332 148.081423 
L 108.744357 148.174548 
L 108.635393 148.267839 
L 108.52643 148.361296 
L 108.417467 148.45492 
L 108.308503 148.548712 
L 108.19954 148.642671 
L 108.090576 148.736798 
L 107.981613 148.831094 
L 107.87265 148.925558 
L 107.763686 149.020192 
L 107.654723 149.114996 
L 107.545759 149.20997 
L 107.436796 149.305115 
L 107.327833 149.40043 
L 107.218869 149.495918 
L 107.109906 149.591577 
L 107.000943 149.687409 
L 106.891979 149.783414 
L 106.783016 149.879592 
L 106.674052 149.975944 
L 106.565089 150.07247 
L 106.456126 150.169171 
L 106.347162 150.266047 
L 106.238199 150.363099 
L 106.129235 150.460326 
L 106.020272 150.557731 
L 105.911309 150.655312 
L 105.802345 150.753071 
L 105.693382 150.851008 
L 105.584418 150.949123 
L 105.475455 151.047417 
L 105.366492 151.14589 
L 105.257528 151.244543 
L 105.148565 151.343377 
L 105.039601 151.442391 
L 104.930638 151.541586 
L 104.821675 151.640964 
L 104.712711 151.740523 
L 104.603748 151.840265 
L 104.494784 151.94019 
L 104.385821 152.040299 
L 104.276858 152.140592 
L 104.167894 152.241069 
L 104.058931 152.341732 
L 103.949967 152.44258 
L 103.841004 152.543615 
L 103.732041 152.644836 
L 103.623077 152.746243 
L 103.514114 152.847839 
L 103.40515 152.949623 
L 103.296187 153.051595 
L 103.187224 153.153756 
L 103.07826 153.256107 
L 102.969297 153.358648 
L 102.860333 153.461379 
L 102.75137 153.564302 
L 102.642407 153.667416 
L 102.533443 153.770723 
L 102.42448 153.874222 
L 102.315516 153.977914 
L 102.206553 154.0818 
L 102.09759 154.18588 
L 101.988626 154.290155 
L 101.879663 154.394625 
L 101.7707 154.499291 
L 101.661736 154.604153 
L 101.552773 154.709212 
L 101.443809 154.814468 
L 101.443809 154.814468 
L 101.443809 154.182158 
L 101.443809 153.549847 
L 101.443809 152.917537 
L 101.443809 152.285227 
L 101.443809 151.652916 
L 101.443809 151.020606 
L 101.443809 150.388295 
L 101.443809 149.755985 
L 101.443809 149.123675 
L 101.443809 148.491364 
L 101.443809 147.859054 
L 101.443809 147.226744 
L 101.443809 146.594433 
L 101.443809 145.962123 
L 101.443809 145.329812 
L 101.443809 144.697502 
L 101.443809 144.065192 
L 101.443809 143.432881 
L 101.443809 142.800571 
L 101.443809 142.16826 
L 101.443809 141.53595 
L 101.443809 140.90364 
L 101.443809 140.271329 
L 101.443809 139.639019 
L 101.443809 139.006709 
L 101.443809 138.374398 
L 101.443809 137.742088 
L 101.443809 137.109777 
L 101.443809 136.477467 
L 101.443809 135.845157 
L 101.443809 135.212846 
L 101.443809 134.580536 
L 101.443809 133.948225 
L 101.443809 133.315915 
L 101.443809 132.683605 
L 101.443809 132.051294 
L 101.443809 131.418984 
L 101.443809 130.786674 
L 101.443809 130.154363 
L 101.443809 129.522053 
L 101.443809 128.889742 
L 101.443809 128.257432 
L 101.443809 127.625122 
L 101.443809 126.992811 
L 101.443809 126.360501 
L 101.443809 125.72819 
L 101.443809 125.09588 
L 101.443809 124.46357 
L 101.443809 123.831259 
L 101.443809 123.198949 
L 101.443809 122.566639 
L 101.443809 121.934328 
L 101.443809 121.302018 
L 101.443809 120.669707 
L 101.443809 120.037397 
L 101.443809 119.405087 
L 101.443809 118.772776 
L 101.443809 118.140466 
L 101.443809 117.508155 
L 101.443809 116.875845 
L 101.443809 116.243535 
L 101.443809 115.611224 
L 101.443809 114.978914 
L 101.443809 114.346603 
L 101.443809 113.714293 
L 101.443809 113.081983 
L 101.443809 112.449672 
L 101.443809 111.817362 
L 101.443809 111.185052 
L 101.443809 110.552741 
L 101.443809 109.920431 
L 101.443809 109.28812 
L 101.443809 108.65581 
L 101.443809 108.0235 
L 101.443809 107.391189 
L 101.443809 106.758879 
L 101.443809 106.126568 
L 101.443809 105.494258 
z
" clip-path="url(#pf6f9048fdc)" style="fill: #bdbdbd; opacity: 0.35"/>
   </g>
   <g id="matplotlib.axis_1"/>
   <g id="matplotlib.axis_2"/>
   <g id="line2d_1">
    <path d="M 47.071075 153.291214 
L 50.096887 148.606769 
L 53.230765 144.158268 
L 56.472707 139.937572 
L 59.822713 135.935916 
L 63.280785 132.144127 
L 66.954986 128.448643 
L 70.737252 124.961227 
L 74.735647 121.582706 
L 78.842107 118.403695 
L 83.164696 115.337989 
L 87.703415 112.391898 
L 92.458263 109.569344 
L 97.537306 106.816233 
L 101.427636 104.869768 
L 101.427636 104.869768 
" clip-path="url(#pf6f9048fdc)" style="fill: none; stroke: #0004ff; stroke-opacity: 0.22; stroke-width: 2.2; stroke-linecap: square"/>
   </g>
   <g id="line2d_2">
    <path d="M 101.535701 104.817558 
L 107.155067 102.230668 
L 113.098628 99.743704 
L 119.366382 97.36277 
L 126.066396 95.056041 
L 133.198668 92.835144 
L 140.871265 90.679401 
L 149.192249 88.576768 
L 158.161622 86.545134 
L 167.779384 84.597504 
L 178.261663 82.705827 
L 189.60846 80.887657 
L 201.92784 79.140785 
L 215.435932 77.452632 
L 230.2408 75.829373 
L 233.698872 75.479944 
L 233.698872 75.479944 
" clip-path="url(#pf6f9048fdc)" style="fill: none; stroke: #0004ff; stroke-opacity: 0.22; stroke-width: 2.2; stroke-linecap: square"/>
   </g>
   <g id="line2d_3">
    <path d="M 233.806937 75.469192 
L 250.55697 73.915818 
L 263.09248 72.884449 
L 263.09248 72.884449 
" clip-path="url(#pf6f9048fdc)" style="fill: none; stroke: #0004ff; stroke-opacity: 0.22; stroke-width: 2.2; stroke-linecap: square"/>
   </g>
   <g id="line2d_4">
    <path d="M 47.071075 251.673 
L 49.988823 242.624964 
L 52.90657 234.292326 
L 55.932383 226.322725 
L 58.958196 218.962643 
L 62.092073 211.913132 
L 65.334015 205.169218 
L 68.684022 198.724346 
L 70.521122 195.395624 
L 70.521122 195.395624 
" clip-path="url(#pf6f9048fdc)" style="fill: none; stroke: #ff0202; stroke-opacity: 0.22; stroke-width: 2.2; stroke-linecap: square"/>
   </g>
   <g id="line2d_5">
    <path d="M 70.629187 195.204093 
L 74.087258 189.311879 
L 77.653395 183.682047 
L 81.327596 178.306579 
L 85.109861 173.176909 
L 89.000192 168.284097 
L 92.998587 163.618978 
L 97.105047 159.172278 
L 101.319572 154.934721 
L 105.750226 150.799894 
L 110.288945 146.869768 
L 115.043793 143.050197 
L 119.906706 139.426697 
L 124.985749 135.916209 
L 130.280921 132.523787 
L 135.900287 129.191097 
L 141.735782 125.990903 
L 147.895472 122.870154 
L 154.379356 119.839579 
L 155.784198 119.214525 
L 155.784198 119.214525 
" clip-path="url(#pf6f9048fdc)" style="fill: none; stroke: #ff0202; stroke-opacity: 0.22; stroke-width: 2.2; stroke-linecap: square"/>
   </g>
   <g id="line2d_6">
    <path d="M 155.892263 119.166888 
L 162.700341 116.287623 
L 169.940678 113.468597 
L 177.613274 110.723687 
L 185.71813 108.063728 
L 194.255244 105.496827 
L 203.332681 103.000272 
L 213.058507 100.559201 
L 223.432722 98.188727 
L 234.455325 95.900351 
L 246.234381 93.68301 
L 258.877955 91.530284 
L 263.09248 90.859471 
L 263.09248 90.859471 
" clip-path="url(#pf6f9048fdc)" style="fill: none; stroke: #ff0202; stroke-opacity: 0.22; stroke-width: 2.2; stroke-linecap: square"/>
   </g>
   <g id="text_1">
    <!-- Tip-sample distance $s$ -->
    <g transform="translate(57.369565 28.918976) scale(0.2 -0.2)">
     <defs>
      <path id="ArialMT-54" d="M 1659 0 
L 1659 4041 
L 150 4041 
L 150 4581 
L 3781 4581 
L 3781 4041 
L 2266 4041 
L 2266 0 
L 1659 0 
z
" transform="scale(0.015625)"/>
      <path id="ArialMT-69" d="M 425 3934 
L 425 4581 
L 988 4581 
L 988 3934 
L 425 3934 
z
M 425 0 
L 425 3319 
L 988 3319 
L 988 0 
L 425 0 
z
" transform="scale(0.015625)"/>
      <path id="ArialMT-70" d="M 422 -1272 
L 422 3319 
L 934 3319 
L 934 2888 
Q 1116 3141 1344 3267 
Q 1572 3394 1897 3394 
Q 2322 3394 2647 3175 
Q 2972 2956 3137 2557 
Q 3303 2159 3303 1684 
Q 3303 1175 3120 767 
Q 2938 359 2589 142 
Q 2241 -75 1856 -75 
Q 1575 -75 1351 44 
Q 1128 163 984 344 
L 984 -1272 
L 422 -1272 
z
M 931 1641 
Q 931 1000 1190 694 
Q 1450 388 1819 388 
Q 2194 388 2461 705 
Q 2728 1022 2728 1688 
Q 2728 2322 2467 2637 
Q 2206 2953 1844 2953 
Q 1484 2953 1207 2617 
Q 931 2281 931 1641 
z
" transform="scale(0.015625)"/>
      <path id="ArialMT-2d" d="M 203 1375 
L 203 1941 
L 1931 1941 
L 1931 1375 
L 203 1375 
z
" transform="scale(0.015625)"/>
      <path id="ArialMT-73" d="M 197 991 
L 753 1078 
Q 800 744 1014 566 
Q 1228 388 1613 388 
Q 2000 388 2187 545 
Q 2375 703 2375 916 
Q 2375 1106 2209 1216 
Q 2094 1291 1634 1406 
Q 1016 1563 777 1677 
Q 538 1791 414 1992 
Q 291 2194 291 2438 
Q 291 2659 392 2848 
Q 494 3038 669 3163 
Q 800 3259 1026 3326 
Q 1253 3394 1513 3394 
Q 1903 3394 2198 3281 
Q 2494 3169 2634 2976 
Q 2775 2784 2828 2463 
L 2278 2388 
Q 2241 2644 2061 2787 
Q 1881 2931 1553 2931 
Q 1166 2931 1000 2803 
Q 834 2675 834 2503 
Q 834 2394 903 2306 
Q 972 2216 1119 2156 
Q 1203 2125 1616 2013 
Q 2213 1853 2448 1751 
Q 2684 1650 2818 1456 
Q 2953 1263 2953 975 
Q 2953 694 2789 445 
Q 2625 197 2315 61 
Q 2006 -75 1616 -75 
Q 969 -75 630 194 
Q 291 463 197 991 
z
" transform="scale(0.015625)"/>
      <path id="ArialMT-61" d="M 2588 409 
Q 2275 144 1986 34 
Q 1697 -75 1366 -75 
Q 819 -75 525 192 
Q 231 459 231 875 
Q 231 1119 342 1320 
Q 453 1522 633 1644 
Q 813 1766 1038 1828 
Q 1203 1872 1538 1913 
Q 2219 1994 2541 2106 
Q 2544 2222 2544 2253 
Q 2544 2597 2384 2738 
Q 2169 2928 1744 2928 
Q 1347 2928 1158 2789 
Q 969 2650 878 2297 
L 328 2372 
Q 403 2725 575 2942 
Q 747 3159 1072 3276 
Q 1397 3394 1825 3394 
Q 2250 3394 2515 3294 
Q 2781 3194 2906 3042 
Q 3031 2891 3081 2659 
Q 3109 2516 3109 2141 
L 3109 1391 
Q 3109 606 3145 398 
Q 3181 191 3288 0 
L 2700 0 
Q 2613 175 2588 409 
z
M 2541 1666 
Q 2234 1541 1622 1453 
Q 1275 1403 1131 1340 
Q 988 1278 909 1158 
Q 831 1038 831 891 
Q 831 666 1001 516 
Q 1172 366 1500 366 
Q 1825 366 2078 508 
Q 2331 650 2450 897 
Q 2541 1088 2541 1459 
L 2541 1666 
z
" transform="scale(0.015625)"/>
      <path id="ArialMT-6d" d="M 422 0 
L 422 3319 
L 925 3319 
L 925 2853 
Q 1081 3097 1340 3245 
Q 1600 3394 1931 3394 
Q 2300 3394 2536 3241 
Q 2772 3088 2869 2813 
Q 3263 3394 3894 3394 
Q 4388 3394 4653 3120 
Q 4919 2847 4919 2278 
L 4919 0 
L 4359 0 
L 4359 2091 
Q 4359 2428 4304 2576 
Q 4250 2725 4106 2815 
Q 3963 2906 3769 2906 
Q 3419 2906 3187 2673 
Q 2956 2441 2956 1928 
L 2956 0 
L 2394 0 
L 2394 2156 
Q 2394 2531 2256 2718 
Q 2119 2906 1806 2906 
Q 1569 2906 1367 2781 
Q 1166 2656 1075 2415 
Q 984 2175 984 1722 
L 984 0 
L 422 0 
z
" transform="scale(0.015625)"/>
      <path id="ArialMT-6c" d="M 409 0 
L 409 4581 
L 972 4581 
L 972 0 
L 409 0 
z
" transform="scale(0.015625)"/>
      <path id="ArialMT-65" d="M 2694 1069 
L 3275 997 
Q 3138 488 2766 206 
Q 2394 -75 1816 -75 
Q 1088 -75 661 373 
Q 234 822 234 1631 
Q 234 2469 665 2931 
Q 1097 3394 1784 3394 
Q 2450 3394 2872 2941 
Q 3294 2488 3294 1666 
Q 3294 1616 3291 1516 
L 816 1516 
Q 847 969 1125 678 
Q 1403 388 1819 388 
Q 2128 388 2347 550 
Q 2566 713 2694 1069 
z
M 847 1978 
L 2700 1978 
Q 2663 2397 2488 2606 
Q 2219 2931 1791 2931 
Q 1403 2931 1139 2672 
Q 875 2413 847 1978 
z
" transform="scale(0.015625)"/>
      <path id="ArialMT-20" transform="scale(0.015625)"/>
      <path id="ArialMT-64" d="M 2575 0 
L 2575 419 
Q 2259 -75 1647 -75 
Q 1250 -75 917 144 
Q 584 363 401 755 
Q 219 1147 219 1656 
Q 219 2153 384 2558 
Q 550 2963 881 3178 
Q 1213 3394 1622 3394 
Q 1922 3394 2156 3267 
Q 2391 3141 2538 2938 
L 2538 4581 
L 3097 4581 
L 3097 0 
L 2575 0 
z
M 797 1656 
Q 797 1019 1065 703 
Q 1334 388 1700 388 
Q 2069 388 2326 689 
Q 2584 991 2584 1609 
Q 2584 2291 2321 2609 
Q 2059 2928 1675 2928 
Q 1300 2928 1048 2622 
Q 797 2316 797 1656 
z
" transform="scale(0.015625)"/>
      <path id="ArialMT-74" d="M 1650 503 
L 1731 6 
Q 1494 -44 1306 -44 
Q 1000 -44 831 53 
Q 663 150 594 308 
Q 525 466 525 972 
L 525 2881 
L 113 2881 
L 113 3319 
L 525 3319 
L 525 4141 
L 1084 4478 
L 1084 3319 
L 1650 3319 
L 1650 2881 
L 1084 2881 
L 1084 941 
Q 1084 700 1114 631 
Q 1144 563 1211 522 
Q 1278 481 1403 481 
Q 1497 481 1650 503 
z
" transform="scale(0.015625)"/>
      <path id="ArialMT-6e" d="M 422 0 
L 422 3319 
L 928 3319 
L 928 2847 
Q 1294 3394 1984 3394 
Q 2284 3394 2536 3286 
Q 2788 3178 2913 3003 
Q 3038 2828 3088 2588 
Q 3119 2431 3119 2041 
L 3119 0 
L 2556 0 
L 2556 2019 
Q 2556 2363 2490 2533 
Q 2425 2703 2258 2804 
Q 2091 2906 1866 2906 
Q 1506 2906 1245 2678 
Q 984 2450 984 1813 
L 984 0 
L 422 0 
z
" transform="scale(0.015625)"/>
      <path id="ArialMT-63" d="M 2588 1216 
L 3141 1144 
Q 3050 572 2676 248 
Q 2303 -75 1759 -75 
Q 1078 -75 664 370 
Q 250 816 250 1647 
Q 250 2184 428 2587 
Q 606 2991 970 3192 
Q 1334 3394 1763 3394 
Q 2303 3394 2647 3120 
Q 2991 2847 3088 2344 
L 2541 2259 
Q 2463 2594 2264 2762 
Q 2066 2931 1784 2931 
Q 1359 2931 1093 2626 
Q 828 2322 828 1663 
Q 828 994 1084 691 
Q 1341 388 1753 388 
Q 2084 388 2306 591 
Q 2528 794 2588 1216 
z
" transform="scale(0.015625)"/>
      <path id="Arial-ItalicMT-73" d="M 266 1134 
L 831 1169 
Q 831 925 906 753 
Q 981 581 1182 472 
Q 1384 363 1653 363 
Q 2028 363 2215 513 
Q 2403 663 2403 866 
Q 2403 1013 2291 1144 
Q 2175 1275 1726 1467 
Q 1278 1659 1153 1738 
Q 944 1866 837 2039 
Q 731 2213 731 2438 
Q 731 2831 1043 3112 
Q 1356 3394 1919 3394 
Q 2544 3394 2870 3105 
Q 3197 2816 3209 2344 
L 2656 2306 
Q 2644 2606 2444 2781 
Q 2244 2956 1878 2956 
Q 1584 2956 1421 2822 
Q 1259 2688 1259 2531 
Q 1259 2375 1400 2256 
Q 1494 2175 1884 2006 
Q 2534 1725 2703 1563 
Q 2972 1303 2972 931 
Q 2972 684 2820 446 
Q 2669 209 2358 67 
Q 2047 -75 1625 -75 
Q 1050 -75 647 209 
Q 244 494 266 1134 
z
" transform="scale(0.015625)"/>
     </defs>
     <use xlink:href="#ArialMT-54" transform="translate(0 0.421875)"/>
     <use xlink:href="#ArialMT-69" transform="translate(61.083984 0.421875)"/>
     <use xlink:href="#ArialMT-70" transform="translate(83.300781 0.421875)"/>
     <use xlink:href="#ArialMT-2d" transform="translate(138.916016 0.421875)"/>
     <use xlink:href="#ArialMT-73" transform="translate(172.216797 0.421875)"/>
     <use xlink:href="#ArialMT-61" transform="translate(222.216797 0.421875)"/>
     <use xlink:href="#ArialMT-6d" transform="translate(277.832031 0.421875)"/>
     <use xlink:href="#ArialMT-70" transform="translate(361.132812 0.421875)"/>
     <use xlink:href="#ArialMT-6c" transform="translate(416.748047 0.421875)"/>
     <use xlink:href="#ArialMT-65" transform="translate(438.964844 0.421875)"/>
     <use xlink:href="#ArialMT-20" transform="translate(494.580078 0.421875)"/>
     <use xlink:href="#ArialMT-64" transform="translate(522.363281 0.421875)"/>
     <use xlink:href="#ArialMT-69" transform="translate(577.978516 0.421875)"/>
     <use xlink:href="#ArialMT-73" transform="translate(600.195312 0.421875)"/>
     <use xlink:href="#ArialMT-74" transform="translate(650.195312 0.421875)"/>
     <use xlink:href="#ArialMT-61" transform="translate(677.978516 0.421875)"/>
     <use xlink:href="#ArialMT-6e" transform="translate(733.59375 0.421875)"/>
     <use xlink:href="#ArialMT-63" transform="translate(789.208984 0.421875)"/>
     <use xlink:href="#ArialMT-65" transform="translate(839.208984 0.421875)"/>
     <use xlink:href="#ArialMT-20" transform="translate(894.824219 0.421875)"/>
     <use xlink:href="#Arial-ItalicMT-73" transform="translate(922.607422 0.421875)"/>
    </g>
   </g>
   <g id="text_2">
    <!-- Force $F$ -->
    <g transform="translate(29.08742 202.86192) rotate(-90) scale(0.2 -0.2)">
     <defs>
      <path id="ArialMT-46" d="M 525 0 
L 525 4581 
L 3616 4581 
L 3616 4041 
L 1131 4041 
L 1131 2622 
L 3281 2622 
L 3281 2081 
L 1131 2081 
L 1131 0 
L 525 0 
z
" transform="scale(0.015625)"/>
      <path id="ArialMT-6f" d="M 213 1659 
Q 213 2581 725 3025 
Q 1153 3394 1769 3394 
Q 2453 3394 2887 2945 
Q 3322 2497 3322 1706 
Q 3322 1066 3130 698 
Q 2938 331 2570 128 
Q 2203 -75 1769 -75 
Q 1072 -75 642 372 
Q 213 819 213 1659 
z
M 791 1659 
Q 791 1022 1069 705 
Q 1347 388 1769 388 
Q 2188 388 2466 706 
Q 2744 1025 2744 1678 
Q 2744 2294 2464 2611 
Q 2184 2928 1769 2928 
Q 1347 2928 1069 2612 
Q 791 2297 791 1659 
z
" transform="scale(0.015625)"/>
      <path id="ArialMT-72" d="M 416 0 
L 416 3319 
L 922 3319 
L 922 2816 
Q 1116 3169 1280 3281 
Q 1444 3394 1641 3394 
Q 1925 3394 2219 3213 
L 2025 2691 
Q 1819 2813 1613 2813 
Q 1428 2813 1281 2702 
Q 1134 2591 1072 2394 
Q 978 2094 978 1738 
L 978 0 
L 416 0 
z
" transform="scale(0.015625)"/>
      <path id="Arial-ItalicMT-46" d="M 291 0 
L 1247 4581 
L 4225 4581 
L 4116 4059 
L 1750 4059 
L 1447 2600 
L 3856 2600 
L 3747 2078 
L 1338 2078 
L 903 0 
L 291 0 
z
" transform="scale(0.015625)"/>
     </defs>
     <use xlink:href="#ArialMT-46" transform="translate(0 0.421875)"/>
     <use xlink:href="#ArialMT-6f" transform="translate(61.083984 0.421875)"/>
     <use xlink:href="#ArialMT-72" transform="translate(116.699219 0.421875)"/>
     <use xlink:href="#ArialMT-63" transform="translate(150 0.421875)"/>
     <use xlink:href="#ArialMT-65" transform="translate(200 0.421875)"/>
     <use xlink:href="#ArialMT-20" transform="translate(255.615234 0.421875)"/>
     <use xlink:href="#Arial-ItalicMT-46" transform="translate(283.398438 0.421875)"/>
    </g>
   </g>
   <g id="line2d_7">
    <path d="M 101.535701 104.817558 
L 107.155067 102.230668 
L 113.098628 99.743704 
L 119.366382 97.36277 
L 126.066396 95.056041 
L 133.198668 92.835144 
L 140.871265 90.679401 
L 149.192249 88.576768 
L 158.161622 86.545134 
L 167.779384 84.597504 
L 178.261663 82.705827 
L 189.60846 80.887657 
L 201.92784 79.140785 
L 215.435932 77.452632 
L 230.2408 75.829373 
L 233.698872 75.479944 
L 233.698872 75.479944 
" clip-path="url(#pf6f9048fdc)" style="fill: none; stroke-dasharray: 2.6,2.6; stroke-dashoffset: 0; stroke: #f58518; stroke-width: 2.6"/>
   </g>
   <g id="line2d_8">
    <path d="M 101.443809 104.861948 
L 101.443809 154.814468 
" clip-path="url(#pf6f9048fdc)" style="fill: none; stroke-dasharray: 2.6,2.6; stroke-dashoffset: 0; stroke: #f58518; stroke-width: 2.6"/>
   </g>
   <g id="line2d_9">
    <path d="M 70.629187 195.204093 
L 74.087258 189.311879 
L 77.653395 183.682047 
L 81.327596 178.306579 
L 85.109861 173.176909 
L 89.000192 168.284097 
L 92.998587 163.618978 
L 97.105047 159.172278 
L 101.319572 154.934721 
L 101.427636 154.830108 
L 101.427636 154.830108 
" clip-path="url(#pf6f9048fdc)" style="fill: none; stroke-dasharray: 2.6,2.6; stroke-dashoffset: 0; stroke: #f58518; stroke-width: 2.6"/>
   </g>
   <g id="line2d_10">
    <path d="M 70.629187 195.204093 
L 74.087258 189.311879 
L 77.653395 183.682047 
L 81.327596 178.306579 
L 85.109861 173.176909 
L 89.000192 168.284097 
L 92.998587 163.618978 
L 97.105047 159.172278 
L 101.319572 154.934721 
L 105.750226 150.799894 
L 110.288945 146.869768 
L 115.043793 143.050197 
L 119.906706 139.426697 
L 124.985749 135.916209 
L 130.280921 132.523787 
L 135.900287 129.191097 
L 141.735782 125.990903 
L 147.895472 122.870154 
L 154.379356 119.839579 
L 155.784198 119.214525 
L 155.784198 119.214525 
" clip-path="url(#pf6f9048fdc)" style="fill: none; stroke-dasharray: 2.6,2.6; stroke-dashoffset: 3.9; stroke: #2ca02c; stroke-width: 2.6"/>
   </g>
   <g id="line2d_11">
    <path d="M 155.816544 119.20026 
L 155.816544 87.054844 
" clip-path="url(#pf6f9048fdc)" style="fill: none; stroke-dasharray: 2.6,2.6; stroke-dashoffset: 3.9; stroke: #2ca02c; stroke-width: 2.6"/>
   </g>
   <g id="line2d_12">
    <path d="M 155.892263 87.038158 
L 165.293895 85.07998 
L 175.560044 83.172443 
L 186.690712 81.334557 
L 198.793962 79.564924 
L 211.97786 77.864433 
L 226.458535 76.223847 
L 233.698872 75.479944 
L 233.698872 75.479944 
" clip-path="url(#pf6f9048fdc)" style="fill: none; stroke-dasharray: 2.6,2.6; stroke-dashoffset: 3.9; stroke: #2ca02c; stroke-width: 2.6"/>
   </g>
   <g id="legend_1">
    <g id="line2d_13">
     <path d="M 138.53875 197.327813 
L 150.43875 197.327813 
L 162.33875 197.327813 
" style="fill: none; stroke: #0004ff; stroke-opacity: 0.22; stroke-width: 2.2; stroke-linecap: square"/>
    </g>
    <g id="text_3">
     <!-- Unoccupied -->
     <g transform="translate(173.53875 202.227813) scale(0.14 -0.14)">
      <defs>
       <path id="ArialMT-55" d="M 3500 4581 
L 4106 4581 
L 4106 1934 
Q 4106 1244 3950 837 
Q 3794 431 3386 176 
Q 2978 -78 2316 -78 
Q 1672 -78 1262 144 
Q 853 366 678 786 
Q 503 1206 503 1934 
L 503 4581 
L 1109 4581 
L 1109 1938 
Q 1109 1341 1220 1058 
Q 1331 775 1601 622 
Q 1872 469 2263 469 
Q 2931 469 3215 772 
Q 3500 1075 3500 1938 
L 3500 4581 
z
" transform="scale(0.015625)"/>
       <path id="ArialMT-75" d="M 2597 0 
L 2597 488 
Q 2209 -75 1544 -75 
Q 1250 -75 995 37 
Q 741 150 617 320 
Q 494 491 444 738 
Q 409 903 409 1263 
L 409 3319 
L 972 3319 
L 972 1478 
Q 972 1038 1006 884 
Q 1059 663 1231 536 
Q 1403 409 1656 409 
Q 1909 409 2131 539 
Q 2353 669 2445 892 
Q 2538 1116 2538 1541 
L 2538 3319 
L 3100 3319 
L 3100 0 
L 2597 0 
z
" transform="scale(0.015625)"/>
      </defs>
      <use xlink:href="#ArialMT-55"/>
      <use xlink:href="#ArialMT-6e" transform="translate(72.216797 0)"/>
      <use xlink:href="#ArialMT-6f" transform="translate(127.832031 0)"/>
      <use xlink:href="#ArialMT-63" transform="translate(183.447266 0)"/>
      <use xlink:href="#ArialMT-63" transform="translate(233.447266 0)"/>
      <use xlink:href="#ArialMT-75" transform="translate(283.447266 0)"/>
      <use xlink:href="#ArialMT-70" transform="translate(339.0625 0)"/>
      <use xlink:href="#ArialMT-69" transform="translate(394.677734 0)"/>
      <use xlink:href="#ArialMT-65" transform="translate(416.894531 0)"/>
      <use xlink:href="#ArialMT-64" transform="translate(472.509766 0)"/>
     </g>
    </g>
    <g id="line2d_14">
     <path d="M 138.53875 217.310625 
L 150.43875 217.310625 
L 162.33875 217.310625 
" style="fill: none; stroke: #ff0202; stroke-opacity: 0.22; stroke-width: 2.2; stroke-linecap: square"/>
    </g>
    <g id="text_4">
     <!-- Occupied -->
     <g transform="translate(173.53875 222.210625) scale(0.14 -0.14)">
      <defs>
       <path id="ArialMT-4f" d="M 309 2231 
Q 309 3372 921 4017 
Q 1534 4663 2503 4663 
Q 3138 4663 3647 4359 
Q 4156 4056 4423 3514 
Q 4691 2972 4691 2284 
Q 4691 1588 4409 1038 
Q 4128 488 3612 205 
Q 3097 -78 2500 -78 
Q 1853 -78 1343 234 
Q 834 547 571 1087 
Q 309 1628 309 2231 
z
M 934 2222 
Q 934 1394 1379 917 
Q 1825 441 2497 441 
Q 3181 441 3623 922 
Q 4066 1403 4066 2288 
Q 4066 2847 3877 3264 
Q 3688 3681 3323 3911 
Q 2959 4141 2506 4141 
Q 1863 4141 1398 3698 
Q 934 3256 934 2222 
z
" transform="scale(0.015625)"/>
      </defs>
      <use xlink:href="#ArialMT-4f"/>
      <use xlink:href="#ArialMT-63" transform="translate(77.783203 0)"/>
      <use xlink:href="#ArialMT-63" transform="translate(127.783203 0)"/>
      <use xlink:href="#ArialMT-75" transform="translate(177.783203 0)"/>
      <use xlink:href="#ArialMT-70" transform="translate(233.398438 0)"/>
      <use xlink:href="#ArialMT-69" transform="translate(289.013672 0)"/>
      <use xlink:href="#ArialMT-65" transform="translate(311.230469 0)"/>
      <use xlink:href="#ArialMT-64" transform="translate(366.845703 0)"/>
     </g>
    </g>
    <g id="line2d_15">
     <path d="M 138.53875 237.114063 
L 150.43875 237.114063 
L 162.33875 237.114063 
" style="fill: none; stroke-dasharray: 2.2,2.2; stroke-dashoffset: 0; stroke: #f58518; stroke-width: 2.2"/>
    </g>
    <g id="text_5">
     <!-- Approach path -->
     <g transform="translate(173.53875 242.014063) scale(0.14 -0.14)">
      <defs>
       <path id="ArialMT-41" d="M -9 0 
L 1750 4581 
L 2403 4581 
L 4278 0 
L 3588 0 
L 3053 1388 
L 1138 1388 
L 634 0 
L -9 0 
z
M 1313 1881 
L 2866 1881 
L 2388 3150 
Q 2169 3728 2063 4100 
Q 1975 3659 1816 3225 
L 1313 1881 
z
" transform="scale(0.015625)"/>
       <path id="ArialMT-68" d="M 422 0 
L 422 4581 
L 984 4581 
L 984 2938 
Q 1378 3394 1978 3394 
Q 2347 3394 2619 3248 
Q 2891 3103 3008 2847 
Q 3125 2591 3125 2103 
L 3125 0 
L 2563 0 
L 2563 2103 
Q 2563 2525 2380 2717 
Q 2197 2909 1863 2909 
Q 1613 2909 1392 2779 
Q 1172 2650 1078 2428 
Q 984 2206 984 1816 
L 984 0 
L 422 0 
z
" transform="scale(0.015625)"/>
      </defs>
      <use xlink:href="#ArialMT-41"/>
      <use xlink:href="#ArialMT-70" transform="translate(66.699219 0)"/>
      <use xlink:href="#ArialMT-70" transform="translate(122.314453 0)"/>
      <use xlink:href="#ArialMT-72" transform="translate(177.929688 0)"/>
      <use xlink:href="#ArialMT-6f" transform="translate(211.230469 0)"/>
      <use xlink:href="#ArialMT-61" transform="translate(266.845703 0)"/>
      <use xlink:href="#ArialMT-63" transform="translate(322.460938 0)"/>
      <use xlink:href="#ArialMT-68" transform="translate(372.460938 0)"/>
      <use xlink:href="#ArialMT-20" transform="translate(428.076172 0)"/>
      <use xlink:href="#ArialMT-70" transform="translate(455.859375 0)"/>
      <use xlink:href="#ArialMT-61" transform="translate(511.474609 0)"/>
      <use xlink:href="#ArialMT-74" transform="translate(567.089844 0)"/>
      <use xlink:href="#ArialMT-68" transform="translate(594.873047 0)"/>
     </g>
    </g>
    <g id="line2d_16">
     <path d="M 138.53875 256.9175 
L 150.43875 256.9175 
L 162.33875 256.9175 
" style="fill: none; stroke-dasharray: 2.2,2.2; stroke-dashoffset: 3.3; stroke: #2ca02c; stroke-width: 2.2"/>
    </g>
    <g id="text_6">
     <!-- Retract path -->
     <g transform="translate(173.53875 261.8175) scale(0.14 -0.14)">
      <defs>
       <path id="ArialMT-52" d="M 503 0 
L 503 4581 
L 2534 4581 
Q 3147 4581 3465 4457 
Q 3784 4334 3975 4021 
Q 4166 3709 4166 3331 
Q 4166 2844 3850 2509 
Q 3534 2175 2875 2084 
Q 3116 1969 3241 1856 
Q 3506 1613 3744 1247 
L 4541 0 
L 3778 0 
L 3172 953 
Q 2906 1366 2734 1584 
Q 2563 1803 2427 1890 
Q 2291 1978 2150 2013 
Q 2047 2034 1813 2034 
L 1109 2034 
L 1109 0 
L 503 0 
z
M 1109 2559 
L 2413 2559 
Q 2828 2559 3062 2645 
Q 3297 2731 3419 2920 
Q 3541 3109 3541 3331 
Q 3541 3656 3305 3865 
Q 3069 4075 2559 4075 
L 1109 4075 
L 1109 2559 
z
" transform="scale(0.015625)"/>
      </defs>
      <use xlink:href="#ArialMT-52"/>
      <use xlink:href="#ArialMT-65" transform="translate(72.216797 0)"/>
      <use xlink:href="#ArialMT-74" transform="translate(127.832031 0)"/>
      <use xlink:href="#ArialMT-72" transform="translate(155.615234 0)"/>
      <use xlink:href="#ArialMT-61" transform="translate(188.916016 0)"/>
      <use xlink:href="#ArialMT-63" transform="translate(244.53125 0)"/>
      <use xlink:href="#ArialMT-74" transform="translate(294.53125 0)"/>
      <use xlink:href="#ArialMT-20" transform="translate(322.314453 0)"/>
      <use xlink:href="#ArialMT-70" transform="translate(350.097656 0)"/>
      <use xlink:href="#ArialMT-61" transform="translate(405.712891 0)"/>
      <use xlink:href="#ArialMT-74" transform="translate(461.328125 0)"/>
      <use xlink:href="#ArialMT-68" transform="translate(489.111328 0)"/>
     </g>
    </g>
   </g>
   <g id="line2d_17">
    <defs>
     <path id="m4165f3964e" d="M 0 3.5 
C 0.928211 3.5 1.81853 3.131218 2.474874 2.474874 
C 3.131218 1.81853 3.5 0.928211 3.5 0 
C 3.5 -0.928211 3.131218 -1.81853 2.474874 -2.474874 
C 1.81853 -3.131218 0.928211 -3.5 0 -3.5 
C -0.928211 -3.5 -1.81853 -3.131218 -2.474874 -2.474874 
C -3.131218 -1.81853 -3.5 -0.928211 -3.5 0 
C -3.5 0.928211 -3.131218 1.81853 -2.474874 2.474874 
C -1.81853 3.131218 -0.928211 3.5 0 3.5 
z
" style="stroke: #000000"/>
    </defs>
    <g clip-path="url(#pf6f9048fdc)">
     <use xlink:href="#m4165f3964e" x="70.583609" y="195.284818" style="stroke: #000000"/>
    </g>
   </g>
   <g id="line2d_18">
    <g clip-path="url(#pf6f9048fdc)">
     <use xlink:href="#m4165f3964e" x="233.701812" y="75.479651" style="stroke: #000000"/>
    </g>
   </g>
   <g id="patch_4">
    <path d="M 139.504724 97.551964 
Q 128.630177 101.626288 120.058948 104.837637 
" style="fill: none; stroke: #f58518; stroke-width: 2.2; stroke-linecap: round"/>
    <path d="M 128.064315 105.682677 
L 120.058948 104.837637 
L 125.5382 98.940367 
z
" style="fill: #f58518; stroke: #f58518; stroke-width: 2.2; stroke-linecap: round"/>
   </g>
   <g id="patch_5">
    <path d="M 117.75563 133.248374 
Q 128.630177 126.964246 137.375067 121.910794 
" style="fill: none; stroke: #2ca02c; stroke-width: 2.2; stroke-linecap: round"/>
    <path d="M 129.339874 122.396263 
L 137.375067 121.910794 
L 132.942327 128.63023 
z
" style="fill: #2ca02c; stroke: #2ca02c; stroke-width: 2.2; stroke-linecap: round"/>
   </g>
   <g id="PathCollection_1">
    <path d="M 101.443809 136.162763 
L 107.768365 123.513653 
L 95.119254 123.513653 
z
" style="fill: #f58518"/>
   </g>
   <g id="PathCollection_2">
    <path d="M 155.816544 96.802997 
L 149.491989 109.452107 
L 162.141099 109.452107 
z
" style="fill: #2ca02c"/>
   </g>
   <g id="patch_6">
    <path d="M 8.863207 35.3376 
Q 143.031604 35.3376 275.522949 35.3376 
" style="fill: none; stroke: #000000; stroke-width: 1.5; stroke-linecap: round"/>
    <path d="M 267.522949 31.3376 
L 275.522949 35.3376 
L 267.522949 39.3376 
z
" style="stroke: #000000; stroke-width: 1.5; stroke-linecap: round"/>
   </g>
   <g id="patch_7">
    <path d="M 38.253875 10.872816 
Q 38.253875 144.036408 38.253875 275.522949 
" style="fill: none; stroke: #000000; stroke-width: 1.5; stroke-linecap: round"/>
    <path d="M 42.253875 267.522949 
L 38.253875 275.522949 
L 34.253875 267.522949 
z
" style="stroke: #000000; stroke-width: 1.5; stroke-linecap: round"/>
   </g>
  </g>
 </g>
 <defs>
  <clipPath id="pf6f9048fdc">
   <rect x="38.253875" y="35.3376" width="238.946125" height="241.8624"/>
  </clipPath>
 </defs>
</svg>
